{"glyphs":{"0":{"ha":779,"x_min":64,"x_max":715,"o":"m 389 -8 q 260 9 319 -8 q 158 64 201 26 q 89 162 114 101 q 64 310 64 222 l 64 697 q 89 845 64 785 q 158 943 114 906 q 260 998 201 981 q 389 1015 319 1015 q 517 998 457 1015 q 621 943 576 981 q 690 845 665 906 q 715 697 715 785 l 715 310 q 690 162 715 222 q 621 64 665 101 q 517 9 576 26 q 389 -8 457 -8 m 535 697 q 496 819 535 781 q 389 857 457 857 q 282 819 319 857 q 244 697 244 781 l 244 310 q 282 188 244 226 q 389 150 319 150 q 496 188 457 150 q 535 310 535 226 l 535 697 m 390 567 q 437 549 419 567 q 454 503 454 532 q 437 456 454 475 q 390 438 419 438 q 342 456 360 438 q 325 503 325 475 q 342 549 325 532 q 390 567 360 567 z "},"1":{"ha":400,"x_min":4,"x_max":321,"o":"m 140 799 l 96 754 q 78 744 88 747 q 63 742 69 742 q 20 764 36 742 q 4 814 4 786 q 13 851 4 833 q 39 879 22 868 l 203 1004 q 240 1018 219 1018 q 294 1003 268 1018 q 321 960 321 988 l 321 57 q 292 15 321 29 q 231 0 264 0 q 168 15 196 0 q 140 57 140 29 l 140 799 z "},"2":{"ha":704,"x_min":38,"x_max":668,"o":"m 56 760 q 81 867 56 819 q 147 947 106 914 q 242 998 189 981 q 354 1015 296 1015 q 470 996 414 1015 q 570 940 526 976 q 640 852 614 904 q 665 733 665 800 q 633 599 665 658 q 551 492 600 540 q 445 404 503 443 q 339 330 388 365 q 258 261 290 294 q 225 192 225 228 l 225 158 l 611 158 q 651 135 635 158 q 668 81 668 113 q 651 24 668 49 q 611 0 635 0 l 117 0 q 90 4 104 0 q 65 15 76 8 q 45 33 53 22 q 38 57 38 44 l 38 192 q 71 295 38 247 q 153 386 104 343 q 261 469 203 429 q 369 551 319 510 q 451 635 418 592 q 485 728 485 679 q 477 771 485 749 q 454 811 469 793 q 415 840 439 829 q 356 851 390 851 q 268 823 304 851 q 232 729 232 794 q 207 683 232 704 q 138 663 182 663 q 78 683 101 663 q 56 760 56 703 z "},"3":{"ha":724,"x_min":28,"x_max":681,"o":"m 351 150 q 465 185 431 150 q 500 300 500 221 l 500 326 q 489 390 500 365 q 457 431 478 415 q 408 452 436 446 q 347 458 381 458 q 305 480 317 458 q 293 529 293 501 q 305 578 293 556 q 347 600 317 600 q 397 604 374 600 q 437 623 419 608 q 465 665 454 638 q 475 736 475 692 q 442 832 475 806 q 353 858 410 858 q 257 833 285 858 q 229 765 229 807 q 211 715 229 733 q 143 696 193 696 q 94 700 113 696 q 67 713 76 704 q 53 737 57 722 q 50 774 50 751 q 65 853 50 811 q 114 932 79 896 q 208 992 149 968 q 354 1015 267 1015 q 471 1002 417 1015 q 564 960 525 989 q 625 883 603 931 q 647 767 647 836 q 619 622 647 683 q 539 536 590 560 q 640 463 600 513 q 681 326 681 413 l 681 300 q 654 158 681 217 q 583 62 628 99 q 476 8 538 25 q 347 -8 415 -8 q 201 15 261 -8 q 102 76 140 39 q 46 158 64 113 q 28 244 28 203 q 47 301 28 286 q 114 315 67 315 q 188 300 169 315 q 207 251 207 285 q 246 177 207 204 q 351 150 285 150 z "},"4":{"ha":697,"x_min":-1,"x_max":696,"o":"m 393 221 l 60 221 q 16 238 33 221 q -1 285 -1 254 q 8 321 -1 303 l 338 968 q 371 1005 350 994 q 414 1015 392 1015 q 442 1010 426 1015 q 471 997 457 1006 q 494 974 485 988 q 504 946 504 961 q 497 922 504 936 l 231 389 l 393 389 l 393 535 q 422 578 393 565 q 483 592 450 592 q 546 578 518 592 q 574 535 574 565 l 574 389 l 639 389 q 681 363 667 389 q 696 304 696 336 q 678 247 696 272 q 639 221 661 221 l 574 221 l 574 57 q 546 15 574 29 q 483 0 518 0 q 422 15 450 0 q 393 57 393 29 l 393 221 z "},"5":{"ha":707,"x_min":25,"x_max":676,"o":"m 350 628 q 478 612 418 628 q 582 560 538 596 q 651 469 626 525 q 676 331 676 413 l 676 304 q 651 159 676 218 q 581 63 625 100 q 478 8 538 25 q 353 -8 419 -8 q 213 13 274 -8 q 110 69 151 33 q 47 149 68 104 q 25 243 25 194 q 49 308 25 292 q 115 325 72 325 q 189 305 172 325 q 206 256 206 285 q 247 177 206 204 q 349 150 288 150 q 457 188 418 150 q 496 304 496 225 l 496 331 q 457 448 496 410 q 350 486 418 486 l 144 486 q 87 506 101 486 q 72 557 72 525 q 73 574 72 565 q 74 593 74 583 l 110 958 q 121 1000 113 985 q 144 1015 129 1015 l 572 1015 q 613 990 600 1015 q 626 936 626 965 q 613 881 626 906 q 572 857 600 857 l 260 857 l 243 628 l 350 628 z "},"6":{"ha":763,"x_min":64,"x_max":715,"o":"m 428 617 q 539 603 486 617 q 631 556 592 589 q 692 467 669 522 q 715 329 715 411 l 715 310 q 690 162 715 222 q 622 64 665 101 q 518 9 578 26 q 390 -8 458 -8 q 262 9 321 -8 q 158 64 203 26 q 89 162 114 101 q 64 310 64 222 l 64 697 q 90 845 64 785 q 160 943 115 906 q 267 998 206 981 q 399 1015 328 1015 q 542 992 482 1015 q 640 932 601 968 q 697 850 679 896 q 715 761 715 804 q 694 702 715 718 q 631 686 674 686 q 565 700 593 686 q 536 754 536 714 q 525 798 536 779 q 494 830 514 817 q 449 850 475 843 q 394 857 424 857 q 283 819 324 857 q 243 697 243 781 l 243 546 q 326 601 278 586 q 428 617 374 617 m 243 299 q 282 177 243 215 q 390 139 321 139 q 497 177 458 139 q 535 299 535 215 l 535 317 q 497 440 535 404 q 389 475 458 475 q 283 442 322 475 q 243 329 243 408 l 243 299 z "},"7":{"ha":692,"x_min":24,"x_max":675,"o":"m 675 800 q 664 749 675 778 q 640 694 653 719 l 289 19 q 238 -7 275 -7 q 159 19 194 -7 q 124 83 124 44 q 132 115 124 101 l 494 765 l 494 857 l 204 857 l 204 744 q 176 703 204 719 q 113 686 149 686 q 50 703 76 686 q 24 744 24 719 l 24 958 q 48 997 24 979 q 103 1015 72 1015 l 596 1015 q 623 1010 608 1015 q 649 997 638 1006 q 667 978 660 989 q 675 958 675 968 l 675 800 z "},"8":{"ha":740,"x_min":44,"x_max":696,"o":"m 371 1015 q 488 1001 435 1015 q 581 958 542 988 q 642 883 619 929 q 664 769 664 836 q 627 629 664 682 q 531 556 590 576 q 651 465 606 528 q 696 294 696 403 l 696 278 q 671 146 696 200 q 602 57 646 92 q 499 7 558 22 q 371 -8 439 -8 q 242 7 301 -8 q 139 57 183 22 q 69 146 94 92 q 44 278 44 200 l 44 294 q 90 465 44 403 q 210 556 135 528 q 113 629 150 576 q 76 769 76 682 q 99 883 76 836 q 160 958 121 929 q 253 1001 199 988 q 371 1015 307 1015 m 515 326 q 477 442 515 406 q 371 479 439 479 q 263 442 301 479 q 225 326 225 406 l 225 299 q 264 177 225 215 q 371 139 303 139 q 478 178 440 139 q 515 299 515 217 l 515 326 m 371 868 q 282 840 313 868 q 251 747 251 813 q 282 654 251 682 q 371 626 313 626 q 459 654 428 626 q 490 747 490 682 q 459 840 490 813 q 371 868 428 868 z "},"9":{"ha":764,"x_min":47,"x_max":700,"o":"m 335 390 q 224 404 276 390 q 132 451 171 418 q 70 540 93 485 q 47 678 47 596 l 47 697 q 72 845 47 785 q 141 943 97 906 q 244 998 185 981 q 372 1015 304 1015 q 501 998 440 1015 q 605 943 561 981 q 674 845 649 906 q 700 697 700 785 l 700 310 q 674 162 700 222 q 603 64 649 101 q 496 9 557 26 q 364 -8 435 -8 q 221 15 281 -8 q 123 75 161 39 q 66 156 85 111 q 47 246 47 201 q 68 305 47 289 q 132 321 89 321 q 198 307 169 321 q 226 253 226 293 q 269 177 226 204 q 369 150 311 150 q 480 188 440 150 q 519 310 519 226 l 519 461 q 437 406 485 421 q 335 390 389 390 m 519 708 q 481 830 519 792 q 372 868 442 868 q 266 830 304 868 q 228 708 228 792 l 228 690 q 266 567 228 603 q 374 532 304 532 q 480 565 440 532 q 519 678 519 599 l 519 708 z "},"A":{"ha":799,"x_min":13,"x_max":786,"o":"m 126 0 q 88 6 108 0 q 51 21 68 11 q 24 44 35 31 q 13 75 13 58 q 15 89 13 78 l 283 963 q 326 1009 293 994 q 399 1024 360 1024 q 472 1009 439 1024 q 515 963 506 994 l 783 89 q 786 75 786 78 q 775 45 786 58 q 747 22 764 32 q 710 6 731 11 q 672 0 690 0 q 633 8 649 0 q 611 36 617 17 l 558 221 l 240 221 l 188 36 q 166 8 182 17 q 126 0 150 0 m 519 363 l 399 789 l 278 363 l 519 363 z "},"Æ":{"ha":1093,"x_min":79,"x_max":1071,"o":"m 697 579 l 863 579 q 905 557 890 579 q 919 507 919 535 q 906 460 919 483 q 863 438 892 438 l 697 438 l 697 158 l 1014 158 q 1056 134 1042 158 q 1071 78 1071 110 q 1058 25 1071 50 q 1014 0 1044 0 l 596 0 q 541 15 565 0 q 517 57 517 29 l 517 438 l 250 438 l 250 64 q 247 38 250 50 q 235 18 244 26 q 207 5 225 10 q 160 0 189 0 q 97 18 115 0 q 79 64 79 36 l 79 697 q 104 845 79 785 q 172 943 129 906 q 272 998 214 981 q 396 1015 329 1015 l 1014 1015 q 1058 990 1044 1015 q 1071 938 1071 965 q 1056 881 1071 906 q 1014 857 1042 857 l 697 857 l 697 579 m 250 579 l 517 579 l 517 857 l 396 857 q 288 818 326 857 q 250 697 250 779 l 250 579 z "},"Ǽ":{"ha":1093,"x_min":79,"x_max":1071,"o":"m 581 1128 q 571 1124 575 1125 q 561 1122 567 1122 q 522 1144 538 1122 q 506 1190 506 1167 q 529 1233 506 1221 l 713 1322 q 722 1324 718 1324 q 731 1325 726 1325 q 770 1303 754 1325 q 786 1257 786 1281 q 781 1233 786 1244 q 761 1215 775 1222 l 581 1128 m 697 579 l 863 579 q 905 557 890 579 q 919 507 919 535 q 906 460 919 483 q 863 438 892 438 l 697 438 l 697 158 l 1014 158 q 1056 134 1042 158 q 1071 78 1071 110 q 1058 25 1071 50 q 1014 0 1044 0 l 596 0 q 541 15 565 0 q 517 57 517 29 l 517 438 l 250 438 l 250 64 q 247 38 250 50 q 235 18 244 26 q 207 5 225 10 q 160 0 189 0 q 97 18 115 0 q 79 64 79 36 l 79 697 q 104 845 79 785 q 172 943 129 906 q 272 998 214 981 q 396 1015 329 1015 l 1014 1015 q 1058 990 1044 1015 q 1071 938 1071 965 q 1056 881 1071 906 q 1014 857 1042 857 l 697 857 l 697 579 m 250 579 l 517 579 l 517 857 l 396 857 q 288 818 326 857 q 250 697 250 779 l 250 579 z "},"Á":{"ha":799,"x_min":13,"x_max":786,"o":"m 126 0 q 88 6 108 0 q 51 21 68 11 q 24 44 35 31 q 13 75 13 58 q 15 89 13 78 l 283 963 q 326 1009 293 994 q 399 1024 360 1024 q 472 1009 439 1024 q 515 963 506 994 l 783 89 q 786 75 786 78 q 775 45 786 58 q 747 22 764 32 q 710 6 731 11 q 672 0 690 0 q 633 8 649 0 q 611 36 617 17 l 558 221 l 240 221 l 188 36 q 166 8 182 17 q 126 0 150 0 m 519 363 l 399 789 l 278 363 l 519 363 m 374 1132 q 364 1128 368 1129 q 354 1126 360 1126 q 315 1149 331 1126 q 299 1194 299 1171 q 322 1238 299 1225 l 506 1326 q 515 1328 511 1328 q 524 1329 519 1329 q 563 1307 547 1329 q 579 1261 579 1285 q 574 1238 579 1249 q 554 1219 568 1226 l 374 1132 z "},"Ă":{"ha":799,"x_min":13,"x_max":786,"o":"m 126 0 q 88 6 108 0 q 51 21 68 11 q 24 44 35 31 q 13 75 13 58 q 15 89 13 78 l 283 963 q 326 1009 293 994 q 399 1024 360 1024 q 472 1009 439 1024 q 515 963 506 994 l 783 89 q 786 75 786 78 q 775 45 786 58 q 747 22 764 32 q 710 6 731 11 q 672 0 690 0 q 633 8 649 0 q 611 36 617 17 l 558 221 l 240 221 l 188 36 q 166 8 182 17 q 126 0 150 0 m 519 363 l 399 789 l 278 363 l 519 363 m 583 1339 q 568 1268 583 1301 q 526 1210 553 1235 q 467 1169 500 1185 q 399 1154 433 1154 q 329 1169 363 1154 q 270 1210 296 1185 q 229 1268 244 1235 q 214 1339 214 1301 l 311 1339 q 338 1264 311 1293 q 399 1235 365 1235 q 458 1264 431 1235 q 486 1339 486 1293 l 583 1339 z "},"Â":{"ha":799,"x_min":13,"x_max":786,"o":"m 126 0 q 88 6 108 0 q 51 21 68 11 q 24 44 35 31 q 13 75 13 58 q 15 89 13 78 l 283 963 q 326 1009 293 994 q 399 1024 360 1024 q 472 1009 439 1024 q 515 963 506 994 l 783 89 q 786 75 786 78 q 775 45 786 58 q 747 22 764 32 q 710 6 731 11 q 672 0 690 0 q 633 8 649 0 q 611 36 617 17 l 558 221 l 240 221 l 188 36 q 166 8 182 17 q 126 0 150 0 m 519 363 l 399 789 l 278 363 l 519 363 m 254 1142 q 239 1138 246 1138 q 211 1154 222 1138 q 200 1193 200 1171 q 207 1222 200 1208 q 231 1244 214 1236 l 375 1322 q 399 1329 386 1329 q 422 1322 408 1329 l 567 1246 q 589 1222 582 1236 q 596 1192 596 1207 q 585 1154 596 1171 q 557 1138 574 1138 q 543 1142 549 1138 l 399 1219 l 254 1142 z "},"Ä":{"ha":799,"x_min":13,"x_max":786,"o":"m 126 0 q 88 6 108 0 q 51 21 68 11 q 24 44 35 31 q 13 75 13 58 q 15 89 13 78 l 283 963 q 326 1009 293 994 q 399 1024 360 1024 q 472 1009 439 1024 q 515 963 506 994 l 783 89 q 786 75 786 78 q 775 45 786 58 q 747 22 764 32 q 710 6 731 11 q 672 0 690 0 q 633 8 649 0 q 611 36 617 17 l 558 221 l 240 221 l 188 36 q 166 8 182 17 q 126 0 150 0 m 519 363 l 399 789 l 278 363 l 519 363 m 297 1285 q 347 1263 326 1285 q 367 1213 367 1242 q 347 1161 367 1183 q 297 1139 326 1139 q 247 1161 268 1139 q 226 1213 226 1183 q 247 1263 226 1242 q 297 1285 268 1285 m 506 1285 q 554 1263 533 1285 q 575 1213 575 1242 q 554 1161 575 1183 q 506 1139 533 1139 q 454 1161 475 1139 q 433 1213 433 1183 q 454 1263 433 1242 q 506 1285 475 1285 z "},"À":{"ha":799,"x_min":13,"x_max":786,"o":"m 126 0 q 88 6 108 0 q 51 21 68 11 q 24 44 35 31 q 13 75 13 58 q 15 89 13 78 l 283 963 q 326 1009 293 994 q 399 1024 360 1024 q 472 1009 439 1024 q 515 963 506 994 l 783 89 q 786 75 786 78 q 775 45 786 58 q 747 22 764 32 q 710 6 731 11 q 672 0 690 0 q 633 8 649 0 q 611 36 617 17 l 558 221 l 240 221 l 188 36 q 166 8 182 17 q 126 0 150 0 m 519 363 l 399 789 l 278 363 l 519 363 m 264 1219 q 244 1238 250 1226 q 239 1261 239 1249 q 255 1307 239 1285 q 294 1329 271 1329 q 303 1328 299 1329 q 313 1326 307 1328 l 496 1238 q 519 1194 519 1225 q 503 1149 519 1171 q 464 1126 488 1126 q 454 1128 458 1126 q 444 1132 450 1129 l 264 1219 z "},"Ā":{"ha":799,"x_min":13,"x_max":786,"o":"m 126 0 q 88 6 108 0 q 51 21 68 11 q 24 44 35 31 q 13 75 13 58 q 15 89 13 78 l 283 963 q 326 1009 293 994 q 399 1024 360 1024 q 472 1009 439 1024 q 515 963 506 994 l 783 89 q 786 75 786 78 q 775 45 786 58 q 747 22 764 32 q 710 6 731 11 q 672 0 690 0 q 633 8 649 0 q 611 36 617 17 l 558 221 l 240 221 l 188 36 q 166 8 182 17 q 126 0 150 0 m 519 363 l 399 789 l 278 363 l 519 363 m 200 1243 q 215 1285 200 1268 q 256 1303 231 1303 l 540 1303 q 580 1285 563 1303 q 597 1243 597 1268 q 580 1201 597 1217 q 540 1185 563 1185 l 256 1185 q 215 1201 231 1185 q 200 1243 200 1217 z "},"Ą":{"ha":799,"x_min":13,"x_max":786,"o":"m 697 -219 q 722 -233 715 -219 q 729 -260 729 -246 q 722 -285 729 -275 q 689 -296 714 -296 q 567 -261 608 -296 q 526 -171 526 -226 q 552 -73 526 -122 q 625 13 578 -24 q 611 36 615 19 l 558 221 l 240 221 l 188 36 q 166 8 182 17 q 126 0 150 0 q 88 6 108 0 q 51 21 68 11 q 24 44 35 31 q 13 75 13 58 q 15 89 13 78 l 283 963 q 326 1009 293 994 q 399 1024 360 1024 q 472 1009 439 1024 q 515 963 506 994 l 783 89 q 786 75 786 78 q 767 36 786 53 q 722 10 747 19 q 645 -65 676 -19 q 614 -154 614 -110 q 633 -202 614 -185 q 697 -219 653 -219 m 519 363 l 399 789 l 278 363 l 519 363 z "},"Å":{"ha":799,"x_min":13,"x_max":786,"o":"m 126 0 q 88 6 108 0 q 51 21 68 11 q 24 44 35 31 q 13 75 13 58 q 15 89 13 78 l 283 963 q 326 1009 293 994 q 399 1024 360 1024 q 472 1009 439 1024 q 515 963 506 994 l 783 89 q 786 75 786 78 q 775 45 786 58 q 747 22 764 32 q 710 6 731 11 q 672 0 690 0 q 633 8 649 0 q 611 36 617 17 l 558 221 l 240 221 l 188 36 q 166 8 182 17 q 126 0 150 0 m 519 363 l 399 789 l 278 363 l 519 363 m 397 1406 q 450 1394 425 1406 q 494 1364 475 1383 q 524 1319 513 1344 q 535 1268 535 1294 q 524 1215 535 1240 q 493 1171 513 1190 q 449 1140 474 1151 q 397 1128 424 1128 q 345 1140 369 1128 q 303 1171 321 1151 q 274 1215 285 1190 q 263 1268 263 1240 q 273 1319 263 1294 q 301 1363 283 1344 q 344 1394 319 1382 q 397 1406 369 1406 m 460 1267 q 442 1310 460 1290 q 399 1329 425 1329 q 352 1310 371 1329 q 333 1267 333 1290 q 352 1222 333 1243 q 399 1200 371 1200 q 442 1221 425 1200 q 460 1267 460 1242 z "},"Ã":{"ha":799,"x_min":13,"x_max":786,"o":"m 126 0 q 88 6 108 0 q 51 21 68 11 q 24 44 35 31 q 13 75 13 58 q 15 89 13 78 l 283 963 q 326 1009 293 994 q 399 1024 360 1024 q 472 1009 439 1024 q 515 963 506 994 l 783 89 q 786 75 786 78 q 775 45 786 58 q 747 22 764 32 q 710 6 731 11 q 672 0 690 0 q 633 8 649 0 q 611 36 617 17 l 558 221 l 240 221 l 188 36 q 166 8 182 17 q 126 0 150 0 m 519 363 l 399 789 l 278 363 l 519 363 m 321 1194 q 283 1189 299 1194 q 253 1177 267 1183 q 229 1166 240 1171 q 207 1161 218 1161 q 184 1168 193 1161 q 170 1185 175 1175 q 163 1204 165 1194 q 161 1219 161 1214 q 175 1270 161 1251 q 208 1299 189 1289 q 248 1311 228 1308 q 281 1314 268 1314 q 335 1308 311 1314 q 381 1294 358 1301 q 427 1280 404 1286 q 478 1274 450 1274 q 517 1278 500 1274 q 546 1290 533 1283 q 569 1301 558 1296 q 590 1307 579 1307 q 613 1300 604 1307 q 626 1283 621 1293 q 634 1264 632 1274 q 636 1249 636 1254 q 622 1198 636 1217 q 589 1169 608 1179 q 549 1157 569 1160 q 518 1154 529 1154 q 458 1160 483 1154 q 411 1174 433 1167 q 368 1188 389 1182 q 321 1194 347 1194 z "},"B":{"ha":781,"x_min":83,"x_max":735,"o":"m 83 958 q 108 1001 83 986 q 163 1015 132 1015 l 431 1015 q 535 1005 485 1015 q 624 967 586 994 q 686 892 663 940 q 710 771 710 844 q 678 629 710 685 q 592 550 647 574 q 650 520 624 538 q 695 476 676 503 q 724 413 714 450 q 735 324 735 375 l 735 294 q 713 157 735 213 q 654 66 692 101 q 566 15 617 31 q 457 0 515 0 l 163 0 q 105 17 126 0 q 83 56 83 33 l 83 958 m 419 158 q 519 194 483 158 q 554 310 554 231 l 554 332 q 519 447 554 414 q 419 479 483 479 l 263 479 l 263 158 l 419 158 m 263 621 l 418 621 q 502 654 475 621 q 529 740 529 688 q 499 826 529 794 q 417 857 469 857 l 263 857 l 263 621 z "},"C":{"ha":764,"x_min":74,"x_max":725,"o":"m 544 719 q 539 759 543 736 q 520 804 535 782 q 478 842 506 826 q 400 857 450 857 q 292 818 329 857 q 254 697 254 779 l 254 310 q 292 189 254 228 q 403 150 331 150 q 478 165 450 150 q 519 203 506 181 q 538 251 533 225 q 544 299 543 276 q 572 343 547 331 q 633 356 597 356 q 703 338 681 356 q 725 267 725 319 q 701 153 725 204 q 632 66 676 101 q 526 11 588 31 q 393 -8 465 -8 q 269 9 328 -8 q 167 64 211 26 q 99 162 124 101 q 74 310 74 222 l 74 697 q 99 845 74 785 q 169 943 125 906 q 271 998 213 981 q 394 1015 329 1015 q 528 997 467 1015 q 633 944 589 978 q 701 860 676 910 q 725 751 725 811 q 703 680 725 697 q 635 663 681 663 q 571 675 596 663 q 544 719 546 688 z "},"\r":{"ha":0,"x_min":0,"x_max":0,"o":""},"Ć":{"ha":764,"x_min":74,"x_max":725,"o":"m 360 1132 q 350 1128 354 1129 q 340 1126 346 1126 q 301 1149 317 1126 q 285 1194 285 1171 q 308 1238 285 1225 l 492 1326 q 501 1328 497 1328 q 510 1329 506 1329 q 549 1307 533 1329 q 565 1261 565 1285 q 560 1238 565 1249 q 540 1219 554 1226 l 360 1132 m 544 719 q 539 759 543 736 q 520 804 535 782 q 478 842 506 826 q 400 857 450 857 q 292 818 329 857 q 254 697 254 779 l 254 310 q 292 189 254 228 q 403 150 331 150 q 478 165 450 150 q 519 203 506 181 q 538 251 533 225 q 544 299 543 276 q 572 343 547 331 q 633 356 597 356 q 703 338 681 356 q 725 267 725 319 q 701 153 725 204 q 632 66 676 101 q 526 11 588 31 q 393 -8 465 -8 q 269 9 328 -8 q 167 64 211 26 q 99 162 124 101 q 74 310 74 222 l 74 697 q 99 845 74 785 q 169 943 125 906 q 271 998 213 981 q 394 1015 329 1015 q 528 997 467 1015 q 633 944 589 978 q 701 860 676 910 q 725 751 725 811 q 703 680 725 697 q 635 663 681 663 q 571 675 596 663 q 544 719 546 688 z "},"Č":{"ha":764,"x_min":74,"x_max":725,"o":"m 397 1257 l 539 1349 q 556 1354 549 1354 q 584 1337 574 1354 q 594 1300 594 1319 q 565 1247 594 1265 l 422 1156 q 397 1147 407 1147 q 372 1156 385 1147 l 229 1247 q 199 1300 199 1265 q 210 1337 199 1319 q 238 1354 221 1354 q 254 1349 247 1354 l 397 1257 m 544 719 q 539 759 543 736 q 520 804 535 782 q 478 842 506 826 q 400 857 450 857 q 292 818 329 857 q 254 697 254 779 l 254 310 q 292 189 254 228 q 403 150 331 150 q 478 165 450 150 q 519 203 506 181 q 538 251 533 225 q 544 299 543 276 q 572 343 547 331 q 633 356 597 356 q 703 338 681 356 q 725 267 725 319 q 701 153 725 204 q 632 66 676 101 q 526 11 588 31 q 393 -8 465 -8 q 269 9 328 -8 q 167 64 211 26 q 99 162 124 101 q 74 310 74 222 l 74 697 q 99 845 74 785 q 169 943 125 906 q 271 998 213 981 q 394 1015 329 1015 q 528 997 467 1015 q 633 944 589 978 q 701 860 676 910 q 725 751 725 811 q 703 680 725 697 q 635 663 681 663 q 571 675 596 663 q 544 719 546 688 z "},"Ç":{"ha":764,"x_min":74,"x_max":725,"o":"m 544 719 q 539 759 543 736 q 520 804 535 782 q 478 842 506 826 q 400 857 450 857 q 292 818 329 857 q 254 697 254 779 l 254 310 q 292 189 254 228 q 403 150 331 150 q 478 165 450 150 q 519 203 506 181 q 538 251 533 225 q 544 299 543 276 q 572 343 547 331 q 633 356 597 356 q 703 338 681 356 q 725 267 725 319 q 705 163 725 210 q 647 80 685 115 q 558 22 610 44 q 444 -6 507 0 l 424 -71 q 528 -105 494 -74 q 561 -178 561 -136 q 554 -217 561 -196 q 530 -257 547 -239 q 485 -287 513 -275 q 415 -300 457 -300 q 376 -298 397 -300 q 338 -290 356 -296 q 309 -278 321 -285 q 297 -260 297 -271 q 299 -247 297 -256 q 305 -230 301 -239 q 315 -215 308 -221 q 329 -208 321 -208 q 358 -218 340 -208 q 410 -228 375 -228 q 475 -182 475 -228 q 408 -131 475 -137 l 332 -124 l 365 -7 q 251 15 304 -4 q 159 72 199 35 q 97 169 119 110 q 74 310 74 228 l 74 697 q 99 845 74 785 q 169 943 125 906 q 271 998 213 981 q 394 1015 329 1015 q 528 997 467 1015 q 633 944 589 978 q 701 860 676 910 q 725 751 725 811 q 703 680 725 697 q 635 663 681 663 q 571 675 596 663 q 544 719 546 688 z "},"Ĉ":{"ha":764,"x_min":74,"x_max":725,"o":"m 254 1142 q 239 1138 246 1138 q 211 1154 222 1138 q 200 1193 200 1171 q 207 1222 200 1208 q 231 1244 214 1236 l 375 1322 q 399 1329 386 1329 q 422 1322 408 1329 l 567 1246 q 589 1222 582 1236 q 596 1192 596 1207 q 585 1154 596 1171 q 557 1138 574 1138 q 543 1142 549 1138 l 399 1219 l 254 1142 m 544 719 q 539 759 543 736 q 520 804 535 782 q 478 842 506 826 q 400 857 450 857 q 292 818 329 857 q 254 697 254 779 l 254 310 q 292 189 254 228 q 403 150 331 150 q 478 165 450 150 q 519 203 506 181 q 538 251 533 225 q 544 299 543 276 q 572 343 547 331 q 633 356 597 356 q 703 338 681 356 q 725 267 725 319 q 701 153 725 204 q 632 66 676 101 q 526 11 588 31 q 393 -8 465 -8 q 269 9 328 -8 q 167 64 211 26 q 99 162 124 101 q 74 310 74 222 l 74 697 q 99 845 74 785 q 169 943 125 906 q 271 998 213 981 q 394 1015 329 1015 q 528 997 467 1015 q 633 944 589 978 q 701 860 676 910 q 725 751 725 811 q 703 680 725 697 q 635 663 681 663 q 571 675 596 663 q 544 719 546 688 z "},"Ċ":{"ha":764,"x_min":74,"x_max":725,"o":"m 544 719 q 539 759 543 736 q 520 804 535 782 q 478 842 506 826 q 400 857 450 857 q 292 818 329 857 q 254 697 254 779 l 254 310 q 292 189 254 228 q 403 150 331 150 q 478 165 450 150 q 519 203 506 181 q 538 251 533 225 q 544 299 543 276 q 572 343 547 331 q 633 356 597 356 q 703 338 681 356 q 725 267 725 319 q 701 153 725 204 q 632 66 676 101 q 526 11 588 31 q 393 -8 465 -8 q 269 9 328 -8 q 167 64 211 26 q 99 162 124 101 q 74 310 74 222 l 74 697 q 99 845 74 785 q 169 943 125 906 q 271 998 213 981 q 394 1015 329 1015 q 528 997 467 1015 q 633 944 589 978 q 701 860 676 910 q 725 751 725 811 q 703 680 725 697 q 635 663 681 663 q 571 675 596 663 q 544 719 546 688 m 401 1285 q 451 1263 431 1285 q 471 1213 471 1242 q 451 1161 471 1183 q 401 1139 431 1139 q 351 1161 372 1139 q 331 1213 331 1183 q 351 1263 331 1242 q 401 1285 372 1285 z "},"D":{"ha":806,"x_min":83,"x_max":735,"o":"m 408 1015 q 536 998 476 1015 q 640 943 596 981 q 710 845 685 906 q 735 697 735 785 l 735 318 q 710 170 735 231 q 640 72 685 110 q 536 17 596 35 q 408 0 476 0 l 163 0 q 105 17 126 0 q 83 56 83 33 l 83 960 q 105 999 83 982 q 163 1015 126 1015 l 408 1015 m 264 857 l 264 158 l 408 158 q 516 197 478 158 q 554 318 554 236 l 554 697 q 516 818 554 779 q 408 857 478 857 l 264 857 z "},"Ď":{"ha":806,"x_min":83,"x_max":735,"o":"m 382 1257 l 524 1349 q 540 1354 533 1354 q 569 1337 558 1354 q 579 1300 579 1319 q 550 1247 579 1265 l 407 1156 q 382 1147 392 1147 q 357 1156 369 1147 l 214 1247 q 183 1300 183 1265 q 194 1337 183 1319 q 222 1354 206 1354 q 239 1349 232 1354 l 382 1257 m 408 1015 q 536 998 476 1015 q 640 943 596 981 q 710 845 685 906 q 735 697 735 785 l 735 318 q 710 170 735 231 q 640 72 685 110 q 536 17 596 35 q 408 0 476 0 l 163 0 q 105 17 126 0 q 83 56 83 33 l 83 960 q 105 999 83 982 q 163 1015 126 1015 l 408 1015 m 264 857 l 264 158 l 408 158 q 516 197 478 158 q 554 318 554 236 l 554 697 q 516 818 554 779 q 408 857 478 857 l 264 857 z "},"Đ":{"ha":815,"x_min":-10,"x_max":744,"o":"m 418 1015 q 546 998 486 1015 q 650 943 606 981 q 719 845 694 906 q 744 697 744 785 l 744 318 q 719 170 744 231 q 650 72 694 110 q 546 17 606 35 q 418 0 486 0 l 172 0 q 115 17 136 0 q 93 56 93 33 l 93 467 l 36 467 q 2 486 14 467 q -10 531 -10 506 q 2 576 -10 556 q 36 596 14 596 l 93 596 l 93 960 q 115 999 93 982 q 172 1015 136 1015 l 418 1015 m 274 857 l 274 596 l 381 596 q 416 576 404 596 q 428 531 428 556 q 416 486 428 506 q 381 467 404 467 l 274 467 l 274 158 l 418 158 q 526 197 488 158 q 564 318 564 236 l 564 697 q 526 818 564 779 q 418 857 488 857 l 274 857 z "},"∆":{"ha":821,"x_min":29,"x_max":792,"o":"m 785 103 q 792 63 792 85 q 774 17 792 35 q 715 0 756 0 l 106 0 q 47 17 65 0 q 29 63 29 35 q 36 103 29 85 l 293 957 q 333 1006 303 988 q 411 1024 363 1024 q 488 1006 458 1024 q 528 957 518 988 l 785 103 m 585 158 l 411 800 l 236 158 l 585 158 z "},"E":{"ha":736,"x_min":83,"x_max":714,"o":"m 264 579 l 475 579 q 517 557 503 579 q 532 507 532 535 q 518 460 532 483 q 475 438 504 438 l 264 438 l 264 158 l 657 158 q 699 134 685 158 q 714 78 714 110 q 700 25 714 50 q 657 0 686 0 l 163 0 q 108 15 132 0 q 83 57 83 29 l 83 958 q 108 1001 83 986 q 163 1015 132 1015 l 657 1015 q 700 990 686 1015 q 714 938 714 965 q 699 881 714 906 q 657 857 685 857 l 264 857 l 264 579 z "},"É":{"ha":735,"x_min":83,"x_max":714,"o":"m 360 1132 q 350 1128 354 1129 q 340 1126 346 1126 q 301 1149 317 1126 q 285 1194 285 1171 q 308 1238 285 1225 l 492 1326 q 501 1328 497 1328 q 510 1329 506 1329 q 549 1307 533 1329 q 565 1261 565 1285 q 560 1238 565 1249 q 540 1219 554 1226 l 360 1132 m 264 579 l 475 579 q 517 557 503 579 q 532 507 532 535 q 518 460 532 483 q 475 438 504 438 l 264 438 l 264 158 l 657 158 q 699 134 685 158 q 714 78 714 110 q 700 25 714 50 q 657 0 686 0 l 163 0 q 108 15 132 0 q 83 57 83 29 l 83 958 q 108 1001 83 986 q 163 1015 132 1015 l 657 1015 q 700 990 686 1015 q 714 938 714 965 q 699 881 714 906 q 657 857 685 857 l 264 857 l 264 579 z "},"Ĕ":{"ha":736,"x_min":83,"x_max":714,"o":"m 264 579 l 475 579 q 517 557 503 579 q 532 507 532 535 q 518 460 532 483 q 475 438 504 438 l 264 438 l 264 158 l 657 158 q 699 134 685 158 q 714 78 714 110 q 700 25 714 50 q 657 0 686 0 l 163 0 q 108 15 132 0 q 83 57 83 29 l 83 958 q 108 1001 83 986 q 163 1015 132 1015 l 657 1015 q 700 990 686 1015 q 714 938 714 965 q 699 881 714 906 q 657 857 685 857 l 264 857 l 264 579 m 582 1339 q 567 1268 582 1301 q 525 1210 551 1235 q 465 1169 499 1185 q 397 1154 432 1154 q 328 1169 361 1154 q 269 1210 294 1185 q 228 1268 243 1235 q 213 1339 213 1301 l 310 1339 q 337 1264 310 1293 q 397 1235 364 1235 q 457 1264 429 1235 q 485 1339 485 1293 l 582 1339 z "},"Ě":{"ha":736,"x_min":83,"x_max":714,"o":"m 397 1257 l 539 1349 q 556 1354 549 1354 q 584 1337 574 1354 q 594 1300 594 1319 q 565 1247 594 1265 l 422 1156 q 397 1147 407 1147 q 372 1156 385 1147 l 229 1247 q 199 1300 199 1265 q 210 1337 199 1319 q 238 1354 221 1354 q 254 1349 247 1354 l 397 1257 m 264 579 l 475 579 q 517 557 503 579 q 532 507 532 535 q 518 460 532 483 q 475 438 504 438 l 264 438 l 264 158 l 657 158 q 699 134 685 158 q 714 78 714 110 q 700 25 714 50 q 657 0 686 0 l 163 0 q 108 15 132 0 q 83 57 83 29 l 83 958 q 108 1001 83 986 q 163 1015 132 1015 l 657 1015 q 700 990 686 1015 q 714 938 714 965 q 699 881 714 906 q 657 857 685 857 l 264 857 l 264 579 z "},"Ê":{"ha":736,"x_min":83,"x_max":714,"o":"m 265 1142 q 250 1138 257 1138 q 222 1154 233 1138 q 211 1193 211 1171 q 218 1222 211 1208 q 242 1244 225 1236 l 386 1322 q 410 1329 397 1329 q 433 1322 419 1329 l 578 1246 q 600 1222 593 1236 q 607 1192 607 1207 q 596 1154 607 1171 q 568 1138 585 1138 q 554 1142 560 1138 l 410 1219 l 265 1142 m 264 579 l 475 579 q 517 557 503 579 q 532 507 532 535 q 518 460 532 483 q 475 438 504 438 l 264 438 l 264 158 l 657 158 q 699 134 685 158 q 714 78 714 110 q 700 25 714 50 q 657 0 686 0 l 163 0 q 108 15 132 0 q 83 57 83 29 l 83 958 q 108 1001 83 986 q 163 1015 132 1015 l 657 1015 q 700 990 686 1015 q 714 938 714 965 q 699 881 714 906 q 657 857 685 857 l 264 857 l 264 579 z "},"Ë":{"ha":736,"x_min":83,"x_max":714,"o":"m 299 1285 q 348 1263 328 1285 q 368 1213 368 1242 q 348 1161 368 1183 q 299 1139 328 1139 q 249 1161 269 1139 q 228 1213 228 1183 q 249 1263 228 1242 q 299 1285 269 1285 m 507 1285 q 556 1263 535 1285 q 576 1213 576 1242 q 556 1161 576 1183 q 507 1139 535 1139 q 456 1161 476 1139 q 435 1213 435 1183 q 456 1263 435 1242 q 507 1285 476 1285 m 264 579 l 475 579 q 517 557 503 579 q 532 507 532 535 q 518 460 532 483 q 475 438 504 438 l 264 438 l 264 158 l 657 158 q 699 134 685 158 q 714 78 714 110 q 700 25 714 50 q 657 0 686 0 l 163 0 q 108 15 132 0 q 83 57 83 29 l 83 958 q 108 1001 83 986 q 163 1015 132 1015 l 657 1015 q 700 990 686 1015 q 714 938 714 965 q 699 881 714 906 q 657 857 685 857 l 264 857 l 264 579 z "},"Ė":{"ha":736,"x_min":83,"x_max":714,"o":"m 264 579 l 475 579 q 517 557 503 579 q 532 507 532 535 q 518 460 532 483 q 475 438 504 438 l 264 438 l 264 158 l 657 158 q 699 134 685 158 q 714 78 714 110 q 700 25 714 50 q 657 0 686 0 l 163 0 q 108 15 132 0 q 83 57 83 29 l 83 958 q 108 1001 83 986 q 163 1015 132 1015 l 657 1015 q 700 990 686 1015 q 714 938 714 965 q 699 881 714 906 q 657 857 685 857 l 264 857 l 264 579 m 414 1285 q 463 1263 443 1285 q 483 1213 483 1242 q 463 1161 483 1183 q 414 1139 443 1139 q 364 1161 385 1139 q 343 1213 343 1183 q 364 1263 343 1242 q 414 1285 385 1285 z "},"È":{"ha":735,"x_min":83,"x_max":714,"o":"m 264 579 l 475 579 q 517 557 503 579 q 532 507 532 535 q 518 460 532 483 q 475 438 504 438 l 264 438 l 264 158 l 657 158 q 699 134 685 158 q 714 78 714 110 q 700 25 714 50 q 657 0 686 0 l 163 0 q 108 15 132 0 q 83 57 83 29 l 83 958 q 108 1001 83 986 q 163 1015 132 1015 l 657 1015 q 700 990 686 1015 q 714 938 714 965 q 699 881 714 906 q 657 857 685 857 l 264 857 l 264 579 m 276 1219 q 257 1238 263 1226 q 251 1261 251 1249 q 267 1307 251 1285 q 307 1329 283 1329 q 315 1328 311 1329 q 325 1326 319 1328 l 508 1238 q 532 1194 532 1225 q 516 1149 532 1171 q 476 1126 500 1126 q 467 1128 471 1126 q 457 1132 463 1129 l 276 1219 z "},"Ē":{"ha":736,"x_min":83,"x_max":714,"o":"m 264 579 l 475 579 q 517 557 503 579 q 532 507 532 535 q 518 460 532 483 q 475 438 504 438 l 264 438 l 264 158 l 657 158 q 699 134 685 158 q 714 78 714 110 q 700 25 714 50 q 657 0 686 0 l 163 0 q 108 15 132 0 q 83 57 83 29 l 83 958 q 108 1001 83 986 q 163 1015 132 1015 l 657 1015 q 700 990 686 1015 q 714 938 714 965 q 699 881 714 906 q 657 857 685 857 l 264 857 l 264 579 m 204 1243 q 219 1285 204 1268 q 260 1303 235 1303 l 544 1303 q 584 1285 567 1303 q 601 1243 601 1268 q 584 1201 601 1217 q 544 1185 567 1185 l 260 1185 q 219 1201 235 1185 q 204 1243 204 1217 z "},"Ŋ":{"ha":842,"x_min":83,"x_max":757,"o":"m 522 -156 q 567 -124 558 -156 q 576 -44 576 -93 l 576 8 q 573 33 576 22 q 563 57 569 43 l 264 615 l 264 57 q 235 15 264 29 q 174 0 207 0 q 111 15 139 0 q 83 57 83 29 l 83 958 q 111 1001 83 988 q 174 1015 139 1015 q 217 1012 199 1015 q 249 998 235 1008 q 278 969 264 988 q 308 919 292 950 l 576 401 l 576 960 q 604 1002 576 989 q 667 1015 632 1015 q 728 1002 700 1015 q 757 960 757 989 l 757 -44 q 744 -151 757 -103 q 704 -233 731 -199 q 638 -287 678 -268 q 547 -307 599 -307 q 501 -301 519 -307 q 473 -284 483 -294 q 458 -260 463 -274 q 454 -233 454 -247 q 474 -176 454 -197 q 522 -156 494 -156 z "},"Ę":{"ha":736,"x_min":83,"x_max":714,"o":"m 264 579 l 475 579 q 517 557 503 579 q 532 507 532 535 q 518 460 532 483 q 475 438 504 438 l 264 438 l 264 158 l 657 158 q 699 134 685 158 q 714 78 714 110 q 705 33 714 54 q 676 4 696 13 q 606 -69 633 -25 q 578 -154 578 -112 q 597 -202 578 -185 q 661 -219 617 -219 q 686 -233 679 -219 q 693 -260 693 -246 q 685 -285 693 -275 q 653 -296 678 -296 q 531 -261 572 -296 q 490 -171 490 -226 q 512 -81 490 -126 q 574 0 533 -36 l 163 0 q 108 15 132 0 q 83 57 83 29 l 83 958 q 108 1001 83 986 q 163 1015 132 1015 l 657 1015 q 700 990 686 1015 q 714 938 714 965 q 699 881 714 906 q 657 857 685 857 l 264 857 l 264 579 z "},"Ð":{"ha":815,"x_min":-10,"x_max":744,"o":"m 418 1015 q 546 998 486 1015 q 650 943 606 981 q 719 845 694 906 q 744 697 744 785 l 744 318 q 719 170 744 231 q 650 72 694 110 q 546 17 606 35 q 418 0 486 0 l 172 0 q 115 17 136 0 q 93 56 93 33 l 93 467 l 36 467 q 2 486 14 467 q -10 531 -10 506 q 2 576 -10 556 q 36 596 14 596 l 93 596 l 93 960 q 115 999 93 982 q 172 1015 136 1015 l 418 1015 m 274 857 l 274 596 l 381 596 q 416 576 404 596 q 428 531 428 556 q 416 486 428 506 q 381 467 404 467 l 274 467 l 274 158 l 418 158 q 526 197 488 158 q 564 318 564 236 l 564 697 q 526 818 564 779 q 418 857 488 857 l 274 857 z "},"€":{"ha":856,"x_min":33,"x_max":806,"o":"m 335 290 q 340 248 335 272 q 363 202 346 224 q 408 165 379 181 q 483 150 438 150 q 553 163 525 150 q 597 198 581 176 q 619 246 613 219 q 625 299 625 272 q 647 340 625 328 q 715 351 668 351 q 785 335 764 351 q 806 268 806 319 q 781 153 806 204 q 712 66 756 101 q 607 11 668 31 q 475 -8 546 -8 q 339 13 399 -8 q 238 74 279 35 q 176 169 197 114 q 154 290 154 224 l 154 314 l 90 314 q 49 331 65 314 q 33 376 33 349 q 49 423 33 404 q 90 442 65 442 l 154 442 l 154 539 l 90 539 q 49 556 65 539 q 33 601 33 574 q 49 648 33 629 q 90 667 65 667 l 154 667 l 154 697 q 179 845 154 785 q 248 943 204 906 q 350 998 292 981 q 475 1015 408 1015 q 607 997 546 1015 q 712 944 668 979 q 781 860 756 910 q 806 749 806 811 q 784 683 806 699 q 715 667 763 667 q 646 679 667 667 q 625 719 625 692 q 619 764 625 740 q 598 808 614 788 q 554 843 582 829 q 482 857 526 857 q 373 818 411 857 q 335 697 335 779 l 335 667 l 465 667 q 506 648 488 667 q 524 601 524 629 q 506 556 524 574 q 465 539 488 539 l 335 539 l 335 442 l 465 442 q 506 423 488 442 q 524 378 524 404 q 506 332 524 350 q 465 314 488 314 l 335 314 l 335 290 z "},"F":{"ha":706,"x_min":83,"x_max":703,"o":"m 83 958 q 108 1001 83 986 q 163 1015 132 1015 l 647 1015 q 690 990 676 1015 q 703 938 703 965 q 689 881 703 906 q 647 857 675 857 l 264 857 l 264 579 l 476 579 q 518 557 504 579 q 532 507 532 535 q 519 460 532 483 q 476 438 506 438 l 264 438 l 264 57 q 235 15 264 29 q 174 0 207 0 q 111 15 139 0 q 83 57 83 29 l 83 958 z "},"G":{"ha":783,"x_min":72,"x_max":724,"o":"m 543 719 q 535 769 542 744 q 513 813 529 793 q 470 844 497 832 q 399 857 443 857 q 290 818 328 857 q 253 697 253 779 l 253 310 q 290 189 253 228 q 397 150 328 150 q 504 189 465 150 q 543 310 543 228 l 543 392 l 431 392 q 389 413 403 392 q 375 463 375 435 q 389 511 375 489 q 431 533 403 533 l 667 533 q 709 516 694 533 q 724 475 724 499 l 724 310 q 699 162 724 222 q 629 64 674 101 q 525 9 585 26 q 397 -8 465 -8 q 269 9 328 -8 q 166 64 210 26 q 97 162 122 101 q 72 310 72 222 l 72 697 q 97 845 72 785 q 166 943 122 906 q 267 998 210 981 q 392 1015 325 1015 q 524 997 464 1015 q 629 944 585 979 q 699 860 674 910 q 724 749 724 811 q 701 679 724 696 q 633 663 678 663 q 571 675 597 663 q 543 719 544 688 z "},"Ğ":{"ha":783,"x_min":72,"x_max":724,"o":"m 543 719 q 535 769 542 744 q 513 813 529 793 q 470 844 497 832 q 399 857 443 857 q 290 818 328 857 q 253 697 253 779 l 253 310 q 290 189 253 228 q 397 150 328 150 q 504 189 465 150 q 543 310 543 228 l 543 392 l 431 392 q 389 413 403 392 q 375 463 375 435 q 389 511 375 489 q 431 533 403 533 l 667 533 q 709 516 694 533 q 724 475 724 499 l 724 310 q 699 162 724 222 q 629 64 674 101 q 525 9 585 26 q 397 -8 465 -8 q 269 9 328 -8 q 166 64 210 26 q 97 162 122 101 q 72 310 72 222 l 72 697 q 97 845 72 785 q 166 943 122 906 q 267 998 210 981 q 392 1015 325 1015 q 524 997 464 1015 q 629 944 585 979 q 699 860 674 910 q 724 749 724 811 q 701 679 724 696 q 633 663 678 663 q 571 675 597 663 q 543 719 544 688 m 581 1339 q 565 1268 581 1301 q 524 1210 550 1235 q 464 1169 497 1185 q 396 1154 431 1154 q 326 1169 360 1154 q 267 1210 293 1185 q 226 1268 242 1235 q 211 1339 211 1301 l 308 1339 q 335 1264 308 1293 q 396 1235 363 1235 q 456 1264 428 1235 q 483 1339 483 1293 l 581 1339 z "},"Ĝ":{"ha":783,"x_min":72,"x_max":724,"o":"m 236 1142 q 221 1138 228 1138 q 193 1154 204 1138 q 182 1193 182 1171 q 189 1222 182 1208 q 213 1244 196 1236 l 357 1322 q 381 1329 368 1329 q 404 1322 390 1329 l 549 1246 q 571 1222 564 1236 q 578 1192 578 1207 q 567 1154 578 1171 q 539 1138 556 1138 q 525 1142 531 1138 l 381 1219 l 236 1142 m 543 719 q 535 769 542 744 q 513 813 529 793 q 470 844 497 832 q 399 857 443 857 q 290 818 328 857 q 253 697 253 779 l 253 310 q 290 189 253 228 q 397 150 328 150 q 504 189 465 150 q 543 310 543 228 l 543 392 l 431 392 q 389 413 403 392 q 375 463 375 435 q 389 511 375 489 q 431 533 403 533 l 667 533 q 709 516 694 533 q 724 475 724 499 l 724 310 q 699 162 724 222 q 629 64 674 101 q 525 9 585 26 q 397 -8 465 -8 q 269 9 328 -8 q 166 64 210 26 q 97 162 122 101 q 72 310 72 222 l 72 697 q 97 845 72 785 q 166 943 122 906 q 267 998 210 981 q 392 1015 325 1015 q 524 997 464 1015 q 629 944 585 979 q 699 860 674 910 q 724 749 724 811 q 701 679 724 696 q 633 663 678 663 q 571 675 597 663 q 543 719 544 688 z "},"Ģ":{"ha":783,"x_min":72,"x_max":724,"o":"m 331 -264 q 321 -268 325 -267 q 311 -269 317 -269 q 272 -247 288 -269 q 256 -201 256 -225 q 279 -160 256 -172 l 463 -71 q 481 -67 472 -67 q 520 -89 504 -67 q 536 -135 536 -111 q 531 -160 536 -149 q 511 -178 525 -171 l 331 -264 m 543 719 q 535 769 542 744 q 513 813 529 793 q 470 844 497 832 q 399 857 443 857 q 290 818 328 857 q 253 697 253 779 l 253 310 q 290 189 253 228 q 397 150 328 150 q 504 189 465 150 q 543 310 543 228 l 543 392 l 431 392 q 389 413 403 392 q 375 463 375 435 q 389 511 375 489 q 431 533 403 533 l 667 533 q 709 516 694 533 q 724 475 724 499 l 724 310 q 699 162 724 222 q 629 64 674 101 q 525 9 585 26 q 397 -8 465 -8 q 269 9 328 -8 q 166 64 210 26 q 97 162 122 101 q 72 310 72 222 l 72 697 q 97 845 72 785 q 166 943 122 906 q 267 998 210 981 q 392 1015 325 1015 q 524 997 464 1015 q 629 944 585 979 q 699 860 674 910 q 724 749 724 811 q 701 679 724 696 q 633 663 678 663 q 571 675 597 663 q 543 719 544 688 z "},"Ġ":{"ha":783,"x_min":72,"x_max":724,"o":"m 543 719 q 535 769 542 744 q 513 813 529 793 q 470 844 497 832 q 399 857 443 857 q 290 818 328 857 q 253 697 253 779 l 253 310 q 290 189 253 228 q 397 150 328 150 q 504 189 465 150 q 543 310 543 228 l 543 392 l 431 392 q 389 413 403 392 q 375 463 375 435 q 389 511 375 489 q 431 533 403 533 l 667 533 q 709 516 694 533 q 724 475 724 499 l 724 310 q 699 162 724 222 q 629 64 674 101 q 525 9 585 26 q 397 -8 465 -8 q 269 9 328 -8 q 166 64 210 26 q 97 162 122 101 q 72 310 72 222 l 72 697 q 97 845 72 785 q 166 943 122 906 q 267 998 210 981 q 392 1015 325 1015 q 524 997 464 1015 q 629 944 585 979 q 699 860 674 910 q 724 749 724 811 q 701 679 724 696 q 633 663 678 663 q 571 675 597 663 q 543 719 544 688 m 393 1285 q 442 1263 422 1285 q 463 1213 463 1242 q 442 1161 463 1183 q 393 1139 422 1139 q 343 1161 364 1139 q 322 1213 322 1183 q 343 1263 322 1242 q 393 1285 364 1285 z "},"H":{"ha":840,"x_min":83,"x_max":757,"o":"m 576 456 l 264 456 l 264 57 q 235 15 264 29 q 174 0 207 0 q 111 15 139 0 q 83 57 83 29 l 83 960 q 111 1002 83 989 q 174 1015 139 1015 q 235 1002 207 1015 q 264 960 264 989 l 264 597 l 576 597 l 576 960 q 604 1002 576 989 q 667 1015 632 1015 q 728 1002 700 1015 q 757 960 757 989 l 757 57 q 728 15 757 29 q 667 0 700 0 q 604 15 632 0 q 576 57 576 29 l 576 456 z "},"Ħ":{"ha":847,"x_min":24,"x_max":822,"o":"m 581 456 l 268 456 l 268 57 q 240 15 268 29 q 178 0 211 0 q 115 15 143 0 q 88 57 88 29 l 88 742 l 69 742 q 35 760 47 742 q 24 800 24 778 q 35 841 24 822 q 69 860 47 860 l 88 860 l 88 960 q 115 1002 88 989 q 178 1015 143 1015 q 240 1002 211 1015 q 268 960 268 989 l 268 860 l 581 860 l 581 960 q 608 1002 581 989 q 671 1015 636 1015 q 733 1002 704 1015 q 761 960 761 989 l 761 860 l 776 860 q 810 841 799 860 q 822 800 822 822 q 810 759 822 776 q 776 742 799 742 l 761 742 l 761 57 q 733 15 761 29 q 671 0 704 0 q 608 15 636 0 q 581 57 581 29 l 581 456 m 581 597 l 581 742 l 268 742 l 268 597 l 581 597 z "},"Ĥ":{"ha":840,"x_min":83,"x_max":757,"o":"m 276 1142 q 261 1138 268 1138 q 233 1154 244 1138 q 222 1193 222 1171 q 229 1222 222 1208 q 253 1244 236 1236 l 397 1322 q 421 1329 408 1329 q 444 1322 431 1329 l 589 1246 q 611 1222 604 1236 q 618 1192 618 1207 q 607 1154 618 1171 q 579 1138 596 1138 q 565 1142 571 1138 l 421 1219 l 276 1142 m 576 456 l 264 456 l 264 57 q 235 15 264 29 q 174 0 207 0 q 111 15 139 0 q 83 57 83 29 l 83 960 q 111 1002 83 989 q 174 1015 139 1015 q 235 1002 207 1015 q 264 960 264 989 l 264 597 l 576 597 l 576 960 q 604 1002 576 989 q 667 1015 632 1015 q 728 1002 700 1015 q 757 960 757 989 l 757 57 q 728 15 757 29 q 667 0 700 0 q 604 15 632 0 q 576 57 576 29 l 576 456 z "},"I":{"ha":347,"x_min":83,"x_max":264,"o":"m 83 960 q 111 1002 83 989 q 174 1015 139 1015 q 235 1002 207 1015 q 264 960 264 989 l 264 57 q 235 15 264 29 q 174 0 207 0 q 111 15 139 0 q 83 57 83 29 l 83 960 z "},"Ĳ":{"ha":1085,"x_min":83,"x_max":1006,"o":"m 83 960 q 111 1002 83 989 q 174 1015 139 1015 q 235 1002 207 1015 q 264 960 264 989 l 264 57 q 235 15 264 29 q 174 0 207 0 q 111 15 139 0 q 83 57 83 29 l 83 960 m 683 857 q 641 881 656 857 q 626 938 626 906 q 640 990 626 965 q 683 1015 653 1015 l 926 1015 q 981 1001 957 1015 q 1006 958 1006 986 l 1006 310 q 981 162 1006 222 q 912 64 956 101 q 810 9 868 26 q 686 -8 751 -8 q 553 10 614 -8 q 448 65 492 29 q 379 152 404 101 q 354 268 354 203 q 376 338 354 321 q 444 356 399 356 q 506 344 481 356 q 535 299 532 332 q 542 246 536 272 q 565 198 549 219 q 608 163 581 176 q 678 150 636 150 q 787 189 749 150 q 825 310 825 228 l 825 857 l 683 857 z "},"Í":{"ha":347,"x_min":43,"x_max":324,"o":"m 83 960 q 111 1002 83 989 q 174 1015 139 1015 q 235 1002 207 1015 q 264 960 264 989 l 264 57 q 235 15 264 29 q 174 0 207 0 q 111 15 139 0 q 83 57 83 29 l 83 960 m 118 1132 q 108 1128 113 1129 q 99 1126 104 1126 q 59 1149 75 1126 q 43 1194 43 1171 q 67 1238 43 1225 l 250 1326 q 260 1328 256 1328 q 268 1329 264 1329 q 308 1307 292 1329 q 324 1261 324 1285 q 318 1238 324 1249 q 299 1219 313 1226 l 118 1132 z "},"Ĭ":{"ha":347,"x_min":-11,"x_max":358,"o":"m 83 960 q 111 1002 83 989 q 174 1015 139 1015 q 235 1002 207 1015 q 264 960 264 989 l 264 57 q 235 15 264 29 q 174 0 207 0 q 111 15 139 0 q 83 57 83 29 l 83 960 m 358 1339 q 343 1268 358 1301 q 301 1210 328 1235 q 242 1169 275 1185 q 174 1154 208 1154 q 104 1169 138 1154 q 45 1210 71 1185 q 4 1268 19 1235 q -11 1339 -11 1301 l 86 1339 q 113 1264 86 1293 q 174 1235 140 1235 q 233 1264 206 1235 q 261 1339 261 1293 l 358 1339 z "},"Î":{"ha":347,"x_min":-22,"x_max":374,"o":"m 83 960 q 111 1002 83 989 q 174 1015 139 1015 q 235 1002 207 1015 q 264 960 264 989 l 264 57 q 235 15 264 29 q 174 0 207 0 q 111 15 139 0 q 83 57 83 29 l 83 960 m 32 1142 q 17 1138 24 1138 q -11 1154 0 1138 q -22 1193 -22 1171 q -15 1222 -22 1208 q 8 1244 -8 1236 l 153 1322 q 176 1329 164 1329 q 200 1322 186 1329 l 344 1246 q 367 1222 360 1236 q 374 1192 374 1207 q 363 1154 374 1171 q 335 1138 351 1138 q 321 1142 326 1138 l 176 1219 l 32 1142 z "},"Ï":{"ha":347,"x_min":1,"x_max":350,"o":"m 83 960 q 111 1002 83 989 q 174 1015 139 1015 q 235 1002 207 1015 q 264 960 264 989 l 264 57 q 235 15 264 29 q 174 0 207 0 q 111 15 139 0 q 83 57 83 29 l 83 960 m 72 1285 q 122 1263 101 1285 q 142 1213 142 1242 q 122 1161 142 1183 q 72 1139 101 1139 q 22 1161 43 1139 q 1 1213 1 1183 q 22 1263 1 1242 q 72 1285 43 1285 m 281 1285 q 329 1263 308 1285 q 350 1213 350 1242 q 329 1161 350 1183 q 281 1139 308 1139 q 229 1161 250 1139 q 208 1213 208 1183 q 229 1263 208 1242 q 281 1285 250 1285 z "},"İ":{"ha":347,"x_min":83,"x_max":264,"o":"m 83 960 q 111 1002 83 989 q 174 1015 139 1015 q 235 1002 207 1015 q 264 960 264 989 l 264 57 q 235 15 264 29 q 174 0 207 0 q 111 15 139 0 q 83 57 83 29 l 83 960 m 175 1285 q 224 1263 204 1285 q 244 1213 244 1242 q 224 1161 244 1183 q 175 1139 204 1139 q 125 1161 146 1139 q 104 1213 104 1183 q 125 1263 104 1242 q 175 1285 146 1285 z "},"Ì":{"ha":347,"x_min":24,"x_max":304,"o":"m 83 960 q 111 1002 83 989 q 174 1015 139 1015 q 235 1002 207 1015 q 264 960 264 989 l 264 57 q 235 15 264 29 q 174 0 207 0 q 111 15 139 0 q 83 57 83 29 l 83 960 m 49 1219 q 29 1238 35 1226 q 24 1261 24 1249 q 40 1307 24 1285 q 79 1329 56 1329 q 88 1328 83 1329 q 97 1326 92 1328 l 281 1238 q 304 1194 304 1225 q 288 1149 304 1171 q 249 1126 272 1126 q 239 1128 243 1126 q 229 1132 235 1129 l 49 1219 z "},"Ī":{"ha":347,"x_min":-26,"x_max":371,"o":"m 83 960 q 111 1002 83 989 q 174 1015 139 1015 q 235 1002 207 1015 q 264 960 264 989 l 264 57 q 235 15 264 29 q 174 0 207 0 q 111 15 139 0 q 83 57 83 29 l 83 960 m -26 1243 q -11 1285 -26 1268 q 29 1303 4 1303 l 314 1303 q 353 1285 336 1303 q 371 1243 371 1268 q 353 1201 371 1217 q 314 1185 336 1185 l 29 1185 q -11 1201 4 1185 q -26 1243 -26 1217 z "},"Į":{"ha":347,"x_min":32,"x_max":264,"o":"m 203 -218 q 228 -231 221 -218 q 235 -258 235 -244 q 227 -284 235 -274 q 194 -294 219 -294 q 73 -260 114 -294 q 32 -169 32 -225 q 56 -74 32 -121 q 122 8 79 -28 q 94 27 106 15 q 83 57 83 39 l 83 960 q 111 1002 83 989 q 174 1015 139 1015 q 235 1002 207 1015 q 264 960 264 989 l 264 57 q 252 27 264 39 q 224 8 240 15 q 149 -65 179 -19 q 119 -153 119 -110 q 139 -201 119 -183 q 203 -218 158 -218 z "},"Ĩ":{"ha":347,"x_min":-64,"x_max":411,"o":"m 83 960 q 111 1002 83 989 q 174 1015 139 1015 q 235 1002 207 1015 q 264 960 264 989 l 264 57 q 235 15 264 29 q 174 0 207 0 q 111 15 139 0 q 83 57 83 29 l 83 960 m 96 1194 q 58 1189 74 1194 q 28 1177 42 1183 q 4 1166 15 1171 q -18 1161 -7 1161 q -41 1168 -32 1161 q -55 1185 -50 1175 q -62 1204 -60 1194 q -64 1219 -64 1214 q -50 1270 -64 1251 q -17 1299 -36 1289 q 23 1311 3 1308 q 56 1314 43 1314 q 110 1308 86 1314 q 156 1294 133 1301 q 202 1280 179 1286 q 253 1274 225 1274 q 292 1278 275 1274 q 321 1290 308 1283 q 344 1301 333 1296 q 365 1307 354 1307 q 388 1300 379 1307 q 401 1283 396 1293 q 409 1264 407 1274 q 411 1249 411 1254 q 397 1198 411 1217 q 364 1169 383 1179 q 324 1157 344 1160 q 293 1154 304 1154 q 233 1160 258 1154 q 186 1174 208 1167 q 143 1188 164 1182 q 96 1194 122 1194 z "},"J":{"ha":749,"x_min":18,"x_max":669,"o":"m 347 857 q 305 881 319 857 q 290 938 290 906 q 303 990 290 965 q 347 1015 317 1015 l 590 1015 q 645 1001 621 1015 q 669 958 669 986 l 669 310 q 644 162 669 222 q 576 64 619 101 q 474 9 532 26 q 350 -8 415 -8 q 217 10 278 -8 q 112 65 156 29 q 43 152 68 101 q 18 268 18 203 q 40 338 18 321 q 108 356 63 356 q 170 344 144 356 q 199 299 196 332 q 206 246 200 272 q 228 198 213 219 q 272 163 244 176 q 342 150 300 150 q 451 189 413 150 q 489 310 489 228 l 489 857 l 347 857 z "},"Ĵ":{"ha":749,"x_min":18,"x_max":669,"o":"m 232 1142 q 217 1138 224 1138 q 189 1154 200 1138 q 178 1193 178 1171 q 185 1222 178 1208 q 208 1244 192 1236 l 353 1322 q 376 1329 364 1329 q 400 1322 386 1329 l 544 1246 q 567 1222 560 1236 q 574 1192 574 1207 q 563 1154 574 1171 q 535 1138 551 1138 q 521 1142 526 1138 l 376 1219 l 232 1142 m 347 857 q 305 881 319 857 q 290 938 290 906 q 303 990 290 965 q 347 1015 317 1015 l 590 1015 q 645 1001 621 1015 q 669 958 669 986 l 669 310 q 644 162 669 222 q 576 64 619 101 q 474 9 532 26 q 350 -8 415 -8 q 217 10 278 -8 q 112 65 156 29 q 43 152 68 101 q 18 268 18 203 q 40 338 18 321 q 108 356 63 356 q 170 344 144 356 q 199 299 196 332 q 206 246 200 272 q 228 198 213 219 q 272 163 244 176 q 342 150 300 150 q 451 189 413 150 q 489 310 489 228 l 489 857 l 347 857 z "},"K":{"ha":767,"x_min":83,"x_max":771,"o":"m 83 960 q 111 1002 83 989 q 174 1015 139 1015 q 235 1002 207 1015 q 264 960 264 989 l 264 581 l 564 989 q 614 1015 583 1015 q 649 1007 631 1015 q 683 985 668 999 q 708 956 699 972 q 718 922 718 939 q 716 906 718 915 q 707 888 714 897 l 458 576 l 761 115 q 771 83 771 101 q 761 51 771 67 q 736 22 751 35 q 701 1 721 8 q 663 -7 682 -7 q 628 1 644 -7 q 600 28 611 8 l 339 424 l 264 329 l 264 57 q 235 15 264 29 q 174 0 207 0 q 111 15 139 0 q 83 57 83 29 l 83 960 z "},"Ķ":{"ha":767,"x_min":83,"x_max":771,"o":"m 324 -264 q 314 -268 318 -267 q 304 -269 310 -269 q 265 -247 281 -269 q 249 -201 249 -225 q 272 -160 249 -172 l 456 -71 q 474 -67 465 -67 q 513 -89 497 -67 q 529 -135 529 -111 q 524 -160 529 -149 q 504 -178 518 -171 l 324 -264 m 83 960 q 111 1002 83 989 q 174 1015 139 1015 q 235 1002 207 1015 q 264 960 264 989 l 264 581 l 564 989 q 614 1015 583 1015 q 649 1007 631 1015 q 683 985 668 999 q 708 956 699 972 q 718 922 718 939 q 716 906 718 915 q 707 888 714 897 l 458 576 l 761 115 q 771 83 771 101 q 761 51 771 67 q 736 22 751 35 q 701 1 721 8 q 663 -7 682 -7 q 628 1 644 -7 q 600 28 611 8 l 339 424 l 264 329 l 264 57 q 235 15 264 29 q 174 0 207 0 q 111 15 139 0 q 83 57 83 29 l 83 960 z "},"L":{"ha":672,"x_min":83,"x_max":657,"o":"m 163 0 q 108 15 132 0 q 83 57 83 29 l 83 960 q 111 1002 83 989 q 174 1015 139 1015 q 235 1002 207 1015 q 264 960 264 989 l 264 158 l 603 158 q 644 134 631 158 q 657 79 657 110 q 644 25 657 50 q 603 0 631 0 l 163 0 z "},"Ĺ":{"ha":672,"x_min":83,"x_max":657,"o":"m 292 1132 q 282 1128 286 1129 q 272 1126 278 1126 q 233 1149 249 1126 q 217 1194 217 1171 q 240 1238 217 1225 l 424 1326 q 433 1328 429 1328 q 442 1329 438 1329 q 481 1307 465 1329 q 497 1261 497 1285 q 492 1238 497 1249 q 472 1219 486 1226 l 292 1132 m 163 0 q 108 15 132 0 q 83 57 83 29 l 83 960 q 111 1002 83 989 q 174 1015 139 1015 q 235 1002 207 1015 q 264 960 264 989 l 264 158 l 603 158 q 644 134 631 158 q 657 79 657 110 q 644 25 657 50 q 603 0 631 0 l 163 0 z "},"Ľ":{"ha":674,"x_min":83,"x_max":657,"o":"m 519 1029 q 586 1001 558 1029 q 614 936 614 974 q 612 919 614 929 q 601 887 610 908 q 578 828 593 865 q 538 732 563 792 q 521 715 531 719 q 500 710 511 710 q 460 722 481 710 q 440 757 440 733 q 446 776 440 767 l 478 850 q 440 885 454 863 q 426 935 426 907 q 453 1001 426 974 q 519 1029 481 1029 m 163 0 q 108 15 132 0 q 83 57 83 29 l 83 960 q 111 1002 83 989 q 174 1015 139 1015 q 235 1002 207 1015 q 264 960 264 989 l 264 158 l 603 158 q 644 134 631 158 q 657 79 657 110 q 644 25 657 50 q 603 0 631 0 l 163 0 z "},"Ļ":{"ha":672,"x_min":83,"x_max":657,"o":"m 293 -264 q 283 -268 288 -267 q 274 -269 279 -269 q 234 -247 250 -269 q 218 -201 218 -225 q 242 -160 218 -172 l 425 -71 q 443 -67 435 -67 q 483 -89 467 -67 q 499 -135 499 -111 q 493 -160 499 -149 q 474 -178 488 -171 l 293 -264 m 163 0 q 108 15 132 0 q 83 57 83 29 l 83 960 q 111 1002 83 989 q 174 1015 139 1015 q 235 1002 207 1015 q 264 960 264 989 l 264 158 l 603 158 q 644 134 631 158 q 657 79 657 110 q 644 25 657 50 q 603 0 631 0 l 163 0 z "},"Ŀ":{"ha":674,"x_min":83,"x_max":657,"o":"m 163 0 q 108 15 132 0 q 83 57 83 29 l 83 960 q 111 1002 83 989 q 174 1015 139 1015 q 235 1002 207 1015 q 264 960 264 989 l 264 158 l 603 158 q 644 134 631 158 q 657 79 657 110 q 644 25 657 50 q 603 0 631 0 l 163 0 m 511 672 q 581 647 553 672 q 610 585 610 621 q 581 522 610 549 q 511 496 553 496 q 440 522 469 496 q 411 585 411 549 q 440 647 411 621 q 511 672 469 672 z "},"Ł":{"ha":681,"x_min":-10,"x_max":665,"o":"m 171 0 q 116 15 140 0 q 92 57 92 29 l 92 365 l 69 354 q 53 350 61 350 q 9 376 28 350 q -10 431 -10 403 q -4 455 -10 443 q 13 472 1 467 l 92 511 l 92 960 q 119 1002 92 989 q 182 1015 147 1015 q 244 1002 215 1015 q 272 960 272 989 l 272 599 l 356 640 q 372 643 361 643 q 397 635 385 643 q 417 616 408 628 q 431 590 425 604 q 436 564 436 576 q 413 522 436 533 l 272 453 l 272 158 l 611 158 q 652 134 639 158 q 665 79 665 110 q 652 25 665 50 q 611 0 639 0 l 171 0 z "},"M":{"ha":971,"x_min":83,"x_max":888,"o":"m 544 365 q 517 337 533 344 q 483 329 500 329 q 451 337 467 329 q 424 365 435 344 l 264 665 l 264 57 q 235 15 264 29 q 174 0 207 0 q 111 15 139 0 q 83 57 83 29 l 83 925 q 111 995 83 975 q 174 1015 139 1015 q 217 1012 199 1015 q 251 998 235 1008 q 282 969 267 988 q 314 919 297 950 l 485 608 l 656 919 q 688 969 672 950 q 719 998 703 988 q 753 1012 735 1008 q 797 1015 772 1015 q 860 995 832 1015 q 888 925 888 975 l 888 57 q 859 15 888 29 q 797 0 831 0 q 735 15 763 0 q 707 57 707 29 l 707 654 l 544 365 z "},"N":{"ha":840,"x_min":83,"x_max":757,"o":"m 667 0 q 608 13 635 0 q 563 57 581 25 l 264 615 l 264 57 q 235 15 264 29 q 174 0 207 0 q 111 15 139 0 q 83 57 83 29 l 83 958 q 111 1001 83 988 q 174 1015 139 1015 q 217 1012 199 1015 q 249 998 235 1008 q 278 969 264 988 q 308 919 292 950 l 576 401 l 576 960 q 604 1002 576 989 q 667 1015 632 1015 q 728 1002 700 1015 q 757 960 757 989 l 757 57 q 728 15 757 29 q 667 0 700 0 z "},"Ń":{"ha":840,"x_min":83,"x_max":757,"o":"m 339 1132 q 329 1128 333 1129 q 319 1126 325 1126 q 280 1149 296 1126 q 264 1194 264 1171 q 288 1238 264 1225 l 471 1326 q 481 1328 476 1328 q 489 1329 485 1329 q 528 1307 513 1329 q 544 1261 544 1285 q 539 1238 544 1249 q 519 1219 533 1226 l 339 1132 m 667 0 q 608 13 635 0 q 563 57 581 25 l 264 615 l 264 57 q 235 15 264 29 q 174 0 207 0 q 111 15 139 0 q 83 57 83 29 l 83 958 q 111 1001 83 988 q 174 1015 139 1015 q 217 1012 199 1015 q 249 998 235 1008 q 278 969 264 988 q 308 919 292 950 l 576 401 l 576 960 q 604 1002 576 989 q 667 1015 632 1015 q 728 1002 700 1015 q 757 960 757 989 l 757 57 q 728 15 757 29 q 667 0 700 0 z "},"Ň":{"ha":840,"x_min":83,"x_max":757,"o":"m 421 1257 l 563 1349 q 579 1354 572 1354 q 608 1337 597 1354 q 618 1300 618 1319 q 589 1247 618 1265 l 446 1156 q 421 1147 431 1147 q 396 1156 408 1147 l 253 1247 q 222 1300 222 1265 q 233 1337 222 1319 q 261 1354 244 1354 q 278 1349 271 1354 l 421 1257 m 667 0 q 608 13 635 0 q 563 57 581 25 l 264 615 l 264 57 q 235 15 264 29 q 174 0 207 0 q 111 15 139 0 q 83 57 83 29 l 83 958 q 111 1001 83 988 q 174 1015 139 1015 q 217 1012 199 1015 q 249 998 235 1008 q 278 969 264 988 q 308 919 292 950 l 576 401 l 576 960 q 604 1002 576 989 q 667 1015 632 1015 q 728 1002 700 1015 q 757 960 757 989 l 757 57 q 728 15 757 29 q 667 0 700 0 z "},"Ņ":{"ha":840,"x_min":83,"x_max":757,"o":"m 354 -264 q 344 -268 349 -267 q 335 -269 340 -269 q 295 -247 311 -269 q 279 -201 279 -225 q 303 -160 279 -172 l 486 -71 q 504 -67 496 -67 q 544 -89 528 -67 q 560 -135 560 -111 q 554 -160 560 -149 q 535 -178 549 -171 l 354 -264 m 667 0 q 608 13 635 0 q 563 57 581 25 l 264 615 l 264 57 q 235 15 264 29 q 174 0 207 0 q 111 15 139 0 q 83 57 83 29 l 83 958 q 111 1001 83 988 q 174 1015 139 1015 q 217 1012 199 1015 q 249 998 235 1008 q 278 969 264 988 q 308 919 292 950 l 576 401 l 576 960 q 604 1002 576 989 q 667 1015 632 1015 q 728 1002 700 1015 q 757 960 757 989 l 757 57 q 728 15 757 29 q 667 0 700 0 z "},"Ñ":{"ha":840,"x_min":83,"x_max":757,"o":"m 667 0 q 608 13 635 0 q 563 57 581 25 l 264 615 l 264 57 q 235 15 264 29 q 174 0 207 0 q 111 15 139 0 q 83 57 83 29 l 83 958 q 111 1001 83 988 q 174 1015 139 1015 q 217 1012 199 1015 q 249 998 235 1008 q 278 969 264 988 q 308 919 292 950 l 576 401 l 576 960 q 604 1002 576 989 q 667 1015 632 1015 q 728 1002 700 1015 q 757 960 757 989 l 757 57 q 728 15 757 29 q 667 0 700 0 m 332 1194 q 294 1189 310 1194 q 265 1177 278 1183 q 240 1166 251 1171 q 218 1161 229 1161 q 195 1168 204 1161 q 181 1185 186 1175 q 174 1204 176 1194 q 172 1219 172 1214 q 186 1270 172 1251 q 219 1299 200 1289 q 259 1311 239 1308 q 292 1314 279 1314 q 346 1308 322 1314 q 392 1294 369 1301 q 438 1280 415 1286 q 489 1274 461 1274 q 528 1278 511 1274 q 557 1290 544 1283 q 580 1301 569 1296 q 601 1307 590 1307 q 624 1300 615 1307 q 638 1283 632 1293 q 645 1264 643 1274 q 647 1249 647 1254 q 633 1198 647 1217 q 600 1169 619 1179 q 560 1157 581 1160 q 529 1154 540 1154 q 469 1160 494 1154 q 422 1174 444 1167 q 379 1188 400 1182 q 332 1194 358 1194 z "},"O":{"ha":794,"x_min":72,"x_max":724,"o":"m 397 -8 q 269 9 328 -8 q 166 64 210 26 q 97 162 122 101 q 72 310 72 222 l 72 697 q 97 845 72 785 q 166 943 122 906 q 269 998 210 981 q 397 1015 328 1015 q 525 998 465 1015 q 629 943 585 981 q 699 845 674 906 q 724 697 724 785 l 724 310 q 699 162 724 222 q 629 64 674 101 q 525 9 585 26 q 397 -8 465 -8 m 543 697 q 504 819 543 781 q 397 857 465 857 q 290 819 328 857 q 253 697 253 781 l 253 310 q 290 188 253 226 q 397 150 328 150 q 504 188 465 150 q 543 310 543 226 l 543 697 z "},"Œ":{"ha":1151,"x_min":74,"x_max":1129,"o":"m 365 -8 q 248 9 301 -8 q 156 64 194 26 q 95 162 117 101 q 74 310 74 222 l 74 697 q 95 845 74 785 q 156 943 117 906 q 248 998 194 981 q 365 1015 301 1015 q 481 990 424 1015 q 568 913 539 965 l 568 958 q 592 1001 568 986 q 647 1015 617 1015 l 1074 1015 q 1116 990 1103 1015 q 1129 938 1129 965 q 1115 881 1129 906 q 1074 857 1101 857 l 725 857 l 725 579 l 892 579 q 933 557 919 579 q 947 507 947 535 q 934 460 947 483 q 892 438 921 438 l 725 438 l 725 158 l 1074 158 q 1115 134 1101 158 q 1129 78 1129 110 q 1116 25 1129 50 q 1074 0 1103 0 l 647 0 q 592 15 617 0 q 568 57 568 29 l 568 94 q 481 17 539 42 q 365 -8 424 -8 m 544 697 q 506 819 544 781 q 399 857 467 857 q 292 819 329 857 q 254 697 254 781 l 254 310 q 292 188 254 226 q 399 150 329 150 q 506 188 467 150 q 544 310 544 226 l 544 697 z "},"Ó":{"ha":794,"x_min":72,"x_max":724,"o":"m 381 1132 q 371 1128 375 1129 q 361 1126 367 1126 q 322 1149 338 1126 q 306 1194 306 1171 q 329 1238 306 1225 l 513 1326 q 522 1328 518 1328 q 531 1329 526 1329 q 570 1307 554 1329 q 586 1261 586 1285 q 581 1238 586 1249 q 561 1219 575 1226 l 381 1132 m 397 -8 q 269 9 328 -8 q 166 64 210 26 q 97 162 122 101 q 72 310 72 222 l 72 697 q 97 845 72 785 q 166 943 122 906 q 269 998 210 981 q 397 1015 328 1015 q 525 998 465 1015 q 629 943 585 981 q 699 845 674 906 q 724 697 724 785 l 724 310 q 699 162 724 222 q 629 64 674 101 q 525 9 585 26 q 397 -8 465 -8 m 543 697 q 504 819 543 781 q 397 857 465 857 q 290 819 328 857 q 253 697 253 781 l 253 310 q 290 188 253 226 q 397 150 328 150 q 504 188 465 150 q 543 310 543 226 l 543 697 z "},"Ŏ":{"ha":794,"x_min":72,"x_max":724,"o":"m 397 -8 q 269 9 328 -8 q 166 64 210 26 q 97 162 122 101 q 72 310 72 222 l 72 697 q 97 845 72 785 q 166 943 122 906 q 269 998 210 981 q 397 1015 328 1015 q 525 998 465 1015 q 629 943 585 981 q 699 845 674 906 q 724 697 724 785 l 724 310 q 699 162 724 222 q 629 64 674 101 q 525 9 585 26 q 397 -8 465 -8 m 543 697 q 504 819 543 781 q 397 857 465 857 q 290 819 328 857 q 253 697 253 781 l 253 310 q 290 188 253 226 q 397 150 328 150 q 504 188 465 150 q 543 310 543 226 l 543 697 m 581 1339 q 565 1268 581 1301 q 524 1210 550 1235 q 464 1169 497 1185 q 396 1154 431 1154 q 326 1169 360 1154 q 267 1210 293 1185 q 226 1268 242 1235 q 211 1339 211 1301 l 308 1339 q 335 1264 308 1293 q 396 1235 363 1235 q 456 1264 428 1235 q 483 1339 483 1293 l 581 1339 z "},"Ô":{"ha":794,"x_min":72,"x_max":724,"o":"m 253 1142 q 238 1138 244 1138 q 210 1154 221 1138 q 199 1193 199 1171 q 206 1222 199 1208 q 229 1244 213 1236 l 374 1322 q 397 1329 385 1329 q 421 1322 407 1329 l 565 1246 q 588 1222 581 1236 q 594 1192 594 1207 q 583 1154 594 1171 q 556 1138 572 1138 q 542 1142 547 1138 l 397 1219 l 253 1142 m 397 -8 q 269 9 328 -8 q 166 64 210 26 q 97 162 122 101 q 72 310 72 222 l 72 697 q 97 845 72 785 q 166 943 122 906 q 269 998 210 981 q 397 1015 328 1015 q 525 998 465 1015 q 629 943 585 981 q 699 845 674 906 q 724 697 724 785 l 724 310 q 699 162 724 222 q 629 64 674 101 q 525 9 585 26 q 397 -8 465 -8 m 543 697 q 504 819 543 781 q 397 857 465 857 q 290 819 328 857 q 253 697 253 781 l 253 310 q 290 188 253 226 q 397 150 328 150 q 504 188 465 150 q 543 310 543 226 l 543 697 z "},"Ö":{"ha":794,"x_min":72,"x_max":724,"o":"m 296 1285 q 345 1263 325 1285 q 365 1213 365 1242 q 345 1161 365 1183 q 296 1139 325 1139 q 246 1161 267 1139 q 225 1213 225 1183 q 246 1263 225 1242 q 296 1285 267 1285 m 504 1285 q 553 1263 532 1285 q 574 1213 574 1242 q 553 1161 574 1183 q 504 1139 532 1139 q 453 1161 474 1139 q 432 1213 432 1183 q 453 1263 432 1242 q 504 1285 474 1285 m 397 -8 q 269 9 328 -8 q 166 64 210 26 q 97 162 122 101 q 72 310 72 222 l 72 697 q 97 845 72 785 q 166 943 122 906 q 269 998 210 981 q 397 1015 328 1015 q 525 998 465 1015 q 629 943 585 981 q 699 845 674 906 q 724 697 724 785 l 724 310 q 699 162 724 222 q 629 64 674 101 q 525 9 585 26 q 397 -8 465 -8 m 543 697 q 504 819 543 781 q 397 857 465 857 q 290 819 328 857 q 253 697 253 781 l 253 310 q 290 188 253 226 q 397 150 328 150 q 504 188 465 150 q 543 310 543 226 l 543 697 z "},"Ò":{"ha":794,"x_min":72,"x_max":724,"o":"m 397 -8 q 269 9 328 -8 q 166 64 210 26 q 97 162 122 101 q 72 310 72 222 l 72 697 q 97 845 72 785 q 166 943 122 906 q 269 998 210 981 q 397 1015 328 1015 q 525 998 465 1015 q 629 943 585 981 q 699 845 674 906 q 724 697 724 785 l 724 310 q 699 162 724 222 q 629 64 674 101 q 525 9 585 26 q 397 -8 465 -8 m 543 697 q 504 819 543 781 q 397 857 465 857 q 290 819 328 857 q 253 697 253 781 l 253 310 q 290 188 253 226 q 397 150 328 150 q 504 188 465 150 q 543 310 543 226 l 543 697 m 265 1219 q 246 1238 251 1226 q 240 1261 240 1249 q 256 1307 240 1285 q 296 1329 272 1329 q 304 1328 300 1329 q 314 1326 308 1328 l 497 1238 q 521 1194 521 1225 q 505 1149 521 1171 q 465 1126 489 1126 q 456 1128 460 1126 q 446 1132 451 1129 l 265 1219 z "},"Ő":{"ha":794,"x_min":72,"x_max":724,"o":"m 308 1136 q 282 1124 297 1124 q 244 1140 261 1124 q 226 1176 226 1157 q 236 1199 226 1189 l 353 1321 q 379 1332 363 1332 q 415 1315 399 1332 q 432 1279 432 1297 q 422 1256 432 1265 l 308 1136 m 526 1136 q 500 1124 515 1124 q 462 1140 479 1124 q 444 1176 444 1157 q 454 1199 444 1189 l 571 1321 q 597 1332 582 1332 q 633 1315 617 1332 q 650 1279 650 1297 q 640 1256 650 1265 l 526 1136 m 397 -8 q 269 9 328 -8 q 166 64 210 26 q 97 162 122 101 q 72 310 72 222 l 72 697 q 97 845 72 785 q 166 943 122 906 q 269 998 210 981 q 397 1015 328 1015 q 525 998 465 1015 q 629 943 585 981 q 699 845 674 906 q 724 697 724 785 l 724 310 q 699 162 724 222 q 629 64 674 101 q 525 9 585 26 q 397 -8 465 -8 m 543 697 q 504 819 543 781 q 397 857 465 857 q 290 819 328 857 q 253 697 253 781 l 253 310 q 290 188 253 226 q 397 150 328 150 q 504 188 465 150 q 543 310 543 226 l 543 697 z "},"Ō":{"ha":794,"x_min":72,"x_max":724,"o":"m 199 1243 q 214 1285 199 1268 q 254 1303 229 1303 l 539 1303 q 578 1285 561 1303 q 596 1243 596 1268 q 578 1201 596 1217 q 539 1185 561 1185 l 254 1185 q 214 1201 229 1185 q 199 1243 199 1217 m 397 -8 q 269 9 328 -8 q 166 64 210 26 q 97 162 122 101 q 72 310 72 222 l 72 697 q 97 845 72 785 q 166 943 122 906 q 269 998 210 981 q 397 1015 328 1015 q 525 998 465 1015 q 629 943 585 981 q 699 845 674 906 q 724 697 724 785 l 724 310 q 699 162 724 222 q 629 64 674 101 q 525 9 585 26 q 397 -8 465 -8 m 543 697 q 504 819 543 781 q 397 857 465 857 q 290 819 328 857 q 253 697 253 781 l 253 310 q 290 188 253 226 q 397 150 328 150 q 504 188 465 150 q 543 310 543 226 l 543 697 z "},"Ω":{"ha":797,"x_min":57,"x_max":740,"o":"m 443 331 q 543 483 543 351 l 543 697 q 505 819 543 781 q 399 857 467 857 q 291 819 329 857 q 253 697 253 781 l 253 483 q 278 374 253 414 q 353 331 304 333 l 353 0 l 113 0 q 72 23 88 0 q 57 79 57 46 q 73 136 57 115 q 113 157 89 157 l 250 157 l 250 182 q 122 283 171 211 q 74 483 74 356 l 74 697 q 99 845 74 785 q 167 943 124 906 q 270 998 211 981 q 399 1015 329 1015 q 526 998 467 1015 q 630 943 586 981 q 699 845 674 906 q 724 697 724 785 l 724 483 q 674 283 724 356 q 546 182 624 210 l 546 157 l 683 157 q 724 136 707 157 q 740 79 740 115 q 724 23 740 46 q 683 0 708 0 l 443 0 l 443 331 z "},"Ø":{"ha":796,"x_min":72,"x_max":724,"o":"m 643 1071 q 690 1053 668 1071 q 713 1008 713 1036 q 707 983 713 994 l 667 903 q 709 815 694 865 q 724 697 724 764 l 724 310 q 699 162 724 222 q 629 64 674 101 q 525 9 585 26 q 397 -8 465 -8 q 310 -1 351 -8 q 232 22 268 6 l 208 -25 q 186 -48 201 -40 q 154 -56 171 -56 q 106 -36 124 -56 q 88 6 88 -17 q 94 29 88 18 l 131 101 q 88 190 103 139 q 72 310 72 242 l 72 697 q 97 845 72 785 q 166 943 122 906 q 269 998 210 981 q 397 1015 328 1015 q 485 1008 443 1015 q 564 983 528 1000 l 593 1042 q 614 1064 600 1057 q 643 1071 628 1071 m 253 350 l 489 831 q 397 857 454 857 q 290 819 328 857 q 253 697 253 781 l 253 350 m 543 651 l 307 174 q 397 150 340 150 q 504 188 465 150 q 543 310 543 226 l 543 651 z "},"Ǿ":{"ha":796,"x_min":72,"x_max":724,"o":"m 643 1071 q 690 1053 668 1071 q 713 1008 713 1036 q 707 983 713 994 l 667 903 q 709 815 694 865 q 724 697 724 764 l 724 310 q 699 162 724 222 q 629 64 674 101 q 525 9 585 26 q 397 -8 465 -8 q 310 -1 351 -8 q 232 22 268 6 l 208 -25 q 186 -48 201 -40 q 154 -56 171 -56 q 106 -36 124 -56 q 88 6 88 -17 q 94 29 88 18 l 131 101 q 88 190 103 139 q 72 310 72 242 l 72 697 q 97 845 72 785 q 166 943 122 906 q 269 998 210 981 q 397 1015 328 1015 q 485 1008 443 1015 q 564 983 528 1000 l 593 1042 q 614 1064 600 1057 q 643 1071 628 1071 m 253 350 l 489 831 q 397 857 454 857 q 290 819 328 857 q 253 697 253 781 l 253 350 m 543 651 l 307 174 q 397 150 340 150 q 504 188 465 150 q 543 310 543 226 l 543 651 m 358 1132 q 349 1128 353 1129 q 339 1126 344 1126 q 299 1149 315 1126 q 283 1194 283 1171 q 307 1238 283 1225 l 490 1326 q 500 1328 496 1328 q 508 1329 504 1329 q 548 1307 532 1329 q 564 1261 564 1285 q 558 1238 564 1249 q 539 1219 553 1226 l 358 1132 z "},"Õ":{"ha":794,"x_min":72,"x_max":724,"o":"m 397 -8 q 269 9 328 -8 q 166 64 210 26 q 97 162 122 101 q 72 310 72 222 l 72 697 q 97 845 72 785 q 166 943 122 906 q 269 998 210 981 q 397 1015 328 1015 q 525 998 465 1015 q 629 943 585 981 q 699 845 674 906 q 724 697 724 785 l 724 310 q 699 162 724 222 q 629 64 674 101 q 525 9 585 26 q 397 -8 465 -8 m 543 697 q 504 819 543 781 q 397 857 465 857 q 290 819 328 857 q 253 697 253 781 l 253 310 q 290 188 253 226 q 397 150 328 150 q 504 188 465 150 q 543 310 543 226 l 543 697 m 319 1194 q 281 1189 297 1194 q 252 1177 265 1183 q 228 1166 239 1171 q 206 1161 217 1161 q 183 1168 192 1161 q 169 1185 174 1175 q 162 1204 164 1194 q 160 1219 160 1214 q 174 1270 160 1251 q 207 1299 188 1289 q 247 1311 226 1308 q 279 1314 267 1314 q 333 1308 310 1314 q 380 1294 357 1301 q 426 1280 403 1286 q 476 1274 449 1274 q 515 1278 499 1274 q 544 1290 532 1283 q 567 1301 557 1296 q 589 1307 578 1307 q 611 1300 603 1307 q 625 1283 619 1293 q 633 1264 631 1274 q 635 1249 635 1254 q 621 1198 635 1217 q 588 1169 607 1179 q 548 1157 568 1160 q 517 1154 528 1154 q 457 1160 482 1154 q 410 1174 432 1167 q 367 1188 388 1182 q 319 1194 346 1194 z "},"P":{"ha":774,"x_min":83,"x_max":746,"o":"m 83 960 q 101 999 83 982 q 151 1015 119 1015 l 431 1015 q 554 999 497 1015 q 654 944 611 982 q 722 847 697 907 q 746 703 746 788 l 746 694 q 721 549 746 608 q 651 451 696 489 q 547 397 607 414 q 419 379 488 379 l 264 379 l 264 57 q 235 15 264 29 q 174 0 207 0 q 111 15 139 0 q 83 57 83 29 l 83 960 m 264 857 l 264 521 l 419 521 q 526 560 488 521 q 565 681 565 599 l 565 697 q 526 818 565 779 q 419 857 488 857 l 264 857 z "},"Q":{"ha":794,"x_min":72,"x_max":724,"o":"m 397 -151 q 357 -137 375 -151 q 339 -94 339 -122 l 339 -4 q 232 22 281 1 q 148 81 183 43 q 92 175 113 118 q 72 310 72 232 l 72 697 q 97 845 72 785 q 166 944 122 906 q 269 999 210 982 q 397 1015 328 1015 q 525 999 465 1015 q 629 944 585 982 q 699 845 674 906 q 724 697 724 785 l 724 310 q 703 176 724 232 q 647 81 683 119 q 562 22 611 43 q 454 -4 513 1 l 454 -94 q 437 -137 454 -122 q 397 -151 419 -151 m 543 697 q 504 818 543 779 q 397 857 465 857 q 290 818 328 857 q 253 697 253 779 l 253 310 q 339 161 253 189 l 339 235 q 357 277 339 264 q 397 290 375 290 q 437 277 419 290 q 454 235 454 264 l 454 161 q 519 211 496 175 q 543 310 543 247 l 543 697 z "},"R":{"ha":792,"x_min":83,"x_max":753,"o":"m 83 960 q 99 999 83 982 q 142 1015 115 1015 l 417 1015 q 544 1001 485 1015 q 649 953 604 986 q 720 864 694 919 q 746 725 746 808 q 694 538 746 606 q 564 447 642 471 l 746 110 q 751 98 750 104 q 753 88 753 92 q 742 53 753 71 q 716 23 732 36 q 680 1 700 10 q 640 -7 660 -7 q 605 4 621 -7 q 578 36 589 15 l 381 419 l 264 419 l 264 57 q 236 15 264 29 q 174 0 208 0 q 112 15 140 0 q 83 57 83 29 l 83 960 m 264 857 l 264 561 l 417 561 q 525 594 485 561 q 565 708 565 626 q 525 824 565 790 q 417 857 485 857 l 264 857 z "},"Ŕ":{"ha":792,"x_min":83,"x_max":753,"o":"m 376 1132 q 367 1128 371 1129 q 357 1126 363 1126 q 317 1149 333 1126 q 301 1194 301 1171 q 325 1238 301 1225 l 508 1326 q 518 1328 514 1328 q 526 1329 522 1329 q 566 1307 550 1329 q 582 1261 582 1285 q 576 1238 582 1249 q 557 1219 571 1226 l 376 1132 m 83 960 q 99 999 83 982 q 142 1015 115 1015 l 417 1015 q 544 1001 485 1015 q 649 953 604 986 q 720 864 694 919 q 746 725 746 808 q 694 538 746 606 q 564 447 642 471 l 746 110 q 751 98 750 104 q 753 88 753 92 q 742 53 753 71 q 716 23 732 36 q 680 1 700 10 q 640 -7 660 -7 q 605 4 621 -7 q 578 36 589 15 l 381 419 l 264 419 l 264 57 q 236 15 264 29 q 174 0 208 0 q 112 15 140 0 q 83 57 83 29 l 83 960 m 264 857 l 264 561 l 417 561 q 525 594 485 561 q 565 708 565 626 q 525 824 565 790 q 417 857 485 857 l 264 857 z "},"Ř":{"ha":792,"x_min":83,"x_max":753,"o":"m 382 1257 l 524 1349 q 540 1354 533 1354 q 569 1337 558 1354 q 579 1300 579 1319 q 550 1247 579 1265 l 407 1156 q 382 1147 392 1147 q 357 1156 369 1147 l 214 1247 q 183 1300 183 1265 q 194 1337 183 1319 q 222 1354 206 1354 q 239 1349 232 1354 l 382 1257 m 83 960 q 99 999 83 982 q 142 1015 115 1015 l 417 1015 q 544 1001 485 1015 q 649 953 604 986 q 720 864 694 919 q 746 725 746 808 q 694 538 746 606 q 564 447 642 471 l 746 110 q 751 98 750 104 q 753 88 753 92 q 742 53 753 71 q 716 23 732 36 q 680 1 700 10 q 640 -7 660 -7 q 605 4 621 -7 q 578 36 589 15 l 381 419 l 264 419 l 264 57 q 236 15 264 29 q 174 0 208 0 q 112 15 140 0 q 83 57 83 29 l 83 960 m 264 857 l 264 561 l 417 561 q 525 594 485 561 q 565 708 565 626 q 525 824 565 790 q 417 857 485 857 l 264 857 z "},"Ŗ":{"ha":792,"x_min":83,"x_max":753,"o":"m 326 -264 q 317 -268 321 -267 q 307 -269 313 -269 q 267 -247 283 -269 q 251 -201 251 -225 q 275 -160 251 -172 l 458 -71 q 476 -67 468 -67 q 516 -89 500 -67 q 532 -135 532 -111 q 526 -160 532 -149 q 507 -178 521 -171 l 326 -264 m 83 960 q 99 999 83 982 q 142 1015 115 1015 l 417 1015 q 544 1001 485 1015 q 649 953 604 986 q 720 864 694 919 q 746 725 746 808 q 694 538 746 606 q 564 447 642 471 l 746 110 q 751 98 750 104 q 753 88 753 92 q 742 53 753 71 q 716 23 732 36 q 680 1 700 10 q 640 -7 660 -7 q 605 4 621 -7 q 578 36 589 15 l 381 419 l 264 419 l 264 57 q 236 15 264 29 q 174 0 208 0 q 112 15 140 0 q 83 57 83 29 l 83 960 m 264 857 l 264 561 l 417 561 q 525 594 485 561 q 565 708 565 626 q 525 824 565 790 q 417 857 485 857 l 264 857 z "},"S":{"ha":725,"x_min":33,"x_max":685,"o":"m 349 150 q 458 179 411 150 q 504 271 504 208 q 471 355 504 322 q 388 413 438 388 q 281 463 339 439 q 174 522 224 486 q 92 610 125 557 q 58 744 58 663 q 89 875 58 822 q 167 960 119 928 q 276 1008 215 993 q 396 1022 336 1022 q 472 1018 426 1022 q 558 1001 517 1014 q 630 967 600 989 q 660 911 660 946 q 656 883 660 899 q 642 851 651 867 q 619 826 633 836 q 588 815 606 815 q 556 824 571 815 q 519 842 540 832 q 469 860 499 851 q 396 868 439 868 q 280 840 321 868 q 239 761 239 811 q 272 691 239 718 q 355 642 306 664 q 462 595 404 619 q 569 533 519 571 q 651 437 618 494 q 685 289 685 379 q 660 158 685 214 q 591 64 635 101 q 487 7 547 26 q 354 -12 426 -12 q 227 3 286 -12 q 125 43 168 18 q 58 99 82 68 q 33 160 33 129 q 40 191 33 174 q 57 223 46 208 q 82 247 68 238 q 113 257 96 257 q 153 240 133 257 q 199 203 174 224 q 260 167 225 183 q 349 150 296 150 z "},"Ś":{"ha":725,"x_min":33,"x_max":685,"o":"m 319 1132 q 310 1128 314 1129 q 300 1126 306 1126 q 260 1149 276 1126 q 244 1194 244 1171 q 268 1238 244 1225 l 451 1326 q 461 1328 457 1328 q 469 1329 465 1329 q 509 1307 493 1329 q 525 1261 525 1285 q 519 1238 525 1249 q 500 1219 514 1226 l 319 1132 m 349 150 q 458 179 411 150 q 504 271 504 208 q 471 355 504 322 q 388 413 438 388 q 281 463 339 439 q 174 522 224 486 q 92 610 125 557 q 58 744 58 663 q 89 875 58 822 q 167 960 119 928 q 276 1008 215 993 q 396 1022 336 1022 q 472 1018 426 1022 q 558 1001 517 1014 q 630 967 600 989 q 660 911 660 946 q 656 883 660 899 q 642 851 651 867 q 619 826 633 836 q 588 815 606 815 q 556 824 571 815 q 519 842 540 832 q 469 860 499 851 q 396 868 439 868 q 280 840 321 868 q 239 761 239 811 q 272 691 239 718 q 355 642 306 664 q 462 595 404 619 q 569 533 519 571 q 651 437 618 494 q 685 289 685 379 q 660 158 685 214 q 591 64 635 101 q 487 7 547 26 q 354 -12 426 -12 q 227 3 286 -12 q 125 43 168 18 q 58 99 82 68 q 33 160 33 129 q 40 191 33 174 q 57 223 46 208 q 82 247 68 238 q 113 257 96 257 q 153 240 133 257 q 199 203 174 224 q 260 167 225 183 q 349 150 296 150 z "},"Š":{"ha":725,"x_min":33,"x_max":685,"o":"m 360 1257 l 501 1349 q 518 1354 511 1354 q 547 1337 536 1354 q 557 1300 557 1319 q 528 1247 557 1265 l 385 1156 q 360 1147 369 1147 q 335 1156 347 1147 l 192 1247 q 161 1300 161 1265 q 172 1337 161 1319 q 200 1354 183 1354 q 217 1349 210 1354 l 360 1257 m 349 150 q 458 179 411 150 q 504 271 504 208 q 471 355 504 322 q 388 413 438 388 q 281 463 339 439 q 174 522 224 486 q 92 610 125 557 q 58 744 58 663 q 89 875 58 822 q 167 960 119 928 q 276 1008 215 993 q 396 1022 336 1022 q 472 1018 426 1022 q 558 1001 517 1014 q 630 967 600 989 q 660 911 660 946 q 656 883 660 899 q 642 851 651 867 q 619 826 633 836 q 588 815 606 815 q 556 824 571 815 q 519 842 540 832 q 469 860 499 851 q 396 868 439 868 q 280 840 321 868 q 239 761 239 811 q 272 691 239 718 q 355 642 306 664 q 462 595 404 619 q 569 533 519 571 q 651 437 618 494 q 685 289 685 379 q 660 158 685 214 q 591 64 635 101 q 487 7 547 26 q 354 -12 426 -12 q 227 3 286 -12 q 125 43 168 18 q 58 99 82 68 q 33 160 33 129 q 40 191 33 174 q 57 223 46 208 q 82 247 68 238 q 113 257 96 257 q 153 240 133 257 q 199 203 174 224 q 260 167 225 183 q 349 150 296 150 z "},"Ş":{"ha":725,"x_min":33,"x_max":685,"o":"m 349 150 q 458 179 411 150 q 504 271 504 208 q 471 355 504 322 q 388 413 438 388 q 281 463 339 439 q 174 522 224 486 q 92 610 125 557 q 58 744 58 663 q 89 875 58 822 q 167 960 119 928 q 276 1008 215 993 q 396 1022 336 1022 q 472 1018 426 1022 q 558 1001 517 1014 q 630 967 600 989 q 660 911 660 946 q 656 883 660 899 q 642 851 651 867 q 619 826 633 836 q 588 815 606 815 q 556 824 571 815 q 519 842 540 832 q 469 860 499 851 q 396 868 439 868 q 280 840 321 868 q 239 761 239 811 q 272 691 239 718 q 355 642 306 664 q 462 595 404 619 q 569 533 519 571 q 651 437 618 494 q 685 289 685 379 q 612 83 685 157 q 422 -7 539 8 l 403 -71 q 507 -105 474 -74 q 540 -178 540 -136 q 533 -217 540 -196 q 509 -257 526 -239 q 464 -287 492 -275 q 394 -300 436 -300 q 356 -298 376 -300 q 317 -290 335 -296 q 288 -278 300 -285 q 276 -260 276 -271 q 278 -247 276 -256 q 284 -230 281 -239 q 294 -215 288 -221 q 308 -208 300 -208 q 337 -218 319 -208 q 389 -228 354 -228 q 454 -182 454 -228 q 388 -131 454 -137 l 311 -124 l 343 -12 q 220 5 276 -11 q 122 45 164 21 q 57 100 81 69 q 33 160 33 131 q 40 191 33 174 q 57 223 46 208 q 82 247 68 238 q 113 257 96 257 q 153 240 133 257 q 199 203 174 224 q 260 167 225 183 q 349 150 296 150 z "},"Ŝ":{"ha":725,"x_min":33,"x_max":685,"o":"m 215 1142 q 200 1138 207 1138 q 172 1154 183 1138 q 161 1193 161 1171 q 168 1222 161 1208 q 192 1244 175 1236 l 336 1322 q 360 1329 347 1329 q 383 1322 369 1329 l 528 1246 q 550 1222 543 1236 q 557 1192 557 1207 q 546 1154 557 1171 q 518 1138 535 1138 q 504 1142 510 1138 l 360 1219 l 215 1142 m 349 150 q 458 179 411 150 q 504 271 504 208 q 471 355 504 322 q 388 413 438 388 q 281 463 339 439 q 174 522 224 486 q 92 610 125 557 q 58 744 58 663 q 89 875 58 822 q 167 960 119 928 q 276 1008 215 993 q 396 1022 336 1022 q 472 1018 426 1022 q 558 1001 517 1014 q 630 967 600 989 q 660 911 660 946 q 656 883 660 899 q 642 851 651 867 q 619 826 633 836 q 588 815 606 815 q 556 824 571 815 q 519 842 540 832 q 469 860 499 851 q 396 868 439 868 q 280 840 321 868 q 239 761 239 811 q 272 691 239 718 q 355 642 306 664 q 462 595 404 619 q 569 533 519 571 q 651 437 618 494 q 685 289 685 379 q 660 158 685 214 q 591 64 635 101 q 487 7 547 26 q 354 -12 426 -12 q 227 3 286 -12 q 125 43 168 18 q 58 99 82 68 q 33 160 33 129 q 40 191 33 174 q 57 223 46 208 q 82 247 68 238 q 113 257 96 257 q 153 240 133 257 q 199 203 174 224 q 260 167 225 183 q 349 150 296 150 z "},"Ș":{"ha":725,"x_min":33,"x_max":685,"o":"m 310 -264 q 300 -268 304 -267 q 290 -269 296 -269 q 251 -247 267 -269 q 235 -201 235 -225 q 258 -160 235 -172 l 442 -71 q 460 -67 451 -67 q 499 -89 483 -67 q 515 -135 515 -111 q 510 -160 515 -149 q 490 -178 504 -171 l 310 -264 m 349 150 q 458 179 411 150 q 504 271 504 208 q 471 355 504 322 q 388 413 438 388 q 281 463 339 439 q 174 522 224 486 q 92 610 125 557 q 58 744 58 663 q 89 875 58 822 q 167 960 119 928 q 276 1008 215 993 q 396 1022 336 1022 q 472 1018 426 1022 q 558 1001 517 1014 q 630 967 600 989 q 660 911 660 946 q 656 883 660 899 q 642 851 651 867 q 619 826 633 836 q 588 815 606 815 q 556 824 571 815 q 519 842 540 832 q 469 860 499 851 q 396 868 439 868 q 280 840 321 868 q 239 761 239 811 q 272 691 239 718 q 355 642 306 664 q 462 595 404 619 q 569 533 519 571 q 651 437 618 494 q 685 289 685 379 q 660 158 685 214 q 591 64 635 101 q 487 7 547 26 q 354 -12 426 -12 q 227 3 286 -12 q 125 43 168 18 q 58 99 82 68 q 33 160 33 129 q 40 191 33 174 q 57 223 46 208 q 82 247 68 238 q 113 257 96 257 q 153 240 133 257 q 199 203 174 224 q 260 167 225 183 q 349 150 296 150 z "},"T":{"ha":733,"x_min":17,"x_max":718,"o":"m 661 1015 q 704 990 690 1015 q 718 935 718 964 q 703 878 718 903 q 661 853 689 853 l 458 853 l 458 57 q 430 15 458 29 q 368 0 401 0 q 306 15 333 0 q 278 57 278 29 l 278 853 l 74 853 q 31 877 46 853 q 17 935 17 901 q 31 990 17 964 q 74 1015 44 1015 l 661 1015 z "},"Ŧ":{"ha":733,"x_min":17,"x_max":718,"o":"m 661 1015 q 704 990 690 1015 q 718 935 718 964 q 703 878 718 903 q 661 853 689 853 l 458 853 l 458 572 l 575 572 q 610 551 599 572 q 622 507 622 531 q 610 462 622 482 q 575 442 599 442 l 458 442 l 458 57 q 430 15 458 29 q 368 0 401 0 q 306 15 333 0 q 278 57 278 29 l 278 442 l 158 442 q 124 462 135 442 q 113 507 113 482 q 124 551 113 531 q 158 572 135 572 l 278 572 l 278 853 l 74 853 q 31 877 46 853 q 17 935 17 901 q 31 990 17 964 q 74 1015 44 1015 l 661 1015 z "},"Ť":{"ha":733,"x_min":17,"x_max":718,"o":"m 367 1257 l 508 1349 q 525 1354 518 1354 q 553 1337 543 1354 q 564 1300 564 1319 q 535 1247 564 1265 l 392 1156 q 367 1147 376 1147 q 342 1156 354 1147 l 199 1247 q 168 1300 168 1265 q 179 1337 168 1319 q 207 1354 190 1354 q 224 1349 217 1354 l 367 1257 m 661 1015 q 704 990 690 1015 q 718 935 718 964 q 703 878 718 903 q 661 853 689 853 l 458 853 l 458 57 q 430 15 458 29 q 368 0 401 0 q 306 15 333 0 q 278 57 278 29 l 278 853 l 74 853 q 31 877 46 853 q 17 935 17 901 q 31 990 17 964 q 74 1015 44 1015 l 661 1015 z "},"Ţ":{"ha":733,"x_min":17,"x_max":718,"o":"m 299 -264 q 289 -268 293 -267 q 279 -269 285 -269 q 240 -247 256 -269 q 224 -201 224 -225 q 247 -160 224 -172 l 431 -71 q 449 -67 440 -67 q 488 -89 472 -67 q 504 -135 504 -111 q 499 -160 504 -149 q 479 -178 493 -171 l 299 -264 m 661 1015 q 704 990 690 1015 q 718 935 718 964 q 703 878 718 903 q 661 853 689 853 l 458 853 l 458 57 q 430 15 458 29 q 368 0 401 0 q 306 15 333 0 q 278 57 278 29 l 278 853 l 74 853 q 31 877 46 853 q 17 935 17 901 q 31 990 17 964 q 74 1015 44 1015 l 661 1015 z "},"Þ":{"ha":722,"x_min":85,"x_max":689,"o":"m 169 1033 q 237 1018 210 1033 q 264 978 264 1003 l 264 758 q 332 831 286 799 q 443 864 378 864 q 538 843 493 864 q 617 785 583 822 q 669 699 650 749 q 689 592 689 650 l 689 458 q 669 351 689 401 q 615 264 649 301 q 539 205 582 226 q 450 183 496 183 q 389 192 418 183 q 335 217 360 201 q 292 251 310 232 q 264 293 274 271 l 264 57 q 237 18 264 36 q 172 0 210 0 q 109 18 133 0 q 85 57 85 36 l 85 978 q 109 1018 85 1003 q 169 1033 133 1033 m 510 592 q 500 636 510 615 q 473 673 490 657 q 433 698 456 689 q 386 707 411 707 q 340 699 363 707 q 301 676 318 690 q 274 640 285 661 q 264 592 264 618 l 264 443 q 273 413 264 431 q 299 378 282 394 q 338 351 315 363 q 389 340 361 340 q 434 349 413 340 q 472 374 456 358 q 499 412 489 390 q 510 458 510 433 l 510 592 z "},"U":{"ha":825,"x_min":79,"x_max":746,"o":"m 565 960 q 593 1002 565 989 q 656 1015 621 1015 q 717 1002 689 1015 q 746 960 746 989 l 746 310 q 720 162 746 222 q 649 64 694 101 q 543 9 604 26 q 413 -8 482 -8 q 281 9 342 -8 q 176 64 221 26 q 105 162 131 101 q 79 310 79 222 l 79 960 q 107 1002 79 989 q 169 1015 135 1015 q 231 1002 203 1015 q 260 960 260 989 l 260 310 q 300 189 260 228 q 413 150 340 150 q 525 189 485 150 q 565 310 565 228 l 565 960 z "},"Ú":{"ha":825,"x_min":79,"x_max":746,"o":"m 378 1132 q 368 1128 372 1129 q 358 1126 364 1126 q 319 1149 335 1126 q 303 1194 303 1171 q 326 1238 303 1225 l 510 1326 q 519 1328 515 1328 q 528 1329 524 1329 q 567 1307 551 1329 q 583 1261 583 1285 q 578 1238 583 1249 q 558 1219 572 1226 l 378 1132 m 565 960 q 593 1002 565 989 q 656 1015 621 1015 q 717 1002 689 1015 q 746 960 746 989 l 746 310 q 720 162 746 222 q 649 64 694 101 q 543 9 604 26 q 413 -8 482 -8 q 281 9 342 -8 q 176 64 221 26 q 105 162 131 101 q 79 310 79 222 l 79 960 q 107 1002 79 989 q 169 1015 135 1015 q 231 1002 203 1015 q 260 960 260 989 l 260 310 q 300 189 260 228 q 413 150 340 150 q 525 189 485 150 q 565 310 565 228 l 565 960 z "},"Ŭ":{"ha":825,"x_min":79,"x_max":746,"o":"m 565 960 q 593 1002 565 989 q 656 1015 621 1015 q 717 1002 689 1015 q 746 960 746 989 l 746 310 q 720 162 746 222 q 649 64 694 101 q 543 9 604 26 q 413 -8 482 -8 q 281 9 342 -8 q 176 64 221 26 q 105 162 131 101 q 79 310 79 222 l 79 960 q 107 1002 79 989 q 169 1015 135 1015 q 231 1002 203 1015 q 260 960 260 989 l 260 310 q 300 189 260 228 q 413 150 340 150 q 525 189 485 150 q 565 310 565 228 l 565 960 m 593 1339 q 578 1268 593 1301 q 536 1210 563 1235 q 476 1169 510 1185 q 408 1154 443 1154 q 339 1169 372 1154 q 280 1210 306 1185 q 239 1268 254 1235 q 224 1339 224 1301 l 321 1339 q 348 1264 321 1293 q 408 1235 375 1235 q 468 1264 440 1235 q 496 1339 496 1293 l 593 1339 z "},"Û":{"ha":825,"x_min":79,"x_max":746,"o":"m 261 1142 q 246 1138 253 1138 q 218 1154 229 1138 q 207 1193 207 1171 q 214 1222 207 1208 q 238 1244 221 1236 l 382 1322 q 406 1329 393 1329 q 429 1322 415 1329 l 574 1246 q 596 1222 589 1236 q 603 1192 603 1207 q 592 1154 603 1171 q 564 1138 581 1138 q 550 1142 556 1138 l 406 1219 l 261 1142 m 565 960 q 593 1002 565 989 q 656 1015 621 1015 q 717 1002 689 1015 q 746 960 746 989 l 746 310 q 720 162 746 222 q 649 64 694 101 q 543 9 604 26 q 413 -8 482 -8 q 281 9 342 -8 q 176 64 221 26 q 105 162 131 101 q 79 310 79 222 l 79 960 q 107 1002 79 989 q 169 1015 135 1015 q 231 1002 203 1015 q 260 960 260 989 l 260 310 q 300 189 260 228 q 413 150 340 150 q 525 189 485 150 q 565 310 565 228 l 565 960 z "},"Ü":{"ha":825,"x_min":79,"x_max":746,"o":"m 308 1285 q 358 1263 338 1285 q 378 1213 378 1242 q 358 1161 378 1183 q 308 1139 338 1139 q 258 1161 279 1139 q 238 1213 238 1183 q 258 1263 238 1242 q 308 1285 279 1285 m 517 1285 q 565 1263 544 1285 q 586 1213 586 1242 q 565 1161 586 1183 q 517 1139 544 1139 q 465 1161 486 1139 q 444 1213 444 1183 q 465 1263 444 1242 q 517 1285 486 1285 m 565 960 q 593 1002 565 989 q 656 1015 621 1015 q 717 1002 689 1015 q 746 960 746 989 l 746 310 q 720 162 746 222 q 649 64 694 101 q 543 9 604 26 q 413 -8 482 -8 q 281 9 342 -8 q 176 64 221 26 q 105 162 131 101 q 79 310 79 222 l 79 960 q 107 1002 79 989 q 169 1015 135 1015 q 231 1002 203 1015 q 260 960 260 989 l 260 310 q 300 189 260 228 q 413 150 340 150 q 525 189 485 150 q 565 310 565 228 l 565 960 z "},"Ù":{"ha":825,"x_min":79,"x_max":746,"o":"m 565 960 q 593 1002 565 989 q 656 1015 621 1015 q 717 1002 689 1015 q 746 960 746 989 l 746 310 q 720 162 746 222 q 649 64 694 101 q 543 9 604 26 q 413 -8 482 -8 q 281 9 342 -8 q 176 64 221 26 q 105 162 131 101 q 79 310 79 222 l 79 960 q 107 1002 79 989 q 169 1015 135 1015 q 231 1002 203 1015 q 260 960 260 989 l 260 310 q 300 189 260 228 q 413 150 340 150 q 525 189 485 150 q 565 310 565 228 l 565 960 m 274 1219 q 254 1238 260 1226 q 249 1261 249 1249 q 265 1307 249 1285 q 304 1329 281 1329 q 313 1328 308 1329 q 322 1326 317 1328 l 506 1238 q 529 1194 529 1225 q 513 1149 529 1171 q 474 1126 497 1126 q 464 1128 468 1126 q 454 1132 460 1129 l 274 1219 z "},"Ű":{"ha":825,"x_min":79,"x_max":746,"o":"m 565 960 q 593 1002 565 989 q 656 1015 621 1015 q 717 1002 689 1015 q 746 960 746 989 l 746 310 q 720 162 746 222 q 649 64 694 101 q 543 9 604 26 q 413 -8 482 -8 q 281 9 342 -8 q 176 64 221 26 q 105 162 131 101 q 79 310 79 222 l 79 960 q 107 1002 79 989 q 169 1015 135 1015 q 231 1002 203 1015 q 260 960 260 989 l 260 310 q 300 189 260 228 q 413 150 340 150 q 525 189 485 150 q 565 310 565 228 l 565 960 m 321 1136 q 294 1124 310 1124 q 256 1140 274 1124 q 239 1176 239 1157 q 249 1199 239 1189 l 365 1321 q 392 1332 375 1332 q 428 1315 411 1332 q 444 1279 444 1297 q 435 1256 444 1265 l 321 1136 m 539 1136 q 513 1124 528 1124 q 474 1140 492 1124 q 457 1176 457 1157 q 467 1199 457 1189 l 583 1321 q 610 1332 594 1332 q 646 1315 629 1332 q 663 1279 663 1297 q 653 1256 663 1265 l 539 1136 z "},"Ū":{"ha":825,"x_min":79,"x_max":746,"o":"m 565 960 q 593 1002 565 989 q 656 1015 621 1015 q 717 1002 689 1015 q 746 960 746 989 l 746 310 q 720 162 746 222 q 649 64 694 101 q 543 9 604 26 q 413 -8 482 -8 q 281 9 342 -8 q 176 64 221 26 q 105 162 131 101 q 79 310 79 222 l 79 960 q 107 1002 79 989 q 169 1015 135 1015 q 231 1002 203 1015 q 260 960 260 989 l 260 310 q 300 189 260 228 q 413 150 340 150 q 525 189 485 150 q 565 310 565 228 l 565 960 m 211 1243 q 226 1285 211 1268 q 267 1303 242 1303 l 551 1303 q 591 1285 574 1303 q 608 1243 608 1268 q 591 1201 608 1217 q 551 1185 574 1185 l 267 1185 q 226 1201 242 1185 q 211 1243 211 1217 z "},"Ų":{"ha":825,"x_min":79,"x_max":746,"o":"m 565 960 q 593 1002 565 989 q 656 1015 621 1015 q 717 1002 689 1015 q 746 960 746 989 l 746 310 q 690 108 746 181 q 547 10 635 36 q 470 -65 501 -19 q 439 -154 439 -110 q 458 -202 439 -185 q 522 -219 478 -219 q 547 -233 540 -219 q 554 -260 554 -246 q 547 -285 554 -275 q 514 -296 539 -296 q 392 -261 433 -296 q 351 -171 351 -226 q 371 -86 351 -128 q 425 -8 390 -44 l 413 -8 q 281 9 342 -8 q 176 64 221 26 q 105 162 131 101 q 79 310 79 222 l 79 960 q 107 1002 79 989 q 169 1015 135 1015 q 231 1002 203 1015 q 260 960 260 989 l 260 310 q 300 189 260 228 q 413 150 340 150 q 525 189 485 150 q 565 310 565 228 l 565 960 z "},"Ů":{"ha":825,"x_min":79,"x_max":746,"o":"m 410 1406 q 463 1394 438 1406 q 506 1364 488 1383 q 536 1319 525 1344 q 547 1268 547 1294 q 536 1215 547 1240 q 506 1171 525 1190 q 461 1140 486 1151 q 410 1128 436 1128 q 358 1140 382 1128 q 315 1171 333 1151 q 286 1215 297 1190 q 275 1268 275 1240 q 285 1319 275 1294 q 314 1363 296 1344 q 357 1394 332 1382 q 410 1406 382 1406 m 472 1267 q 455 1310 472 1290 q 411 1329 438 1329 q 365 1310 383 1329 q 346 1267 346 1290 q 365 1222 346 1243 q 411 1200 383 1200 q 455 1221 438 1200 q 472 1267 472 1242 m 565 960 q 593 1002 565 989 q 656 1015 621 1015 q 717 1002 689 1015 q 746 960 746 989 l 746 310 q 720 162 746 222 q 649 64 694 101 q 543 9 604 26 q 413 -8 482 -8 q 281 9 342 -8 q 176 64 221 26 q 105 162 131 101 q 79 310 79 222 l 79 960 q 107 1002 79 989 q 169 1015 135 1015 q 231 1002 203 1015 q 260 960 260 989 l 260 310 q 300 189 260 228 q 413 150 340 150 q 525 189 485 150 q 565 310 565 228 l 565 960 z "},"Ũ":{"ha":825,"x_min":79,"x_max":746,"o":"m 565 960 q 593 1002 565 989 q 656 1015 621 1015 q 717 1002 689 1015 q 746 960 746 989 l 746 310 q 720 162 746 222 q 649 64 694 101 q 543 9 604 26 q 413 -8 482 -8 q 281 9 342 -8 q 176 64 221 26 q 105 162 131 101 q 79 310 79 222 l 79 960 q 107 1002 79 989 q 169 1015 135 1015 q 231 1002 203 1015 q 260 960 260 989 l 260 310 q 300 189 260 228 q 413 150 340 150 q 525 189 485 150 q 565 310 565 228 l 565 960 m 328 1194 q 290 1189 306 1194 q 260 1177 274 1183 q 236 1166 247 1171 q 214 1161 225 1161 q 191 1168 200 1161 q 177 1185 182 1175 q 170 1204 172 1194 q 168 1219 168 1214 q 182 1270 168 1251 q 215 1299 196 1289 q 255 1311 235 1308 q 288 1314 275 1314 q 342 1308 318 1314 q 388 1294 365 1301 q 434 1280 411 1286 q 485 1274 457 1274 q 524 1278 507 1274 q 553 1290 540 1283 q 576 1301 565 1296 q 597 1307 586 1307 q 619 1300 611 1307 q 633 1283 628 1293 q 641 1264 639 1274 q 643 1249 643 1254 q 629 1198 643 1217 q 596 1169 615 1179 q 556 1157 576 1160 q 525 1154 536 1154 q 465 1160 490 1154 q 418 1174 440 1167 q 375 1188 396 1182 q 328 1194 354 1194 z "},"V":{"ha":799,"x_min":13,"x_max":786,"o":"m 15 926 q 13 940 13 938 q 24 971 13 957 q 51 994 35 985 q 88 1010 68 1004 q 126 1015 108 1015 q 166 1007 150 1015 q 188 979 182 999 l 400 226 l 611 979 q 633 1007 617 999 q 672 1015 649 1015 q 710 1010 690 1015 q 747 994 731 1004 q 775 970 764 983 q 786 940 786 957 q 783 926 786 938 l 517 53 q 474 6 507 21 q 400 -8 440 -8 q 327 6 360 -8 q 283 53 294 21 l 15 926 z "},"W":{"ha":1226,"x_min":13,"x_max":1214,"o":"m 936 53 q 892 6 925 21 q 818 -8 858 -8 q 744 6 779 -8 q 703 53 710 21 l 614 428 l 524 53 q 482 6 517 21 q 408 -8 447 -8 q 334 6 368 -8 q 290 53 300 21 l 15 926 q 13 943 13 935 q 24 972 13 958 q 51 994 35 985 q 88 1010 68 1004 q 128 1015 108 1015 q 165 1007 149 1015 q 188 979 182 999 l 407 226 l 525 710 q 558 748 532 736 q 614 760 583 760 q 669 748 643 760 q 701 710 694 736 l 819 226 l 1039 979 q 1061 1007 1044 999 q 1099 1015 1078 1015 q 1138 1010 1118 1015 q 1175 994 1158 1004 q 1203 972 1192 985 q 1214 943 1214 958 q 1211 926 1214 935 l 936 53 z "},"Ẃ":{"ha":1226,"x_min":13,"x_max":1214,"o":"m 571 1132 q 561 1128 565 1129 q 551 1126 557 1126 q 512 1149 528 1126 q 496 1194 496 1171 q 519 1238 496 1225 l 703 1326 q 713 1328 708 1328 q 721 1329 717 1329 q 760 1307 744 1329 q 776 1261 776 1285 q 771 1238 776 1249 q 751 1219 765 1226 l 571 1132 m 936 53 q 892 6 925 21 q 818 -8 858 -8 q 744 6 779 -8 q 703 53 710 21 l 614 428 l 524 53 q 482 6 517 21 q 408 -8 447 -8 q 334 6 368 -8 q 290 53 300 21 l 15 926 q 13 943 13 935 q 24 972 13 958 q 51 994 35 985 q 88 1010 68 1004 q 128 1015 108 1015 q 165 1007 149 1015 q 188 979 182 999 l 407 226 l 525 710 q 558 748 532 736 q 614 760 583 760 q 669 748 643 760 q 701 710 694 736 l 819 226 l 1039 979 q 1061 1007 1044 999 q 1099 1015 1078 1015 q 1138 1010 1118 1015 q 1175 994 1158 1004 q 1203 972 1192 985 q 1214 943 1214 958 q 1211 926 1214 935 l 936 53 z "},"Ŵ":{"ha":1226,"x_min":13,"x_max":1214,"o":"m 469 1142 q 454 1138 461 1138 q 426 1154 438 1138 q 415 1193 415 1171 q 422 1222 415 1208 q 446 1244 429 1236 l 590 1322 q 614 1329 601 1329 q 638 1322 624 1329 l 782 1246 q 804 1222 797 1236 q 811 1192 811 1207 q 800 1154 811 1171 q 772 1138 789 1138 q 758 1142 764 1138 l 614 1219 l 469 1142 m 936 53 q 892 6 925 21 q 818 -8 858 -8 q 744 6 779 -8 q 703 53 710 21 l 614 428 l 524 53 q 482 6 517 21 q 408 -8 447 -8 q 334 6 368 -8 q 290 53 300 21 l 15 926 q 13 943 13 935 q 24 972 13 958 q 51 994 35 985 q 88 1010 68 1004 q 128 1015 108 1015 q 165 1007 149 1015 q 188 979 182 999 l 407 226 l 525 710 q 558 748 532 736 q 614 760 583 760 q 669 748 643 760 q 701 710 694 736 l 819 226 l 1039 979 q 1061 1007 1044 999 q 1099 1015 1078 1015 q 1138 1010 1118 1015 q 1175 994 1158 1004 q 1203 972 1192 985 q 1214 943 1214 958 q 1211 926 1214 935 l 936 53 z "},"Ẅ":{"ha":1226,"x_min":13,"x_max":1214,"o":"m 510 1285 q 559 1263 539 1285 q 579 1213 579 1242 q 559 1161 579 1183 q 510 1139 539 1139 q 460 1161 481 1139 q 439 1213 439 1183 q 460 1263 439 1242 q 510 1285 481 1285 m 718 1285 q 767 1263 746 1285 q 788 1213 788 1242 q 767 1161 788 1183 q 718 1139 746 1139 q 667 1161 688 1139 q 646 1213 646 1183 q 667 1263 646 1242 q 718 1285 688 1285 m 936 53 q 892 6 925 21 q 818 -8 858 -8 q 744 6 779 -8 q 703 53 710 21 l 614 428 l 524 53 q 482 6 517 21 q 408 -8 447 -8 q 334 6 368 -8 q 290 53 300 21 l 15 926 q 13 943 13 935 q 24 972 13 958 q 51 994 35 985 q 88 1010 68 1004 q 128 1015 108 1015 q 165 1007 149 1015 q 188 979 182 999 l 407 226 l 525 710 q 558 748 532 736 q 614 760 583 760 q 669 748 643 760 q 701 710 694 736 l 819 226 l 1039 979 q 1061 1007 1044 999 q 1099 1015 1078 1015 q 1138 1010 1118 1015 q 1175 994 1158 1004 q 1203 972 1192 985 q 1214 943 1214 958 q 1211 926 1214 935 l 936 53 z "},"Ẁ":{"ha":1226,"x_min":13,"x_max":1214,"o":"m 936 53 q 892 6 925 21 q 818 -8 858 -8 q 744 6 779 -8 q 703 53 710 21 l 614 428 l 524 53 q 482 6 517 21 q 408 -8 447 -8 q 334 6 368 -8 q 290 53 300 21 l 15 926 q 13 943 13 935 q 24 972 13 958 q 51 994 35 985 q 88 1010 68 1004 q 128 1015 108 1015 q 165 1007 149 1015 q 188 979 182 999 l 407 226 l 525 710 q 558 748 532 736 q 614 760 583 760 q 669 748 643 760 q 701 710 694 736 l 819 226 l 1039 979 q 1061 1007 1044 999 q 1099 1015 1078 1015 q 1138 1010 1118 1015 q 1175 994 1158 1004 q 1203 972 1192 985 q 1214 943 1214 958 q 1211 926 1214 935 l 936 53 m 476 1219 q 457 1238 463 1226 q 451 1261 451 1249 q 467 1307 451 1285 q 507 1329 483 1329 q 515 1328 511 1329 q 525 1326 519 1328 l 708 1238 q 732 1194 732 1225 q 716 1149 732 1171 q 676 1126 700 1126 q 667 1128 671 1126 q 657 1132 663 1129 l 476 1219 z "},"X":{"ha":779,"x_min":18,"x_max":760,"o":"m 389 379 l 186 22 q 166 1 179 10 q 136 -7 153 -7 q 97 0 118 -7 q 59 19 76 7 q 30 48 42 32 q 18 83 18 64 q 29 117 18 97 l 269 508 l 38 899 q 25 938 25 919 q 36 971 25 956 q 64 998 47 986 q 101 1016 81 1010 q 140 1022 121 1022 q 176 1012 161 1022 q 200 983 190 1001 l 389 643 l 578 983 q 603 1012 589 1001 q 639 1022 617 1022 q 678 1016 658 1022 q 715 998 699 1010 q 743 971 732 986 q 754 938 754 956 q 742 899 754 919 l 510 508 l 750 117 q 760 83 760 99 q 749 48 760 64 q 719 19 738 32 q 681 0 701 7 q 642 -7 660 -7 q 613 1 625 -7 q 593 22 600 10 l 389 379 z "},"Y":{"ha":797,"x_min":13,"x_max":785,"o":"m 308 407 q 304 425 308 418 l 17 922 q 13 940 13 932 q 24 971 13 957 q 54 994 36 985 q 93 1010 72 1004 q 132 1015 114 1015 q 166 1007 154 1015 q 188 979 178 999 l 399 578 l 611 979 q 632 1006 621 997 q 665 1015 643 1015 q 704 1010 683 1015 q 743 994 725 1004 q 773 971 761 985 q 785 940 785 957 q 784 933 785 938 q 781 922 783 928 l 494 425 q 489 407 489 417 l 489 57 q 461 15 489 29 q 399 0 433 0 q 337 15 365 0 q 308 57 308 29 l 308 407 z "},"Ý":{"ha":797,"x_min":13,"x_max":785,"o":"m 308 407 q 304 425 308 418 l 17 922 q 13 940 13 932 q 24 971 13 957 q 54 994 36 985 q 93 1010 72 1004 q 132 1015 114 1015 q 166 1007 154 1015 q 188 979 178 999 l 399 578 l 611 979 q 632 1006 621 997 q 665 1015 643 1015 q 704 1010 683 1015 q 743 994 725 1004 q 773 971 761 985 q 785 940 785 957 q 784 933 785 938 q 781 922 783 928 l 494 425 q 489 407 489 417 l 489 57 q 461 15 489 29 q 399 0 433 0 q 337 15 365 0 q 308 57 308 29 l 308 407 m 356 1132 q 346 1128 350 1129 q 336 1126 342 1126 q 297 1149 313 1126 q 281 1194 281 1171 q 304 1238 281 1225 l 488 1326 q 497 1328 493 1328 q 506 1329 501 1329 q 545 1307 529 1329 q 561 1261 561 1285 q 556 1238 561 1249 q 536 1219 550 1226 l 356 1132 z "},"Ŷ":{"ha":797,"x_min":13,"x_max":785,"o":"m 308 407 q 304 425 308 418 l 17 922 q 13 940 13 932 q 24 971 13 957 q 54 994 36 985 q 93 1010 72 1004 q 132 1015 114 1015 q 166 1007 154 1015 q 188 979 178 999 l 399 578 l 611 979 q 632 1006 621 997 q 665 1015 643 1015 q 704 1010 683 1015 q 743 994 725 1004 q 773 971 761 985 q 785 940 785 957 q 784 933 785 938 q 781 922 783 928 l 494 425 q 489 407 489 417 l 489 57 q 461 15 489 29 q 399 0 433 0 q 337 15 365 0 q 308 57 308 29 l 308 407 m 256 1142 q 240 1138 247 1138 q 213 1154 224 1138 q 201 1193 201 1171 q 208 1222 201 1208 q 232 1244 215 1236 l 376 1322 q 400 1329 388 1329 q 424 1322 410 1329 l 568 1246 q 590 1222 583 1236 q 597 1192 597 1207 q 586 1154 597 1171 q 558 1138 575 1138 q 544 1142 550 1138 l 400 1219 l 256 1142 z "},"Ÿ":{"ha":797,"x_min":13,"x_max":785,"o":"m 308 407 q 304 425 308 418 l 17 922 q 13 940 13 932 q 24 971 13 957 q 54 994 36 985 q 93 1010 72 1004 q 132 1015 114 1015 q 166 1007 154 1015 q 188 979 178 999 l 399 578 l 611 979 q 632 1006 621 997 q 665 1015 643 1015 q 704 1010 683 1015 q 743 994 725 1004 q 773 971 761 985 q 785 940 785 957 q 784 933 785 938 q 781 922 783 928 l 494 425 q 489 407 489 417 l 489 57 q 461 15 489 29 q 399 0 433 0 q 337 15 365 0 q 308 57 308 29 l 308 407 m 296 1285 q 345 1263 325 1285 q 365 1213 365 1242 q 345 1161 365 1183 q 296 1139 325 1139 q 246 1161 267 1139 q 225 1213 225 1183 q 246 1263 225 1242 q 296 1285 267 1285 m 504 1285 q 553 1263 532 1285 q 574 1213 574 1242 q 553 1161 574 1183 q 504 1139 532 1139 q 453 1161 474 1139 q 432 1213 432 1183 q 453 1263 432 1242 q 504 1285 474 1285 z "},"Ỳ":{"ha":797,"x_min":13,"x_max":785,"o":"m 308 407 q 304 425 308 418 l 17 922 q 13 940 13 932 q 24 971 13 957 q 54 994 36 985 q 93 1010 72 1004 q 132 1015 114 1015 q 166 1007 154 1015 q 188 979 178 999 l 399 578 l 611 979 q 632 1006 621 997 q 665 1015 643 1015 q 704 1010 683 1015 q 743 994 725 1004 q 773 971 761 985 q 785 940 785 957 q 784 933 785 938 q 781 922 783 928 l 494 425 q 489 407 489 417 l 489 57 q 461 15 489 29 q 399 0 433 0 q 337 15 365 0 q 308 57 308 29 l 308 407 m 261 1219 q 242 1238 247 1226 q 236 1261 236 1249 q 252 1307 236 1285 q 292 1329 268 1329 q 300 1328 296 1329 q 310 1326 304 1328 l 493 1238 q 517 1194 517 1225 q 501 1149 517 1171 q 461 1126 485 1126 q 451 1128 456 1126 q 442 1132 447 1129 l 261 1219 z "},"Z":{"ha":725,"x_min":19,"x_max":707,"o":"m 250 158 l 650 158 q 692 133 678 158 q 707 79 707 107 q 692 26 707 51 q 650 0 678 0 l 74 0 q 33 14 46 0 q 19 50 19 28 q 39 113 19 81 l 451 857 l 100 857 q 58 881 72 857 q 44 936 44 904 q 58 990 44 965 q 100 1015 71 1015 l 628 1015 q 669 1001 656 1015 q 682 967 682 988 q 661 901 682 936 l 250 158 z "},"Ź":{"ha":725,"x_min":19,"x_max":707,"o":"m 331 1132 q 321 1128 325 1129 q 311 1126 317 1126 q 272 1149 288 1126 q 256 1194 256 1171 q 279 1238 256 1225 l 463 1326 q 472 1328 468 1328 q 481 1329 476 1329 q 520 1307 504 1329 q 536 1261 536 1285 q 531 1238 536 1249 q 511 1219 525 1226 l 331 1132 m 250 158 l 650 158 q 692 133 678 158 q 707 79 707 107 q 692 26 707 51 q 650 0 678 0 l 74 0 q 33 14 46 0 q 19 50 19 28 q 39 113 19 81 l 451 857 l 100 857 q 58 881 72 857 q 44 936 44 904 q 58 990 44 965 q 100 1015 71 1015 l 628 1015 q 669 1001 656 1015 q 682 967 682 988 q 661 901 682 936 l 250 158 z "},"Ž":{"ha":725,"x_min":19,"x_max":707,"o":"m 367 1257 l 508 1349 q 525 1354 518 1354 q 553 1337 543 1354 q 564 1300 564 1319 q 535 1247 564 1265 l 392 1156 q 367 1147 376 1147 q 342 1156 354 1147 l 199 1247 q 168 1300 168 1265 q 179 1337 168 1319 q 207 1354 190 1354 q 224 1349 217 1354 l 367 1257 m 250 158 l 650 158 q 692 133 678 158 q 707 79 707 107 q 692 26 707 51 q 650 0 678 0 l 74 0 q 33 14 46 0 q 19 50 19 28 q 39 113 19 81 l 451 857 l 100 857 q 58 881 72 857 q 44 936 44 904 q 58 990 44 965 q 100 1015 71 1015 l 628 1015 q 669 1001 656 1015 q 682 967 682 988 q 661 901 682 936 l 250 158 z "},"Ż":{"ha":725,"x_min":19,"x_max":707,"o":"m 250 158 l 650 158 q 692 133 678 158 q 707 79 707 107 q 692 26 707 51 q 650 0 678 0 l 74 0 q 33 14 46 0 q 19 50 19 28 q 39 113 19 81 l 451 857 l 100 857 q 58 881 72 857 q 44 936 44 904 q 58 990 44 965 q 100 1015 71 1015 l 628 1015 q 669 1001 656 1015 q 682 967 682 988 q 661 901 682 936 l 250 158 m 376 1285 q 426 1263 406 1285 q 446 1213 446 1242 q 426 1161 446 1183 q 376 1139 406 1139 q 326 1161 347 1139 q 306 1213 306 1183 q 326 1263 306 1242 q 376 1285 347 1285 z "},"a":{"ha":654,"x_min":31,"x_max":590,"o":"m 292 668 q 429 645 372 668 q 522 585 486 622 q 574 499 558 547 q 590 397 590 450 l 590 57 q 565 17 590 33 q 503 0 540 0 q 445 17 468 0 q 422 57 422 33 l 422 97 q 334 21 385 54 q 211 -12 283 -12 q 141 -1 174 -12 q 84 33 108 10 q 45 90 60 56 q 31 172 31 125 q 54 272 31 232 q 120 334 78 311 q 222 367 163 357 q 354 376 282 376 l 411 376 l 411 394 q 405 440 411 417 q 384 481 399 463 q 347 510 369 499 q 289 522 324 522 q 224 515 249 522 q 182 501 199 508 q 154 486 165 493 q 131 479 143 479 q 85 508 100 479 q 69 568 69 538 q 90 608 69 589 q 144 640 111 626 q 215 660 176 653 q 292 668 254 668 m 411 283 l 390 283 q 323 281 356 283 q 265 269 290 278 q 225 242 240 260 q 210 196 210 225 q 231 139 210 157 q 283 121 251 121 q 327 132 304 121 q 369 162 350 143 q 399 205 388 181 q 411 254 411 229 l 411 283 z "},"á":{"ha":654,"x_min":31,"x_max":590,"o":"m 292 668 q 429 645 372 668 q 522 585 486 622 q 574 499 558 547 q 590 397 590 450 l 590 57 q 565 17 590 33 q 503 0 540 0 q 445 17 468 0 q 422 57 422 33 l 422 97 q 334 21 385 54 q 211 -12 283 -12 q 141 -1 174 -12 q 84 33 108 10 q 45 90 60 56 q 31 172 31 125 q 54 272 31 232 q 120 334 78 311 q 222 367 163 357 q 354 376 282 376 l 411 376 l 411 394 q 405 440 411 417 q 384 481 399 463 q 347 510 369 499 q 289 522 324 522 q 224 515 249 522 q 182 501 199 508 q 154 486 165 493 q 131 479 143 479 q 85 508 100 479 q 69 568 69 538 q 90 608 69 589 q 144 640 111 626 q 215 660 176 653 q 292 668 254 668 m 411 283 l 390 283 q 323 281 356 283 q 265 269 290 278 q 225 242 240 260 q 210 196 210 225 q 231 139 210 157 q 283 121 251 121 q 327 132 304 121 q 369 162 350 143 q 399 205 388 181 q 411 254 411 229 l 411 283 m 272 794 q 263 790 267 792 q 253 789 258 789 q 213 811 229 789 q 197 857 197 833 q 221 900 197 888 l 404 989 q 414 991 410 990 q 422 992 418 992 q 462 969 446 992 q 478 924 478 947 q 472 900 478 911 q 453 882 467 889 l 272 794 z "},"ă":{"ha":654,"x_min":31,"x_max":590,"o":"m 292 668 q 429 645 372 668 q 522 585 486 622 q 574 499 558 547 q 590 397 590 450 l 590 57 q 565 17 590 33 q 503 0 540 0 q 445 17 468 0 q 422 57 422 33 l 422 97 q 334 21 385 54 q 211 -12 283 -12 q 141 -1 174 -12 q 84 33 108 10 q 45 90 60 56 q 31 172 31 125 q 54 272 31 232 q 120 334 78 311 q 222 367 163 357 q 354 376 282 376 l 411 376 l 411 394 q 405 440 411 417 q 384 481 399 463 q 347 510 369 499 q 289 522 324 522 q 224 515 249 522 q 182 501 199 508 q 154 486 165 493 q 131 479 143 479 q 85 508 100 479 q 69 568 69 538 q 90 608 69 589 q 144 640 111 626 q 215 660 176 653 q 292 668 254 668 m 411 283 l 390 283 q 323 281 356 283 q 265 269 290 278 q 225 242 240 260 q 210 196 210 225 q 231 139 210 157 q 283 121 251 121 q 327 132 304 121 q 369 162 350 143 q 399 205 388 181 q 411 254 411 229 l 411 283 m 501 1001 q 486 931 501 964 q 444 872 471 897 q 385 832 418 847 q 317 817 351 817 q 247 832 281 817 q 188 872 214 847 q 147 931 163 897 q 132 1001 132 964 l 229 1001 q 256 926 229 956 q 317 897 283 897 q 376 926 349 897 q 404 1001 404 956 l 501 1001 z "},"â":{"ha":654,"x_min":31,"x_max":590,"o":"m 163 804 q 147 800 154 800 q 119 817 131 800 q 108 856 108 833 q 115 885 108 871 q 139 907 122 899 l 283 985 q 307 992 294 992 q 331 985 317 992 l 475 908 q 497 884 490 899 q 504 854 504 869 q 493 817 504 833 q 465 800 482 800 q 451 804 457 800 l 307 882 l 163 804 m 292 668 q 429 645 372 668 q 522 585 486 622 q 574 499 558 547 q 590 397 590 450 l 590 57 q 565 17 590 33 q 503 0 540 0 q 445 17 468 0 q 422 57 422 33 l 422 97 q 334 21 385 54 q 211 -12 283 -12 q 141 -1 174 -12 q 84 33 108 10 q 45 90 60 56 q 31 172 31 125 q 54 272 31 232 q 120 334 78 311 q 222 367 163 357 q 354 376 282 376 l 411 376 l 411 394 q 405 440 411 417 q 384 481 399 463 q 347 510 369 499 q 289 522 324 522 q 224 515 249 522 q 182 501 199 508 q 154 486 165 493 q 131 479 143 479 q 85 508 100 479 q 69 568 69 538 q 90 608 69 589 q 144 640 111 626 q 215 660 176 653 q 292 668 254 668 m 411 283 l 390 283 q 323 281 356 283 q 265 269 290 278 q 225 242 240 260 q 210 196 210 225 q 231 139 210 157 q 283 121 251 121 q 327 132 304 121 q 369 162 350 143 q 399 205 388 181 q 411 254 411 229 l 411 283 z "},"´":{"ha":281,"x_min":0,"x_max":281,"o":"m 75 794 q 65 790 69 792 q 56 789 61 789 q 16 811 32 789 q 0 857 0 833 q 24 900 0 888 l 207 989 q 217 991 213 990 q 225 992 221 992 q 265 969 249 992 q 281 924 281 947 q 275 900 281 911 q 256 882 269 889 l 75 794 z "},"ä":{"ha":654,"x_min":31,"x_max":590,"o":"m 210 947 q 259 926 239 947 q 279 875 279 904 q 259 824 279 846 q 210 801 239 801 q 160 824 181 801 q 139 875 139 846 q 160 926 139 904 q 210 947 181 947 m 418 947 q 467 926 446 947 q 488 875 488 904 q 467 824 488 846 q 418 801 446 801 q 367 824 388 801 q 346 875 346 846 q 367 926 346 904 q 418 947 388 947 m 292 668 q 429 645 372 668 q 522 585 486 622 q 574 499 558 547 q 590 397 590 450 l 590 57 q 565 17 590 33 q 503 0 540 0 q 445 17 468 0 q 422 57 422 33 l 422 97 q 334 21 385 54 q 211 -12 283 -12 q 141 -1 174 -12 q 84 33 108 10 q 45 90 60 56 q 31 172 31 125 q 54 272 31 232 q 120 334 78 311 q 222 367 163 357 q 354 376 282 376 l 411 376 l 411 394 q 405 440 411 417 q 384 481 399 463 q 347 510 369 499 q 289 522 324 522 q 224 515 249 522 q 182 501 199 508 q 154 486 165 493 q 131 479 143 479 q 85 508 100 479 q 69 568 69 538 q 90 608 69 589 q 144 640 111 626 q 215 660 176 653 q 292 668 254 668 m 411 283 l 390 283 q 323 281 356 283 q 265 269 290 278 q 225 242 240 260 q 210 196 210 225 q 231 139 210 157 q 283 121 251 121 q 327 132 304 121 q 369 162 350 143 q 399 205 388 181 q 411 254 411 229 l 411 283 z "},"æ":{"ha":1039,"x_min":31,"x_max":1001,"o":"m 714 668 q 822 650 769 668 q 913 598 874 632 q 977 515 953 564 q 1001 403 1001 465 q 991 338 1001 361 q 963 301 981 314 q 922 286 946 289 q 871 283 897 283 l 590 283 l 590 263 q 635 165 590 201 q 751 129 681 129 q 811 138 786 129 q 856 156 836 146 q 892 174 876 165 q 924 182 908 182 q 951 174 939 182 q 972 153 964 165 q 985 128 981 142 q 990 103 990 114 q 972 63 990 83 q 920 26 953 43 q 842 -1 888 10 q 743 -12 797 -12 q 595 22 661 -12 q 486 121 529 57 q 373 23 438 58 q 243 -12 308 -12 q 162 -1 200 -12 q 94 33 124 10 q 48 90 65 56 q 31 171 31 124 q 54 271 31 231 q 120 334 78 311 q 222 367 163 357 q 354 376 282 376 l 410 376 l 410 396 q 403 441 410 418 q 383 482 397 464 q 345 512 368 500 q 288 524 322 524 q 223 517 247 524 q 182 501 199 510 q 154 486 165 493 q 131 479 143 479 q 84 508 100 479 q 68 569 68 538 q 89 608 68 590 q 142 640 110 626 q 215 660 175 653 q 292 668 254 668 q 423 638 369 668 q 508 560 476 608 q 599 638 547 608 q 714 668 651 668 m 793 389 q 825 397 817 389 q 833 425 833 404 q 797 506 833 475 q 711 536 761 536 q 626 507 663 536 q 590 428 590 478 l 590 389 l 793 389 m 410 283 l 389 283 q 322 281 354 283 q 264 269 289 278 q 224 242 239 260 q 210 194 210 224 q 231 139 210 157 q 283 121 251 121 q 328 132 306 121 q 368 162 350 143 q 398 205 386 181 q 410 254 410 229 l 410 283 z "},"ǽ":{"ha":1039,"x_min":31,"x_max":1001,"o":"m 468 794 q 458 790 463 792 q 449 789 454 789 q 409 811 425 789 q 393 857 393 833 q 417 900 393 888 l 600 989 q 610 991 606 990 q 618 992 614 992 q 658 969 642 992 q 674 924 674 947 q 668 900 674 911 q 649 882 663 889 l 468 794 m 714 668 q 822 650 769 668 q 913 598 874 632 q 977 515 953 564 q 1001 403 1001 465 q 991 338 1001 361 q 963 301 981 314 q 922 286 946 289 q 871 283 897 283 l 590 283 l 590 263 q 635 165 590 201 q 751 129 681 129 q 811 138 786 129 q 856 156 836 146 q 892 174 876 165 q 924 182 908 182 q 951 174 939 182 q 972 153 964 165 q 985 128 981 142 q 990 103 990 114 q 972 63 990 83 q 920 26 953 43 q 842 -1 888 10 q 743 -12 797 -12 q 595 22 661 -12 q 486 121 529 57 q 373 23 438 58 q 243 -12 308 -12 q 162 -1 200 -12 q 94 33 124 10 q 48 90 65 56 q 31 171 31 124 q 54 271 31 231 q 120 334 78 311 q 222 367 163 357 q 354 376 282 376 l 410 376 l 410 396 q 403 441 410 418 q 383 482 397 464 q 345 512 368 500 q 288 524 322 524 q 223 517 247 524 q 182 501 199 510 q 154 486 165 493 q 131 479 143 479 q 84 508 100 479 q 68 569 68 538 q 89 608 68 590 q 142 640 110 626 q 215 660 175 653 q 292 668 254 668 q 423 638 369 668 q 508 560 476 608 q 599 638 547 608 q 714 668 651 668 m 793 389 q 825 397 817 389 q 833 425 833 404 q 797 506 833 475 q 711 536 761 536 q 626 507 663 536 q 590 428 590 478 l 590 389 l 793 389 m 410 283 l 389 283 q 322 281 354 283 q 264 269 289 278 q 224 242 239 260 q 210 194 210 224 q 231 139 210 157 q 283 121 251 121 q 328 132 306 121 q 368 162 350 143 q 398 205 386 181 q 410 254 410 229 l 410 283 z "},"à":{"ha":654,"x_min":31,"x_max":590,"o":"m 292 668 q 429 645 372 668 q 522 585 486 622 q 574 499 558 547 q 590 397 590 450 l 590 57 q 565 17 590 33 q 503 0 540 0 q 445 17 468 0 q 422 57 422 33 l 422 97 q 334 21 385 54 q 211 -12 283 -12 q 141 -1 174 -12 q 84 33 108 10 q 45 90 60 56 q 31 172 31 125 q 54 272 31 232 q 120 334 78 311 q 222 367 163 357 q 354 376 282 376 l 411 376 l 411 394 q 405 440 411 417 q 384 481 399 463 q 347 510 369 499 q 289 522 324 522 q 224 515 249 522 q 182 501 199 508 q 154 486 165 493 q 131 479 143 479 q 85 508 100 479 q 69 568 69 538 q 90 608 69 589 q 144 640 111 626 q 215 660 176 653 q 292 668 254 668 m 411 283 l 390 283 q 323 281 356 283 q 265 269 290 278 q 225 242 240 260 q 210 196 210 225 q 231 139 210 157 q 283 121 251 121 q 327 132 304 121 q 369 162 350 143 q 399 205 388 181 q 411 254 411 229 l 411 283 m 200 882 q 181 900 186 889 q 175 924 175 911 q 191 969 175 947 q 231 992 207 992 q 239 991 235 992 q 249 989 243 990 l 432 900 q 456 857 456 888 q 440 811 456 833 q 400 789 424 789 q 390 790 394 789 q 381 794 386 792 l 200 882 z "},"ā":{"ha":654,"x_min":31,"x_max":590,"o":"m 292 668 q 429 645 372 668 q 522 585 486 622 q 574 499 558 547 q 590 397 590 450 l 590 57 q 565 17 590 33 q 503 0 540 0 q 445 17 468 0 q 422 57 422 33 l 422 97 q 334 21 385 54 q 211 -12 283 -12 q 141 -1 174 -12 q 84 33 108 10 q 45 90 60 56 q 31 172 31 125 q 54 272 31 232 q 120 334 78 311 q 222 367 163 357 q 354 376 282 376 l 411 376 l 411 394 q 405 440 411 417 q 384 481 399 463 q 347 510 369 499 q 289 522 324 522 q 224 515 249 522 q 182 501 199 508 q 154 486 165 493 q 131 479 143 479 q 85 508 100 479 q 69 568 69 538 q 90 608 69 589 q 144 640 111 626 q 215 660 176 653 q 292 668 254 668 m 411 283 l 390 283 q 323 281 356 283 q 265 269 290 278 q 225 242 240 260 q 210 196 210 225 q 231 139 210 157 q 283 121 251 121 q 327 132 304 121 q 369 162 350 143 q 399 205 388 181 q 411 254 411 229 l 411 283 m 122 906 q 138 948 122 931 q 178 965 153 965 l 463 965 q 502 948 485 965 q 519 906 519 931 q 502 863 519 879 q 463 847 485 847 l 178 847 q 138 863 153 847 q 122 906 122 879 z "},"&":{"ha":892,"x_min":31,"x_max":876,"o":"m 379 -14 q 234 11 299 -14 q 124 78 169 36 q 55 175 79 119 q 31 292 31 231 q 44 382 31 339 q 83 462 58 425 q 138 526 107 499 q 204 574 169 554 q 135 668 164 618 q 107 788 107 718 q 130 894 107 847 q 192 973 153 940 q 285 1022 232 1006 q 399 1039 338 1039 q 512 1023 461 1039 q 598 983 563 1007 q 652 930 633 958 q 671 876 671 901 q 644 819 671 844 q 586 793 618 793 q 547 809 563 793 q 512 844 531 825 q 467 878 493 863 q 400 894 442 894 q 312 865 347 894 q 276 779 276 835 q 290 717 276 747 q 326 660 304 688 q 372 606 347 632 q 419 557 397 579 l 643 321 q 668 422 665 374 q 674 506 671 471 q 692 547 676 533 q 754 561 707 561 q 816 540 801 561 q 831 478 831 518 q 813 352 831 425 q 753 208 794 279 l 865 92 q 876 61 876 79 q 869 34 876 47 q 851 10 863 21 q 824 -6 839 0 q 793 -12 808 -12 q 772 -8 782 -12 q 749 8 761 -4 l 663 97 q 540 17 610 49 q 379 -14 471 -14 m 400 143 q 492 161 453 143 q 556 207 531 179 l 306 468 q 241 403 269 442 q 213 307 213 365 q 260 190 213 238 q 400 143 308 143 z "},"ą":{"ha":654,"x_min":31,"x_max":590,"o":"m 528 -219 q 553 -233 546 -219 q 560 -260 560 -246 q 552 -285 560 -275 q 519 -296 544 -296 q 398 -261 439 -296 q 357 -171 357 -226 q 383 -74 357 -122 q 453 11 408 -25 q 422 57 422 29 l 422 97 q 334 21 385 54 q 211 -12 283 -12 q 141 -1 174 -12 q 84 33 108 10 q 45 90 60 56 q 31 172 31 125 q 54 272 31 232 q 120 334 78 311 q 222 367 163 357 q 354 376 282 376 l 411 376 l 411 394 q 405 440 411 417 q 384 481 399 463 q 347 510 369 499 q 289 522 324 522 q 224 515 249 522 q 182 501 199 508 q 154 486 165 493 q 131 479 143 479 q 85 508 100 479 q 69 568 69 538 q 90 608 69 589 q 144 640 111 626 q 215 660 176 653 q 292 668 254 668 q 429 645 372 668 q 522 585 486 622 q 574 499 558 547 q 590 397 590 450 l 590 57 q 580 29 590 42 q 553 10 569 17 q 476 -65 507 -19 q 444 -154 444 -110 q 464 -202 444 -185 q 528 -219 483 -219 m 411 283 l 390 283 q 323 281 356 283 q 265 269 290 278 q 225 242 240 260 q 210 196 210 225 q 231 139 210 157 q 283 121 251 121 q 327 132 304 121 q 369 162 350 143 q 399 205 388 181 q 411 254 411 229 l 411 283 z "},"≈":{"ha":619,"x_min":72,"x_max":547,"o":"m 232 485 q 194 479 210 485 q 165 467 178 474 q 140 456 151 461 q 118 451 129 451 q 95 459 104 451 q 81 477 86 467 q 74 498 76 488 q 72 514 72 508 q 87 567 72 547 q 121 598 101 588 q 160 611 140 608 q 192 614 181 614 q 247 608 222 614 q 293 594 271 601 q 338 580 315 586 q 389 574 361 574 q 428 578 411 574 q 457 590 444 583 q 481 601 469 596 q 503 606 492 606 q 524 598 515 606 q 538 580 533 590 q 545 559 543 569 q 547 543 547 549 q 533 490 547 510 q 500 460 519 469 q 461 447 481 450 q 431 444 442 444 q 370 451 396 444 q 323 465 344 457 q 280 478 301 472 q 232 485 258 485 m 232 197 q 194 192 210 197 q 165 180 178 186 q 140 169 151 174 q 118 164 129 164 q 95 172 104 164 q 81 190 86 179 q 74 210 76 200 q 72 226 72 221 q 87 279 72 260 q 121 309 101 299 q 160 322 140 319 q 192 325 181 325 q 247 319 222 325 q 293 305 271 313 q 338 291 315 297 q 389 285 361 285 q 428 290 411 285 q 457 301 444 294 q 481 313 469 307 q 503 318 492 318 q 524 310 515 318 q 538 292 533 303 q 545 272 543 282 q 547 256 547 261 q 533 201 547 221 q 500 172 519 182 q 461 160 481 163 q 431 157 442 157 q 370 163 396 157 q 323 177 344 169 q 280 191 301 185 q 232 197 258 197 z "},"å":{"ha":654,"x_min":31,"x_max":590,"o":"m 292 668 q 429 645 372 668 q 522 585 486 622 q 574 499 558 547 q 590 397 590 450 l 590 57 q 565 17 590 33 q 503 0 540 0 q 445 17 468 0 q 422 57 422 33 l 422 97 q 334 21 385 54 q 211 -12 283 -12 q 141 -1 174 -12 q 84 33 108 10 q 45 90 60 56 q 31 172 31 125 q 54 272 31 232 q 120 334 78 311 q 222 367 163 357 q 354 376 282 376 l 411 376 l 411 394 q 405 440 411 417 q 384 481 399 463 q 347 510 369 499 q 289 522 324 522 q 224 515 249 522 q 182 501 199 508 q 154 486 165 493 q 131 479 143 479 q 85 508 100 479 q 69 568 69 538 q 90 608 69 589 q 144 640 111 626 q 215 660 176 653 q 292 668 254 668 m 411 283 l 390 283 q 323 281 356 283 q 265 269 290 278 q 225 242 240 260 q 210 196 210 225 q 231 139 210 157 q 283 121 251 121 q 327 132 304 121 q 369 162 350 143 q 399 205 388 181 q 411 254 411 229 l 411 283 m 315 1068 q 368 1057 343 1068 q 412 1026 393 1046 q 442 982 431 1007 q 453 931 453 957 q 442 878 453 903 q 411 833 431 853 q 367 802 392 814 q 315 790 342 790 q 263 802 288 790 q 221 833 239 814 q 192 878 203 853 q 181 931 181 903 q 191 982 181 957 q 219 1026 201 1007 q 263 1056 238 1044 q 315 1068 288 1068 m 378 929 q 360 972 378 953 q 317 992 343 992 q 270 972 289 992 q 251 929 251 953 q 270 884 251 906 q 317 863 289 863 q 360 883 343 863 q 378 929 378 904 z "},"↓":{"ha":1071,"x_min":207,"x_max":864,"o":"m 207 228 q 233 285 207 258 q 292 311 260 311 q 326 297 313 311 l 461 163 l 461 717 q 483 757 461 742 q 536 772 504 772 q 590 757 569 772 q 610 717 610 742 l 610 163 l 744 297 q 779 311 758 311 q 838 285 811 311 q 864 228 864 258 q 850 192 864 208 l 578 -81 q 536 -104 554 -104 q 493 -81 514 -101 l 221 192 q 207 228 207 206 z "},"←":{"ha":1071,"x_min":97,"x_max":974,"o":"m 429 663 q 486 636 460 663 q 513 578 513 610 q 499 543 513 557 l 364 408 l 918 408 q 958 387 943 408 q 974 333 974 365 q 958 280 974 300 q 918 260 943 260 l 364 260 l 499 125 q 513 90 513 111 q 486 32 513 58 q 429 6 460 6 q 393 19 407 6 l 121 292 q 97 333 97 315 q 121 376 97 353 l 393 649 q 429 663 410 663 z "},"→":{"ha":1071,"x_min":97,"x_max":974,"o":"m 642 663 q 678 649 661 663 l 950 376 q 967 354 961 364 q 974 333 974 344 q 950 292 974 315 l 678 19 q 642 6 664 6 q 585 32 611 6 q 558 90 558 58 q 572 125 558 111 l 707 260 l 153 260 q 113 280 128 260 q 97 333 97 300 q 113 387 97 365 q 153 408 128 408 l 707 408 l 572 543 q 558 578 558 557 q 585 636 558 610 q 642 663 611 663 z "},"↑":{"ha":1071,"x_min":207,"x_max":864,"o":"m 207 440 q 221 476 207 463 l 493 749 q 536 772 514 769 q 578 749 554 772 l 850 476 q 864 440 864 460 q 838 383 864 410 q 779 357 811 357 q 744 371 758 357 l 610 506 l 610 -49 q 590 -89 610 -74 q 536 -104 569 -104 q 483 -89 504 -104 q 461 -49 461 -74 l 461 506 l 326 371 q 292 357 313 357 q 233 383 260 357 q 207 440 207 410 z "},"^":{"ha":396,"x_min":0,"x_max":396,"o":"m 54 804 q 39 800 46 800 q 11 817 22 800 q 0 856 0 833 q 7 885 0 871 q 31 907 14 899 l 175 985 q 199 992 186 992 q 222 985 208 992 l 367 908 q 389 884 382 899 q 396 854 396 869 q 385 817 396 833 q 357 800 374 800 q 343 804 349 800 l 199 882 l 54 804 z "},"~":{"ha":571,"x_min":49,"x_max":524,"o":"m 208 317 q 170 311 186 317 q 141 299 154 306 q 117 288 128 293 q 94 283 106 283 q 72 290 81 283 q 58 307 63 297 q 51 326 53 317 q 49 342 49 336 q 63 392 49 374 q 96 421 76 411 q 135 433 115 431 q 168 436 156 436 q 222 430 199 436 q 269 416 246 424 q 315 402 292 408 q 365 396 338 396 q 404 401 388 396 q 433 412 421 406 q 456 424 446 418 q 478 429 467 429 q 500 422 492 429 q 514 406 508 415 q 522 386 519 396 q 524 371 524 376 q 510 320 524 339 q 476 292 496 301 q 437 279 457 282 q 406 276 417 276 q 346 283 371 276 q 299 297 321 289 q 256 310 276 304 q 208 317 235 317 z "},"*":{"ha":653,"x_min":32,"x_max":619,"o":"m 529 551 q 539 518 539 539 q 516 471 539 489 q 467 453 493 453 q 444 457 456 453 q 421 476 432 461 l 326 619 l 231 475 q 212 457 222 461 q 189 453 201 453 q 165 457 178 453 q 141 469 153 461 q 122 489 129 478 q 114 515 114 500 q 118 536 114 526 q 129 553 122 546 l 226 689 l 72 733 q 42 754 51 738 q 32 793 32 771 q 51 838 32 817 q 97 860 69 860 q 104 859 100 860 q 115 856 108 858 l 269 804 l 263 958 q 283 1001 264 988 q 326 1015 301 1015 q 370 1001 351 1015 q 390 958 389 988 l 383 803 l 539 856 q 557 860 549 860 q 602 836 585 860 q 619 786 619 813 q 610 753 619 768 q 578 733 600 738 l 428 696 l 529 551 z "},"@":{"ha":1024,"x_min":53,"x_max":989,"o":"m 322 501 q 340 538 322 521 q 385 568 357 556 q 449 588 414 581 q 521 594 485 594 q 606 583 565 594 q 677 548 646 571 q 726 490 708 525 q 744 408 744 454 l 744 174 q 763 122 750 138 q 794 107 775 107 q 837 128 821 107 q 861 179 853 149 q 872 244 869 210 q 875 304 875 278 q 791 589 875 489 q 528 689 707 689 q 355 656 424 689 q 245 569 286 624 q 187 443 204 515 q 169 292 169 371 q 185 151 169 218 q 236 32 200 83 q 333 -50 272 -19 q 486 -81 394 -81 q 558 -75 528 -81 q 609 -62 588 -69 q 645 -50 631 -56 q 671 -44 660 -44 q 704 -64 693 -44 q 715 -97 715 -83 q 689 -136 715 -119 q 624 -163 663 -153 q 542 -178 585 -174 q 465 -183 499 -183 q 310 -154 385 -183 q 178 -67 236 -125 q 87 81 121 -8 q 53 290 53 169 q 81 487 53 396 q 169 646 110 578 q 317 753 228 714 q 528 792 407 792 q 723 760 638 792 q 867 669 808 728 q 958 524 926 610 q 989 332 989 439 q 977 210 989 268 q 940 110 965 153 q 876 42 915 67 q 783 17 838 17 q 685 46 724 17 q 638 118 647 75 q 563 49 604 75 q 464 24 522 24 q 401 33 432 24 q 345 61 369 42 q 306 111 321 81 q 290 183 290 142 q 311 265 290 232 q 369 317 332 297 q 458 346 407 338 q 569 354 508 354 l 614 354 l 614 375 q 587 448 614 424 q 501 472 560 472 q 448 467 469 472 q 411 453 426 461 q 385 440 396 446 q 365 435 375 435 q 348 442 356 435 q 335 459 340 449 q 326 481 329 469 q 322 501 322 493 m 621 276 l 586 276 q 474 256 514 276 q 433 186 433 235 q 451 136 433 153 q 497 119 469 119 q 543 129 521 119 q 583 155 565 139 q 610 192 600 171 q 621 233 621 213 l 621 276 z "},"ã":{"ha":654,"x_min":31,"x_max":590,"o":"m 292 668 q 429 645 372 668 q 522 585 486 622 q 574 499 558 547 q 590 397 590 450 l 590 57 q 565 17 590 33 q 503 0 540 0 q 445 17 468 0 q 422 57 422 33 l 422 97 q 334 21 385 54 q 211 -12 283 -12 q 141 -1 174 -12 q 84 33 108 10 q 45 90 60 56 q 31 172 31 125 q 54 272 31 232 q 120 334 78 311 q 222 367 163 357 q 354 376 282 376 l 411 376 l 411 394 q 405 440 411 417 q 384 481 399 463 q 347 510 369 499 q 289 522 324 522 q 224 515 249 522 q 182 501 199 508 q 154 486 165 493 q 131 479 143 479 q 85 508 100 479 q 69 568 69 538 q 90 608 69 589 q 144 640 111 626 q 215 660 176 653 q 292 668 254 668 m 411 283 l 390 283 q 323 281 356 283 q 265 269 290 278 q 225 242 240 260 q 210 196 210 225 q 231 139 210 157 q 283 121 251 121 q 327 132 304 121 q 369 162 350 143 q 399 205 388 181 q 411 254 411 229 l 411 283 m 238 857 q 199 851 215 857 q 170 840 183 846 q 146 828 157 833 q 124 824 135 824 q 101 831 110 824 q 87 847 92 838 q 80 867 82 857 q 78 882 78 876 q 92 933 78 914 q 125 961 106 951 q 165 974 144 971 q 197 976 185 976 q 251 970 228 976 q 298 956 275 964 q 344 942 321 949 q 394 936 367 936 q 433 941 417 936 q 463 952 450 946 q 485 964 475 958 q 507 969 496 969 q 529 963 521 969 q 543 946 538 956 q 551 926 549 936 q 553 911 553 917 q 539 860 553 879 q 506 832 525 842 q 466 819 486 822 q 435 817 446 817 q 375 823 400 817 q 328 837 350 829 q 285 851 306 844 q 238 857 264 857 z "},"b":{"ha":721,"x_min":71,"x_max":675,"o":"m 158 1044 q 223 1029 196 1044 q 250 989 250 1014 l 250 563 q 317 635 272 603 q 428 668 363 668 q 524 646 479 668 q 603 585 569 624 q 656 495 636 546 q 675 386 675 444 l 675 272 q 655 165 675 217 q 601 74 635 114 q 524 11 568 35 q 432 -12 481 -12 q 369 -3 399 -12 q 313 21 339 6 q 268 56 288 36 q 239 97 249 76 l 239 57 q 215 18 239 36 q 158 0 192 0 q 95 18 119 0 q 71 57 71 36 l 71 989 q 95 1029 71 1014 q 158 1044 119 1044 m 496 386 q 486 432 496 410 q 460 472 476 454 q 421 501 443 490 q 374 511 399 511 q 329 503 351 511 q 290 478 307 494 q 261 438 272 461 q 250 386 250 415 l 250 247 q 260 219 250 236 q 286 185 269 201 q 326 156 303 168 q 375 144 349 144 q 422 156 400 144 q 460 185 444 167 q 486 226 476 203 q 496 272 496 249 l 496 386 z "},"\\":{"ha":514,"x_min":26,"x_max":488,"o":"m 29 968 q 27 978 28 974 q 26 988 26 982 q 47 1030 26 1011 q 94 1049 67 1049 q 126 1040 111 1049 q 147 1013 140 1032 l 485 79 q 488 63 488 74 q 468 19 488 39 q 421 -1 449 -1 q 367 38 381 -1 l 29 968 z "},"|":{"ha":335,"x_min":78,"x_max":257,"o":"m 167 1067 q 231 1051 204 1067 q 257 1011 257 1035 l 257 28 q 231 -11 257 7 q 167 -29 204 -29 q 103 -11 128 -29 q 78 28 78 7 l 78 1011 q 103 1051 78 1035 q 167 1067 128 1067 z "},"{":{"ha":501,"x_min":29,"x_max":481,"o":"m 29 536 q 42 581 29 568 q 71 599 56 593 q 99 610 86 604 q 113 638 113 617 q 109 672 113 647 q 101 726 106 697 q 94 783 97 756 q 90 828 90 811 q 115 918 90 875 q 182 994 140 961 q 276 1047 224 1028 q 382 1067 328 1067 q 430 1060 411 1067 q 460 1041 449 1053 q 476 1015 472 1029 q 481 988 481 1001 q 467 938 481 961 q 425 914 453 914 q 377 908 404 914 q 326 888 350 901 q 287 854 303 875 q 271 804 271 833 q 274 764 271 790 q 282 708 278 738 q 290 653 286 679 q 293 615 293 628 q 274 562 293 586 q 243 533 256 538 q 276 506 258 529 q 293 453 293 483 q 290 406 293 440 q 282 334 286 372 q 274 263 278 296 q 271 217 271 229 q 288 172 271 189 q 328 144 304 154 q 379 129 353 133 q 425 125 406 125 q 452 117 442 125 q 469 99 463 110 q 478 74 475 88 q 481 50 481 61 q 379 -28 481 -28 q 274 -11 325 -28 q 181 35 222 6 q 115 105 140 64 q 90 196 90 146 q 94 249 90 214 q 101 321 97 283 q 109 390 106 358 q 113 432 113 421 q 99 460 113 453 q 71 473 86 467 q 42 492 56 479 q 29 536 29 504 z "},"}":{"ha":501,"x_min":21,"x_max":472,"o":"m 472 536 q 459 492 472 504 q 431 473 446 479 q 402 460 415 467 q 389 432 389 453 q 392 390 389 421 q 400 321 396 358 q 408 249 404 283 q 411 196 411 214 q 386 105 411 146 q 321 35 361 64 q 228 -11 281 6 q 122 -28 176 -28 q 21 50 21 -28 q 24 74 21 61 q 33 99 26 88 q 50 117 39 110 q 78 125 61 125 q 124 129 97 125 q 174 144 150 133 q 214 172 197 154 q 231 217 231 189 q 227 263 231 229 q 219 334 224 296 q 212 406 215 372 q 208 453 208 440 q 226 506 208 483 q 258 533 244 529 q 227 562 246 538 q 208 615 208 586 q 212 653 208 628 q 219 708 215 679 q 227 764 224 738 q 231 804 231 790 q 215 854 231 833 q 176 888 199 875 q 126 908 153 901 q 78 914 99 914 q 35 938 50 914 q 21 988 21 961 q 26 1015 21 1001 q 42 1041 31 1029 q 72 1060 53 1053 q 121 1067 92 1067 q 227 1047 175 1067 q 320 994 279 1028 q 386 918 361 961 q 411 828 411 875 q 408 783 411 811 q 400 726 404 756 q 392 672 396 697 q 389 638 389 647 q 402 610 389 617 q 431 599 415 604 q 459 581 446 593 q 472 536 472 568 z "},"[":{"ha":474,"x_min":78,"x_max":451,"o":"m 258 129 l 396 129 q 437 105 422 129 q 451 49 451 81 q 438 -4 451 21 q 396 -29 425 -29 l 157 -29 q 103 -15 128 -29 q 78 28 78 0 l 78 1010 q 102 1052 78 1038 q 157 1067 126 1067 l 396 1067 q 438 1042 425 1067 q 451 989 451 1017 q 437 933 451 957 q 396 908 422 908 l 258 908 l 258 129 z "},"]":{"ha":475,"x_min":22,"x_max":397,"o":"m 217 908 l 79 908 q 37 933 51 908 q 22 989 22 957 q 36 1042 22 1017 q 79 1067 50 1067 l 317 1067 q 372 1052 347 1067 q 397 1010 397 1038 l 397 28 q 372 -15 397 0 q 317 -29 347 -29 l 79 -29 q 36 -4 50 -29 q 22 49 22 21 q 37 105 22 81 q 79 129 51 129 l 217 129 l 217 908 z "},"˘":{"ha":369,"x_min":0,"x_max":369,"o":"m 369 1001 q 354 931 369 964 q 313 872 339 897 q 253 832 286 847 q 185 817 219 817 q 115 832 149 817 q 56 872 82 847 q 15 931 31 897 q 0 1001 0 964 l 97 1001 q 124 926 97 956 q 185 897 151 897 q 244 926 217 897 q 272 1001 272 956 l 369 1001 z "},"¦":{"ha":332,"x_min":76,"x_max":256,"o":"m 165 1067 q 229 1051 203 1067 q 256 1011 256 1035 l 256 664 q 229 624 256 642 q 165 606 203 606 q 101 624 126 606 q 76 664 76 642 l 76 1011 q 101 1051 76 1035 q 165 1067 126 1067 m 165 432 q 229 416 203 432 q 256 375 256 400 l 256 28 q 229 -11 256 7 q 165 -29 203 -29 q 101 -11 126 -29 q 76 28 76 7 l 76 375 q 101 416 76 400 q 165 432 126 432 z "},"•":{"ha":457,"x_min":46,"x_max":411,"o":"m 229 592 q 299 577 265 592 q 357 539 332 563 q 397 483 382 515 q 411 417 411 451 q 397 349 411 381 q 357 293 382 317 q 299 255 332 269 q 229 240 265 240 q 158 255 192 240 q 100 293 125 269 q 60 349 75 317 q 46 417 46 381 q 60 483 46 451 q 100 539 75 515 q 158 577 125 563 q 229 592 192 592 z "},"c":{"ha":603,"x_min":47,"x_max":578,"o":"m 349 -12 q 213 9 269 -12 q 119 69 156 31 q 65 159 82 107 q 47 272 47 211 l 47 383 q 65 495 47 443 q 119 585 82 547 q 212 646 156 624 q 347 668 268 668 q 437 659 396 668 q 507 635 478 650 q 553 600 536 619 q 569 560 569 581 q 565 532 569 547 q 550 503 560 517 q 528 481 540 490 q 499 472 515 472 q 476 478 488 472 q 449 492 464 485 q 413 505 433 499 q 361 511 392 511 q 258 478 290 511 q 226 383 226 444 l 226 272 q 258 178 226 211 q 363 144 290 144 q 414 151 393 144 q 450 165 435 157 q 477 180 465 174 q 501 186 489 186 q 534 178 519 186 q 558 157 549 169 q 573 129 568 144 q 578 101 578 114 q 560 60 578 81 q 513 24 543 40 q 440 -3 482 7 q 349 -12 397 -12 z "},"ć":{"ha":603,"x_min":47,"x_max":578,"o":"m 272 794 q 263 790 267 792 q 253 789 258 789 q 213 811 229 789 q 197 857 197 833 q 221 900 197 888 l 404 989 q 414 991 410 990 q 422 992 418 992 q 462 969 446 992 q 478 924 478 947 q 472 900 478 911 q 453 882 467 889 l 272 794 m 349 -12 q 213 9 269 -12 q 119 69 156 31 q 65 159 82 107 q 47 272 47 211 l 47 383 q 65 495 47 443 q 119 585 82 547 q 212 646 156 624 q 347 668 268 668 q 437 659 396 668 q 507 635 478 650 q 553 600 536 619 q 569 560 569 581 q 565 532 569 547 q 550 503 560 517 q 528 481 540 490 q 499 472 515 472 q 476 478 488 472 q 449 492 464 485 q 413 505 433 499 q 361 511 392 511 q 258 478 290 511 q 226 383 226 444 l 226 272 q 258 178 226 211 q 363 144 290 144 q 414 151 393 144 q 450 165 435 157 q 477 180 465 174 q 501 186 489 186 q 534 178 519 186 q 558 157 549 169 q 573 129 568 144 q 578 101 578 114 q 560 60 578 81 q 513 24 543 40 q 440 -3 482 7 q 349 -12 397 -12 z "},"ˇ":{"ha":401,"x_min":3,"x_max":399,"o":"m 201 919 l 343 1011 q 360 1017 353 1017 q 388 999 378 1017 q 399 963 399 982 q 369 910 399 928 l 226 818 q 201 810 211 810 q 176 818 189 810 l 33 910 q 3 963 3 928 q 14 999 3 982 q 42 1017 25 1017 q 58 1011 51 1017 l 201 919 z "},"č":{"ha":603,"x_min":47,"x_max":578,"o":"m 321 919 l 463 1011 q 479 1017 472 1017 q 508 999 497 1017 q 518 963 518 982 q 489 910 518 928 l 346 818 q 321 810 331 810 q 296 818 308 810 l 153 910 q 122 963 122 928 q 133 999 122 982 q 161 1017 144 1017 q 178 1011 171 1017 l 321 919 m 349 -12 q 213 9 269 -12 q 119 69 156 31 q 65 159 82 107 q 47 272 47 211 l 47 383 q 65 495 47 443 q 119 585 82 547 q 212 646 156 624 q 347 668 268 668 q 437 659 396 668 q 507 635 478 650 q 553 600 536 619 q 569 560 569 581 q 565 532 569 547 q 550 503 560 517 q 528 481 540 490 q 499 472 515 472 q 476 478 488 472 q 449 492 464 485 q 413 505 433 499 q 361 511 392 511 q 258 478 290 511 q 226 383 226 444 l 226 272 q 258 178 226 211 q 363 144 290 144 q 414 151 393 144 q 450 165 435 157 q 477 180 465 174 q 501 186 489 186 q 534 178 519 186 q 558 157 549 169 q 573 129 568 144 q 578 101 578 114 q 560 60 578 81 q 513 24 543 40 q 440 -3 482 7 q 349 -12 397 -12 z "},"ç":{"ha":603,"x_min":47,"x_max":578,"o":"m 578 101 q 563 63 578 82 q 522 29 549 44 q 460 3 496 14 q 382 -11 425 -7 l 364 -71 q 468 -105 435 -74 q 501 -178 501 -136 q 494 -217 501 -196 q 470 -257 488 -239 q 425 -287 453 -275 q 356 -300 397 -300 q 317 -298 338 -300 q 278 -290 296 -296 q 249 -278 261 -285 q 238 -260 238 -271 q 240 -247 238 -256 q 245 -230 242 -239 q 255 -215 249 -221 q 269 -208 261 -208 q 298 -218 281 -208 q 350 -228 315 -228 q 415 -182 415 -228 q 349 -131 415 -137 l 272 -124 l 304 -10 q 189 19 238 -4 q 109 81 140 43 q 63 167 78 118 q 47 272 47 215 l 47 383 q 65 495 47 443 q 119 585 82 547 q 212 646 156 624 q 347 668 268 668 q 437 659 396 668 q 507 635 478 650 q 553 600 536 619 q 569 560 569 581 q 565 532 569 547 q 550 503 560 517 q 528 481 540 490 q 499 472 515 472 q 476 478 488 472 q 449 492 464 485 q 413 505 433 499 q 361 511 392 511 q 258 478 290 511 q 226 383 226 444 l 226 272 q 258 178 226 211 q 363 144 290 144 q 414 151 393 144 q 450 165 435 157 q 477 180 465 174 q 501 186 489 186 q 534 178 519 186 q 558 157 549 169 q 573 129 568 144 q 578 101 578 114 z "},"ĉ":{"ha":603,"x_min":47,"x_max":578,"o":"m 183 804 q 168 800 175 800 q 140 817 151 800 q 129 856 129 833 q 136 885 129 871 q 160 907 143 899 l 304 985 q 328 992 315 992 q 351 985 338 992 l 496 908 q 518 884 511 899 q 525 854 525 869 q 514 817 525 833 q 486 800 503 800 q 472 804 478 800 l 328 882 l 183 804 m 349 -12 q 213 9 269 -12 q 119 69 156 31 q 65 159 82 107 q 47 272 47 211 l 47 383 q 65 495 47 443 q 119 585 82 547 q 212 646 156 624 q 347 668 268 668 q 437 659 396 668 q 507 635 478 650 q 553 600 536 619 q 569 560 569 581 q 565 532 569 547 q 550 503 560 517 q 528 481 540 490 q 499 472 515 472 q 476 478 488 472 q 449 492 464 485 q 413 505 433 499 q 361 511 392 511 q 258 478 290 511 q 226 383 226 444 l 226 272 q 258 178 226 211 q 363 144 290 144 q 414 151 393 144 q 450 165 435 157 q 477 180 465 174 q 501 186 489 186 q 534 178 519 186 q 558 157 549 169 q 573 129 568 144 q 578 101 578 114 q 560 60 578 81 q 513 24 543 40 q 440 -3 482 7 q 349 -12 397 -12 z "},"ċ":{"ha":603,"x_min":47,"x_max":578,"o":"m 349 -12 q 213 9 269 -12 q 119 69 156 31 q 65 159 82 107 q 47 272 47 211 l 47 383 q 65 495 47 443 q 119 585 82 547 q 212 646 156 624 q 347 668 268 668 q 437 659 396 668 q 507 635 478 650 q 553 600 536 619 q 569 560 569 581 q 565 532 569 547 q 550 503 560 517 q 528 481 540 490 q 499 472 515 472 q 476 478 488 472 q 449 492 464 485 q 413 505 433 499 q 361 511 392 511 q 258 478 290 511 q 226 383 226 444 l 226 272 q 258 178 226 211 q 363 144 290 144 q 414 151 393 144 q 450 165 435 157 q 477 180 465 174 q 501 186 489 186 q 534 178 519 186 q 558 157 549 169 q 573 129 568 144 q 578 101 578 114 q 560 60 578 81 q 513 24 543 40 q 440 -3 482 7 q 349 -12 397 -12 m 324 947 q 373 926 353 947 q 393 875 393 904 q 373 824 393 846 q 324 801 353 801 q 274 824 294 801 q 253 875 253 846 q 274 926 253 904 q 324 947 294 947 z "},"¸":{"ha":264,"x_min":0,"x_max":264,"o":"m 126 -71 q 231 -105 197 -74 q 264 -178 264 -136 q 257 -217 264 -196 q 233 -257 250 -239 q 188 -287 215 -275 q 118 -300 160 -300 q 79 -298 100 -300 q 41 -290 58 -296 q 12 -278 24 -285 q 0 -260 0 -271 q 2 -247 0 -256 q 8 -230 4 -239 q 17 -215 11 -221 q 32 -208 24 -208 q 60 -218 43 -208 q 113 -228 78 -228 q 178 -182 178 -228 q 111 -131 178 -137 l 35 -124 l 74 13 l 153 13 l 126 -71 z "},"¢":{"ha":600,"x_min":33,"x_max":564,"o":"m 339 965 q 376 952 360 965 q 392 917 392 939 l 392 807 q 512 769 465 797 q 558 704 558 740 q 553 677 558 692 q 538 650 547 663 q 516 630 529 638 q 486 622 503 622 q 469 626 478 622 q 450 637 461 631 q 425 649 439 643 q 392 658 411 654 l 392 371 q 425 381 411 375 q 449 394 439 388 q 468 405 460 400 q 486 410 476 410 q 543 383 522 410 q 564 329 564 357 q 551 294 564 311 q 514 262 538 276 q 459 236 490 247 q 392 219 428 225 l 392 106 q 376 70 392 86 q 339 54 360 54 q 301 70 317 54 q 286 106 286 86 l 286 218 q 172 248 219 224 q 94 310 125 272 q 48 396 63 347 q 33 501 33 444 l 33 526 q 48 631 33 582 q 94 717 63 679 q 172 778 125 754 q 286 810 219 803 l 286 917 q 301 952 286 939 q 339 965 317 965 m 190 501 q 213 415 190 449 q 286 368 236 381 l 286 658 q 213 613 236 646 q 190 526 190 579 l 190 501 z "},"ˆ":{"ha":396,"x_min":0,"x_max":396,"o":"m 54 804 q 39 800 46 800 q 11 817 22 800 q 0 856 0 833 q 7 885 0 871 q 31 907 14 899 l 175 985 q 199 992 186 992 q 222 985 208 992 l 367 908 q 389 884 382 899 q 396 854 396 869 q 385 817 396 833 q 357 800 374 800 q 343 804 349 800 l 199 882 l 54 804 z "},":":{"ha":310,"x_min":61,"x_max":249,"o":"m 156 181 q 221 153 193 181 q 249 86 249 125 q 221 20 249 49 q 156 -8 193 -8 q 88 20 115 -8 q 61 86 61 49 q 88 153 61 125 q 156 181 115 181 m 156 586 q 221 558 193 586 q 249 492 249 531 q 221 426 249 454 q 156 397 193 397 q 88 426 115 397 q 61 492 61 454 q 88 558 61 531 q 156 586 115 586 z "},",":{"ha":268,"x_min":40,"x_max":228,"o":"m 133 181 q 200 153 172 181 q 228 88 228 126 q 226 74 228 82 q 217 45 225 65 q 194 -13 210 25 q 151 -115 179 -51 q 135 -134 144 -129 q 114 -139 125 -139 q 74 -127 94 -139 q 54 -92 54 -115 q 60 -72 54 -82 l 92 1 q 54 36 68 14 q 40 86 40 58 q 67 153 40 125 q 133 181 94 181 z "},"":{"ha":342,"x_min":24,"x_max":304,"o":"m 99 -264 q 89 -268 93 -267 q 79 -269 85 -269 q 40 -247 56 -269 q 24 -201 24 -225 q 47 -160 24 -172 l 231 -71 q 249 -67 240 -67 q 288 -89 272 -67 q 304 -135 304 -111 q 299 -160 304 -149 q 279 -178 293 -171 l 99 -264 z "},"©":{"ha":958,"x_min":53,"x_max":906,"o":"m 53 497 q 93 699 53 614 q 196 841 133 785 q 335 924 258 897 q 483 951 411 951 q 632 924 557 951 q 768 840 707 896 q 867 700 829 785 q 906 503 906 615 q 865 301 906 386 q 763 159 825 215 q 624 76 700 103 q 475 49 547 49 q 326 76 401 49 q 190 160 251 104 q 91 300 129 215 q 53 497 53 385 m 819 503 q 796 648 819 582 q 728 763 772 714 q 622 838 685 811 q 483 865 560 865 q 344 838 407 865 q 235 763 281 811 q 164 647 189 714 q 139 497 139 579 q 163 352 139 418 q 230 238 186 286 q 335 162 274 189 q 475 135 397 135 q 615 162 551 135 q 724 238 678 189 q 794 353 769 286 q 819 503 819 421 m 553 618 q 551 640 553 626 q 542 665 549 653 q 522 685 535 676 q 485 693 508 693 q 414 606 414 693 l 414 414 q 432 347 414 368 q 485 326 450 326 q 520 335 507 326 q 540 356 533 343 q 549 382 547 368 q 553 408 551 396 q 568 433 554 426 q 601 439 582 439 q 640 429 628 439 q 651 389 651 419 q 603 277 651 318 q 481 236 556 236 q 417 246 447 236 q 364 276 386 256 q 328 331 342 297 q 315 414 315 365 l 315 606 q 328 688 315 654 q 364 743 342 722 q 417 774 386 764 q 481 783 447 783 q 603 744 556 783 q 651 636 651 704 q 640 596 651 606 q 603 586 628 586 q 568 593 582 586 q 553 618 554 600 z "},"¤":{"ha":628,"x_min":67,"x_max":561,"o":"m 314 906 q 394 891 356 906 q 465 851 433 876 l 500 883 q 519 890 508 890 q 547 878 535 890 q 558 851 558 867 q 550 833 558 842 l 514 799 q 549 733 536 769 q 561 657 561 697 q 549 580 561 617 q 513 513 536 543 l 550 478 q 558 460 558 469 q 547 433 558 444 q 519 421 535 421 q 500 428 508 421 l 465 460 q 394 417 433 432 q 314 403 356 403 q 232 418 271 403 q 160 461 193 433 l 125 428 q 106 421 117 421 q 78 433 90 421 q 67 460 67 444 q 75 478 67 469 l 114 514 q 80 581 92 544 q 68 656 68 617 q 80 731 68 694 q 113 797 92 767 l 76 832 q 69 850 69 839 q 81 877 69 865 q 108 889 93 889 q 126 882 117 889 l 160 850 q 231 891 192 876 q 314 906 269 906 m 463 654 q 451 710 463 683 q 419 759 439 738 q 372 793 400 781 q 314 806 344 806 q 256 793 283 806 q 210 760 229 781 q 178 712 190 739 q 167 656 167 685 q 178 599 167 626 q 210 549 190 571 q 256 515 229 528 q 314 503 283 503 q 372 515 344 503 q 419 549 399 528 q 451 598 439 571 q 463 654 463 625 z "},"d":{"ha":722,"x_min":46,"x_max":651,"o":"m 563 1044 q 626 1029 601 1044 q 651 989 651 1014 l 651 57 q 626 18 651 36 q 563 0 601 0 q 506 18 529 0 q 482 57 482 36 l 482 97 q 408 21 461 54 q 289 -12 356 -12 q 197 11 240 -12 q 119 74 153 35 q 66 165 86 114 q 46 272 46 217 l 46 386 q 65 495 46 444 q 118 585 85 546 q 197 646 151 624 q 293 668 242 668 q 403 635 358 668 q 472 563 449 603 l 472 989 q 499 1029 472 1014 q 563 1044 525 1044 m 225 272 q 235 226 225 249 q 261 185 244 203 q 299 156 278 167 q 346 144 321 144 q 395 156 372 144 q 435 185 418 168 q 463 219 453 201 q 472 247 472 236 l 472 386 q 461 438 472 415 q 432 478 450 461 q 392 503 414 494 q 347 511 369 511 q 300 501 322 511 q 261 472 278 490 q 235 432 244 454 q 225 386 225 410 l 225 272 z "},"†":{"ha":613,"x_min":28,"x_max":586,"o":"m 28 631 q 43 681 28 660 q 83 701 58 701 l 215 693 l 215 960 q 242 999 215 982 q 306 1015 268 1015 q 368 999 340 1015 q 396 960 396 982 l 396 693 l 528 701 q 568 681 550 701 q 586 631 586 660 q 568 580 586 599 q 528 561 550 561 l 396 569 l 396 38 q 368 -9 396 11 q 306 -29 340 -29 q 242 -9 268 -29 q 215 38 215 11 l 215 569 l 83 561 q 43 580 58 561 q 28 631 28 599 z "},"‡":{"ha":624,"x_min":33,"x_max":590,"o":"m 33 335 q 49 385 33 364 q 89 406 64 406 l 221 397 l 221 569 l 89 561 q 49 580 64 561 q 33 631 33 599 q 49 681 33 660 q 89 701 64 701 l 221 693 l 221 960 q 247 999 221 982 q 311 1015 274 1015 q 373 999 344 1015 q 401 960 401 982 l 401 693 l 533 701 q 573 681 556 701 q 590 631 590 660 q 573 580 590 599 q 533 561 556 561 l 401 569 l 401 397 l 533 406 q 573 385 556 406 q 590 335 590 364 q 573 284 590 303 q 533 265 556 265 l 401 274 l 401 38 q 373 -9 401 11 q 311 -29 344 -29 q 247 -9 274 -29 q 221 38 221 11 l 221 274 l 89 265 q 49 284 64 265 q 33 335 33 303 z "},"ď":{"ha":722,"x_min":46,"x_max":908,"o":"m 814 1029 q 881 1001 853 1029 q 908 936 908 974 q 906 919 908 929 q 896 887 904 908 q 872 828 888 865 q 832 732 857 792 q 815 715 825 719 q 794 710 806 710 q 755 722 775 710 q 735 757 735 733 q 740 776 735 767 l 772 850 q 735 885 749 863 q 721 935 721 907 q 748 1001 721 974 q 814 1029 775 1029 m 563 1044 q 626 1029 601 1044 q 651 989 651 1014 l 651 57 q 626 18 651 36 q 563 0 601 0 q 506 18 529 0 q 482 57 482 36 l 482 97 q 408 21 461 54 q 289 -12 356 -12 q 197 11 240 -12 q 119 74 153 35 q 66 165 86 114 q 46 272 46 217 l 46 386 q 65 495 46 444 q 118 585 85 546 q 197 646 151 624 q 293 668 242 668 q 403 635 358 668 q 472 563 449 603 l 472 989 q 499 1029 472 1014 q 563 1044 525 1044 m 225 272 q 235 226 225 249 q 261 185 244 203 q 299 156 278 167 q 346 144 321 144 q 395 156 372 144 q 435 185 418 168 q 463 219 453 201 q 472 247 472 236 l 472 386 q 461 438 472 415 q 432 478 450 461 q 392 503 414 494 q 347 511 369 511 q 300 501 322 511 q 261 472 278 490 q 235 432 244 454 q 225 386 225 410 l 225 272 z "},"đ":{"ha":722,"x_min":46,"x_max":739,"o":"m 563 1044 q 626 1029 601 1044 q 651 989 651 1014 l 651 899 l 692 899 q 727 878 715 899 q 739 833 739 857 q 727 788 739 807 q 692 768 715 768 l 651 768 l 651 57 q 626 18 651 36 q 563 0 601 0 q 506 18 529 0 q 482 57 482 36 l 482 97 q 408 21 461 54 q 289 -12 356 -12 q 197 11 240 -12 q 119 74 153 35 q 66 165 86 114 q 46 272 46 217 l 46 386 q 65 495 46 444 q 118 585 85 546 q 197 646 151 624 q 293 668 242 668 q 403 635 358 668 q 472 563 449 603 l 472 768 l 364 768 q 328 788 340 768 q 317 833 317 808 q 328 878 317 857 q 364 899 340 899 l 472 899 l 472 989 q 499 1029 472 1014 q 563 1044 525 1044 m 225 272 q 235 226 225 249 q 261 185 244 203 q 299 156 278 167 q 346 144 321 144 q 395 156 372 144 q 435 185 418 168 q 463 219 453 201 q 472 247 472 236 l 472 386 q 461 438 472 415 q 432 478 450 461 q 392 503 414 494 q 347 511 369 511 q 300 501 322 511 q 261 472 278 490 q 235 432 244 454 q 225 386 225 410 l 225 272 z "},"°":{"ha":554,"x_min":31,"x_max":524,"o":"m 276 1067 q 371 1047 326 1067 q 449 992 415 1026 q 503 913 483 958 q 524 818 524 868 q 503 722 524 768 q 449 640 483 675 q 371 585 415 606 q 276 564 326 564 q 182 585 226 564 q 104 640 138 606 q 51 721 71 675 q 31 817 31 767 q 50 912 31 867 q 103 992 69 957 q 181 1047 136 1026 q 276 1067 226 1067 m 425 815 q 413 872 425 844 q 382 920 401 899 q 335 954 363 942 q 276 967 307 967 q 219 954 246 967 q 172 921 192 942 q 141 873 153 900 q 129 817 129 846 q 141 760 129 788 q 172 710 153 732 q 219 676 192 689 q 276 664 246 664 q 334 676 307 664 q 381 710 361 689 q 413 759 401 732 q 425 815 425 786 z "},"¨":{"ha":349,"x_min":0,"x_max":349,"o":"m 71 947 q 120 926 100 947 q 140 875 140 904 q 120 824 140 846 q 71 801 100 801 q 21 824 42 801 q 0 875 0 846 q 21 926 0 904 q 71 947 42 947 m 279 947 q 328 926 307 947 q 349 875 349 904 q 328 824 349 846 q 279 801 307 801 q 228 824 249 801 q 207 875 207 846 q 228 926 207 904 q 279 947 249 947 z "},"÷":{"ha":619,"x_min":31,"x_max":589,"o":"m 31 331 q 47 381 31 361 q 89 401 64 401 l 529 401 q 571 381 553 401 q 589 331 589 361 q 571 281 589 299 q 529 263 553 263 l 89 263 q 47 281 64 263 q 31 331 31 299 m 306 178 q 364 155 338 178 q 390 96 390 132 q 364 38 390 63 q 306 14 338 14 q 245 38 271 14 q 219 96 219 63 q 245 155 219 132 q 306 178 271 178 m 306 650 q 364 626 338 650 q 390 568 390 601 q 364 510 390 533 q 306 486 338 486 q 245 510 271 486 q 219 568 219 533 q 245 626 219 601 q 306 650 271 650 z "},"$":{"ha":729,"x_min":36,"x_max":688,"o":"m 331 1 q 214 19 268 3 q 120 60 160 35 q 58 115 81 85 q 36 174 36 144 q 42 205 36 188 q 59 237 49 222 q 83 261 69 251 q 114 271 97 271 q 153 256 133 271 q 197 224 172 242 q 253 189 221 206 q 331 167 285 172 l 331 443 q 235 482 283 461 q 149 534 188 503 q 85 610 110 565 q 61 722 61 656 q 83 837 61 789 q 143 917 106 885 q 229 968 181 950 q 331 993 278 986 l 331 1032 q 344 1056 331 1046 q 378 1067 358 1067 q 410 1056 396 1067 q 425 1032 425 1046 l 425 996 q 500 989 458 994 q 578 970 542 983 q 638 937 614 957 q 663 886 663 917 q 658 858 663 874 q 645 826 654 842 q 622 801 636 811 q 589 790 608 790 q 560 797 574 790 q 527 813 546 804 q 484 831 508 822 q 425 842 460 839 l 425 597 q 518 558 471 581 q 603 502 565 536 q 664 419 640 468 q 688 300 688 371 q 615 98 688 172 q 425 6 542 24 l 425 -37 q 410 -62 425 -51 q 378 -72 396 -72 q 344 -62 358 -72 q 331 -37 331 -51 l 331 1 m 518 282 q 488 362 518 333 q 414 410 458 390 l 414 168 q 489 206 460 178 q 518 282 518 233 m 231 740 q 262 671 231 694 q 342 628 293 647 l 342 838 q 260 805 289 829 q 231 740 231 781 z "},"˙":{"ha":265,"x_min":68,"x_max":208,"o":"m 139 947 q 188 926 168 947 q 208 875 208 904 q 188 824 208 846 q 139 801 168 801 q 89 824 110 801 q 68 875 68 846 q 89 926 68 904 q 139 947 110 947 z "},"ı":{"ha":318,"x_min":69,"x_max":249,"o":"m 158 660 q 222 644 196 660 q 249 604 249 629 l 249 57 q 222 18 249 36 q 158 0 196 0 q 94 18 119 0 q 69 57 69 36 l 69 604 q 94 644 69 629 q 158 660 119 660 z "},"ȷ":{"ha":321,"x_min":-53,"x_max":250,"o":"m 158 660 q 224 644 197 660 q 250 604 250 629 l 250 -44 q 237 -151 250 -103 q 197 -233 224 -199 q 131 -287 171 -268 q 40 -307 92 -307 q -6 -301 13 -307 q -34 -284 -24 -294 q -49 -260 -44 -274 q -53 -233 -53 -247 q -33 -176 -53 -197 q 15 -156 -12 -156 q 62 -124 53 -156 q 71 -44 71 -93 l 71 604 q 96 644 71 629 q 158 660 121 660 z "},"e":{"ha":672,"x_min":44,"x_max":635,"o":"m 349 668 q 458 649 406 668 q 549 595 510 629 q 612 513 589 561 q 635 407 635 465 q 624 338 635 363 q 594 301 613 313 q 552 286 575 289 q 506 283 529 283 l 224 283 l 224 263 q 268 165 224 201 q 386 129 313 129 q 446 138 421 129 q 490 156 471 146 q 526 174 510 165 q 557 182 542 182 q 585 174 572 182 q 606 153 597 165 q 620 126 615 140 q 625 103 625 113 q 608 65 625 85 q 558 27 590 44 q 481 -1 526 10 q 381 -12 436 -12 q 245 8 307 -12 q 139 65 183 28 q 69 156 94 103 q 44 272 44 208 l 44 390 q 68 497 44 446 q 133 585 92 547 q 229 646 174 624 q 349 668 285 668 m 426 389 q 458 396 449 389 q 467 426 467 403 q 431 506 467 475 q 344 536 394 536 q 260 507 297 536 q 224 428 224 478 l 224 389 l 426 389 z "},"é":{"ha":672,"x_min":44,"x_max":635,"o":"m 285 794 q 275 790 279 792 q 265 789 271 789 q 226 811 242 789 q 210 857 210 833 q 233 900 210 888 l 417 989 q 426 991 422 990 q 435 992 431 992 q 474 969 458 992 q 490 924 490 947 q 485 900 490 911 q 465 882 479 889 l 285 794 m 349 668 q 458 649 406 668 q 549 595 510 629 q 612 513 589 561 q 635 407 635 465 q 624 338 635 363 q 594 301 613 313 q 552 286 575 289 q 506 283 529 283 l 224 283 l 224 263 q 268 165 224 201 q 386 129 313 129 q 446 138 421 129 q 490 156 471 146 q 526 174 510 165 q 557 182 542 182 q 585 174 572 182 q 606 153 597 165 q 620 126 615 140 q 625 103 625 113 q 608 65 625 85 q 558 27 590 44 q 481 -1 526 10 q 381 -12 436 -12 q 245 8 307 -12 q 139 65 183 28 q 69 156 94 103 q 44 272 44 208 l 44 390 q 68 497 44 446 q 133 585 92 547 q 229 646 174 624 q 349 668 285 668 m 426 389 q 458 396 449 389 q 467 426 467 403 q 431 506 467 475 q 344 536 394 536 q 260 507 297 536 q 224 428 224 478 l 224 389 l 426 389 z "},"ĕ":{"ha":672,"x_min":44,"x_max":635,"o":"m 349 668 q 458 649 406 668 q 549 595 510 629 q 612 513 589 561 q 635 407 635 465 q 624 338 635 363 q 594 301 613 313 q 552 286 575 289 q 506 283 529 283 l 224 283 l 224 263 q 268 165 224 201 q 386 129 313 129 q 446 138 421 129 q 490 156 471 146 q 526 174 510 165 q 557 182 542 182 q 585 174 572 182 q 606 153 597 165 q 620 126 615 140 q 625 103 625 113 q 608 65 625 85 q 558 27 590 44 q 481 -1 526 10 q 381 -12 436 -12 q 245 8 307 -12 q 139 65 183 28 q 69 156 94 103 q 44 272 44 208 l 44 390 q 68 497 44 446 q 133 585 92 547 q 229 646 174 624 q 349 668 285 668 m 426 389 q 458 396 449 389 q 467 426 467 403 q 431 506 467 475 q 344 536 394 536 q 260 507 297 536 q 224 428 224 478 l 224 389 l 426 389 m 531 1001 q 515 931 531 964 q 474 872 500 897 q 414 832 447 847 q 346 817 381 817 q 276 832 310 817 q 217 872 243 847 q 176 931 192 897 q 161 1001 161 964 l 258 1001 q 285 926 258 956 q 346 897 313 897 q 406 926 378 897 q 433 1001 433 956 l 531 1001 z "},"ě":{"ha":672,"x_min":44,"x_max":635,"o":"m 349 919 l 490 1011 q 507 1017 500 1017 q 535 999 525 1017 q 546 963 546 982 q 517 910 546 928 l 374 818 q 349 810 358 810 q 324 818 336 810 l 181 910 q 150 963 150 928 q 161 999 150 982 q 189 1017 172 1017 q 206 1011 199 1017 l 349 919 m 349 668 q 458 649 406 668 q 549 595 510 629 q 612 513 589 561 q 635 407 635 465 q 624 338 635 363 q 594 301 613 313 q 552 286 575 289 q 506 283 529 283 l 224 283 l 224 263 q 268 165 224 201 q 386 129 313 129 q 446 138 421 129 q 490 156 471 146 q 526 174 510 165 q 557 182 542 182 q 585 174 572 182 q 606 153 597 165 q 620 126 615 140 q 625 103 625 113 q 608 65 625 85 q 558 27 590 44 q 481 -1 526 10 q 381 -12 436 -12 q 245 8 307 -12 q 139 65 183 28 q 69 156 94 103 q 44 272 44 208 l 44 390 q 68 497 44 446 q 133 585 92 547 q 229 646 174 624 q 349 668 285 668 m 426 389 q 458 396 449 389 q 467 426 467 403 q 431 506 467 475 q 344 536 394 536 q 260 507 297 536 q 224 428 224 478 l 224 389 l 426 389 z "},"ê":{"ha":672,"x_min":44,"x_max":635,"o":"m 201 804 q 186 800 193 800 q 158 817 169 800 q 147 856 147 833 q 154 885 147 871 q 178 907 161 899 l 322 985 q 346 992 333 992 q 369 985 356 992 l 514 908 q 536 884 529 899 q 543 854 543 869 q 532 817 543 833 q 504 800 521 800 q 490 804 496 800 l 346 882 l 201 804 m 349 668 q 458 649 406 668 q 549 595 510 629 q 612 513 589 561 q 635 407 635 465 q 624 338 635 363 q 594 301 613 313 q 552 286 575 289 q 506 283 529 283 l 224 283 l 224 263 q 268 165 224 201 q 386 129 313 129 q 446 138 421 129 q 490 156 471 146 q 526 174 510 165 q 557 182 542 182 q 585 174 572 182 q 606 153 597 165 q 620 126 615 140 q 625 103 625 113 q 608 65 625 85 q 558 27 590 44 q 481 -1 526 10 q 381 -12 436 -12 q 245 8 307 -12 q 139 65 183 28 q 69 156 94 103 q 44 272 44 208 l 44 390 q 68 497 44 446 q 133 585 92 547 q 229 646 174 624 q 349 668 285 668 m 426 389 q 458 396 449 389 q 467 426 467 403 q 431 506 467 475 q 344 536 394 536 q 260 507 297 536 q 224 428 224 478 l 224 389 l 426 389 z "},"ë":{"ha":672,"x_min":44,"x_max":635,"o":"m 240 947 q 290 926 269 947 q 310 875 310 904 q 290 824 310 846 q 240 801 269 801 q 190 824 211 801 q 169 875 169 846 q 190 926 169 904 q 240 947 211 947 m 449 947 q 497 926 476 947 q 518 875 518 904 q 497 824 518 846 q 449 801 476 801 q 397 824 418 801 q 376 875 376 846 q 397 926 376 904 q 449 947 418 947 m 349 668 q 458 649 406 668 q 549 595 510 629 q 612 513 589 561 q 635 407 635 465 q 624 338 635 363 q 594 301 613 313 q 552 286 575 289 q 506 283 529 283 l 224 283 l 224 263 q 268 165 224 201 q 386 129 313 129 q 446 138 421 129 q 490 156 471 146 q 526 174 510 165 q 557 182 542 182 q 585 174 572 182 q 606 153 597 165 q 620 126 615 140 q 625 103 625 113 q 608 65 625 85 q 558 27 590 44 q 481 -1 526 10 q 381 -12 436 -12 q 245 8 307 -12 q 139 65 183 28 q 69 156 94 103 q 44 272 44 208 l 44 390 q 68 497 44 446 q 133 585 92 547 q 229 646 174 624 q 349 668 285 668 m 426 389 q 458 396 449 389 q 467 426 467 403 q 431 506 467 475 q 344 536 394 536 q 260 507 297 536 q 224 428 224 478 l 224 389 l 426 389 z "},"ė":{"ha":672,"x_min":44,"x_max":635,"o":"m 349 668 q 458 649 406 668 q 549 595 510 629 q 612 513 589 561 q 635 407 635 465 q 624 338 635 363 q 594 301 613 313 q 552 286 575 289 q 506 283 529 283 l 224 283 l 224 263 q 268 165 224 201 q 386 129 313 129 q 446 138 421 129 q 490 156 471 146 q 526 174 510 165 q 557 182 542 182 q 585 174 572 182 q 606 153 597 165 q 620 126 615 140 q 625 103 625 113 q 608 65 625 85 q 558 27 590 44 q 481 -1 526 10 q 381 -12 436 -12 q 245 8 307 -12 q 139 65 183 28 q 69 156 94 103 q 44 272 44 208 l 44 390 q 68 497 44 446 q 133 585 92 547 q 229 646 174 624 q 349 668 285 668 m 426 389 q 458 396 449 389 q 467 426 467 403 q 431 506 467 475 q 344 536 394 536 q 260 507 297 536 q 224 428 224 478 l 224 389 l 426 389 m 346 947 q 395 926 375 947 q 415 875 415 904 q 395 824 415 846 q 346 801 375 801 q 296 824 317 801 q 275 875 275 846 q 296 926 275 904 q 346 947 317 947 z "},"è":{"ha":672,"x_min":44,"x_max":635,"o":"m 349 668 q 458 649 406 668 q 549 595 510 629 q 612 513 589 561 q 635 407 635 465 q 624 338 635 363 q 594 301 613 313 q 552 286 575 289 q 506 283 529 283 l 224 283 l 224 263 q 268 165 224 201 q 386 129 313 129 q 446 138 421 129 q 490 156 471 146 q 526 174 510 165 q 557 182 542 182 q 585 174 572 182 q 606 153 597 165 q 620 126 615 140 q 625 103 625 113 q 608 65 625 85 q 558 27 590 44 q 481 -1 526 10 q 381 -12 436 -12 q 245 8 307 -12 q 139 65 183 28 q 69 156 94 103 q 44 272 44 208 l 44 390 q 68 497 44 446 q 133 585 92 547 q 229 646 174 624 q 349 668 285 668 m 426 389 q 458 396 449 389 q 467 426 467 403 q 431 506 467 475 q 344 536 394 536 q 260 507 297 536 q 224 428 224 478 l 224 389 l 426 389 m 213 882 q 193 900 199 889 q 188 924 188 911 q 203 969 188 947 q 243 992 219 992 q 251 991 247 992 q 261 989 256 990 l 444 900 q 468 857 468 888 q 452 811 468 833 q 413 789 436 789 q 403 790 407 789 q 393 794 399 792 l 213 882 z "},"₈":{"ha":465,"x_min":35,"x_max":431,"o":"m 233 556 q 362 524 313 556 q 411 419 411 492 q 389 344 411 372 q 331 304 367 315 q 403 254 376 289 q 431 161 431 219 l 431 151 q 415 80 431 110 q 374 31 400 50 q 311 4 347 13 q 233 -4 275 -4 q 156 4 192 -4 q 92 31 119 13 q 50 80 65 50 q 35 151 35 110 l 35 161 q 63 254 35 219 q 135 304 90 289 q 76 344 99 315 q 54 419 54 372 q 104 524 54 492 q 233 556 154 556 m 311 183 q 290 237 311 219 q 233 254 269 254 q 175 237 196 254 q 154 183 154 219 l 154 167 q 176 108 154 126 q 233 90 197 90 q 311 167 311 90 l 311 183 m 233 460 q 169 404 169 460 q 186 363 169 375 q 233 350 203 350 q 280 363 264 350 q 296 404 296 375 q 233 460 296 460 z "},"⁸":{"ha":464,"x_min":33,"x_max":429,"o":"m 232 1015 q 360 983 311 1015 q 410 881 410 951 q 388 803 410 832 q 329 764 365 775 q 402 715 375 749 q 429 622 429 681 l 429 613 q 414 541 429 571 q 372 492 399 511 q 310 465 346 474 q 232 456 274 456 q 154 465 190 456 q 91 492 118 474 q 49 541 64 511 q 33 613 33 571 l 33 622 q 61 715 33 681 q 133 764 89 749 q 75 803 97 775 q 53 881 53 832 q 103 983 53 951 q 232 1015 153 1015 m 310 643 q 289 698 310 681 q 232 715 268 715 q 174 698 194 715 q 153 643 153 681 l 153 626 q 174 569 153 588 q 232 550 196 550 q 310 626 310 550 l 310 643 m 232 921 q 168 865 168 921 q 185 824 168 836 q 232 811 201 811 q 278 824 263 811 q 294 865 294 836 q 232 921 294 921 z "},"…":{"ha":799,"x_min":39,"x_max":760,"o":"m 133 181 q 199 153 171 181 q 226 86 226 125 q 199 20 226 49 q 133 -8 171 -8 q 66 20 93 -8 q 39 86 39 49 q 66 153 39 125 q 133 181 93 181 m 401 181 q 467 153 439 181 q 494 86 494 125 q 467 20 494 49 q 401 -8 439 -8 q 334 20 361 -8 q 307 86 307 49 q 334 153 307 125 q 401 181 361 181 m 667 181 q 732 153 704 181 q 760 86 760 125 q 732 20 760 49 q 667 -8 704 -8 q 599 20 626 -8 q 572 86 572 49 q 599 153 572 125 q 667 181 626 181 z "},"ē":{"ha":672,"x_min":44,"x_max":635,"o":"m 349 668 q 458 649 406 668 q 549 595 510 629 q 612 513 589 561 q 635 407 635 465 q 624 338 635 363 q 594 301 613 313 q 552 286 575 289 q 506 283 529 283 l 224 283 l 224 263 q 268 165 224 201 q 386 129 313 129 q 446 138 421 129 q 490 156 471 146 q 526 174 510 165 q 557 182 542 182 q 585 174 572 182 q 606 153 597 165 q 620 126 615 140 q 625 103 625 113 q 608 65 625 85 q 558 27 590 44 q 481 -1 526 10 q 381 -12 436 -12 q 245 8 307 -12 q 139 65 183 28 q 69 156 94 103 q 44 272 44 208 l 44 390 q 68 497 44 446 q 133 585 92 547 q 229 646 174 624 q 349 668 285 668 m 426 389 q 458 396 449 389 q 467 426 467 403 q 431 506 467 475 q 344 536 394 536 q 260 507 297 536 q 224 428 224 478 l 224 389 l 426 389 m 149 906 q 164 948 149 931 q 204 965 179 965 l 489 965 q 528 948 511 965 q 546 906 546 931 q 528 863 546 879 q 489 847 511 847 l 204 847 q 164 863 179 847 q 149 906 149 879 z "},"—":{"ha":1047,"x_min":50,"x_max":997,"o":"m 50 333 q 65 387 50 365 q 106 408 81 408 l 940 408 q 980 387 963 408 q 997 333 997 365 q 980 280 997 300 q 940 260 963 260 l 106 260 q 65 280 81 260 q 50 333 50 300 z "},"–":{"ha":657,"x_min":50,"x_max":608,"o":"m 50 333 q 65 387 50 365 q 106 408 81 408 l 550 408 q 590 387 572 408 q 608 333 608 365 q 590 280 608 300 q 550 260 572 260 l 106 260 q 65 280 81 260 q 50 333 50 300 z "},"ŋ":{"ha":728,"x_min":69,"x_max":663,"o":"m 424 668 q 515 646 471 668 q 591 585 558 624 q 643 495 624 546 q 663 386 663 444 l 663 -44 q 649 -151 663 -103 q 610 -233 636 -199 q 544 -287 583 -268 q 453 -307 504 -307 q 407 -301 425 -307 q 378 -284 389 -294 q 364 -260 368 -274 q 360 -233 360 -247 q 380 -176 360 -197 q 428 -156 400 -156 q 474 -124 464 -156 q 483 -44 483 -93 l 483 386 q 474 432 483 410 q 448 472 464 454 q 410 501 432 490 q 363 511 388 511 q 284 478 319 511 q 249 386 249 444 l 249 57 q 222 18 249 36 q 158 0 194 0 q 94 18 118 0 q 69 57 69 36 l 69 604 q 94 644 69 629 q 158 660 118 660 q 214 644 190 660 q 238 604 238 629 l 238 563 q 306 635 257 603 q 424 668 354 668 z "},"ę":{"ha":672,"x_min":44,"x_max":635,"o":"m 349 668 q 458 649 406 668 q 549 595 510 629 q 612 513 589 561 q 635 407 635 465 q 624 338 635 363 q 594 301 613 313 q 552 286 575 289 q 506 283 529 283 l 224 283 l 224 263 q 268 165 224 201 q 386 129 313 129 q 446 138 421 129 q 490 156 471 146 q 526 174 510 165 q 557 182 542 182 q 585 174 572 182 q 606 153 597 165 q 620 126 615 140 q 625 103 625 113 q 601 58 625 82 q 536 17 578 35 q 459 -58 490 -12 q 428 -147 428 -103 q 447 -195 428 -178 q 511 -212 467 -212 q 536 -226 529 -212 q 543 -253 543 -239 q 535 -278 543 -268 q 503 -289 528 -289 q 381 -254 422 -289 q 340 -164 340 -219 q 357 -85 340 -124 q 404 -11 374 -46 q 393 -12 399 -12 q 381 -12 388 -12 q 245 8 307 -12 q 139 65 183 28 q 69 156 94 103 q 44 272 44 208 l 44 390 q 68 497 44 446 q 133 585 92 547 q 229 646 174 624 q 349 668 285 668 m 426 389 q 458 396 449 389 q 467 426 467 403 q 431 506 467 475 q 344 536 394 536 q 260 507 297 536 q 224 428 224 478 l 224 389 l 426 389 z "},"=":{"ha":618,"x_min":74,"x_max":546,"o":"m 74 200 q 89 253 74 232 q 129 275 104 275 l 488 275 q 528 253 510 275 q 546 200 546 232 q 528 147 546 167 q 488 126 510 126 l 129 126 q 89 147 104 126 q 74 200 74 167 m 74 482 q 89 535 74 514 q 129 557 104 557 l 488 557 q 528 535 510 557 q 546 482 546 514 q 528 428 546 449 q 488 408 510 408 l 129 408 q 89 428 104 408 q 74 482 74 449 z "},"℮":{"ha":774,"x_min":50,"x_max":728,"o":"m 399 668 q 524 649 464 668 q 628 595 583 629 q 701 513 674 561 q 728 407 728 465 q 717 344 728 367 q 687 311 706 322 q 644 297 668 300 q 597 294 621 294 l 276 294 l 276 274 q 283 206 276 236 q 306 153 289 175 q 352 120 322 132 q 429 108 382 108 q 537 120 496 108 q 603 145 578 132 q 641 170 628 158 q 667 182 654 182 q 686 174 676 182 q 702 153 696 165 q 713 126 708 140 q 717 103 717 113 q 697 65 717 85 q 639 27 676 44 q 549 -1 601 10 q 431 -12 496 -12 q 277 10 347 -12 q 156 75 207 33 q 78 175 106 117 q 50 304 50 233 l 50 358 q 77 477 50 421 q 151 576 104 533 q 263 643 199 618 q 399 668 326 668 m 474 378 q 505 385 496 378 q 514 415 514 392 q 483 528 514 496 q 396 561 453 561 q 308 530 340 561 q 276 417 276 499 l 276 378 l 474 378 z "},"ð":{"ha":711,"x_min":44,"x_max":650,"o":"m 556 864 q 625 676 600 778 q 650 483 650 575 l 650 272 q 626 164 650 215 q 560 74 601 113 q 463 11 518 35 q 347 -12 408 -12 q 231 11 286 -12 q 135 74 176 35 q 69 165 93 114 q 44 272 44 217 l 44 386 q 64 495 44 444 q 117 585 83 546 q 194 646 150 624 q 290 668 239 668 q 401 636 353 668 q 471 560 450 604 q 451 676 468 622 q 408 774 433 731 l 335 731 q 317 725 328 725 q 273 749 293 725 q 253 797 253 772 q 274 832 253 819 l 338 869 q 313 888 326 882 q 286 897 299 894 q 260 922 272 908 q 249 960 249 936 q 253 986 249 971 q 267 1015 257 1001 q 295 1037 278 1028 q 338 1046 313 1046 q 417 1024 378 1046 q 492 963 457 1003 l 569 1010 q 588 1014 578 1014 q 630 991 611 1014 q 649 944 649 968 q 629 908 649 919 l 556 864 m 224 272 q 233 224 224 247 q 260 184 243 201 q 299 156 276 167 q 347 144 322 144 q 396 156 374 144 q 435 184 418 167 q 461 224 451 201 q 471 272 471 247 l 471 388 q 460 437 471 414 q 432 476 450 460 q 392 502 414 493 q 346 511 369 511 q 297 501 319 511 q 258 472 275 490 q 233 432 242 454 q 224 386 224 410 l 224 272 z "},"!":{"ha":306,"x_min":58,"x_max":247,"o":"m 239 944 q 236 797 239 875 q 229 639 233 719 q 222 480 225 558 q 219 333 219 401 q 196 293 219 306 q 151 281 172 281 q 103 293 124 281 q 83 333 83 306 q 81 480 83 401 q 74 639 78 558 q 68 797 71 719 q 65 944 65 875 q 90 1001 65 981 q 151 1021 115 1021 q 213 1001 188 1021 q 239 944 239 981 m 153 181 q 219 153 192 181 q 247 86 247 125 q 219 20 247 49 q 153 -8 192 -8 q 85 20 113 -8 q 58 86 58 49 q 85 153 58 125 q 153 181 113 181 z "},"¡":{"ha":307,"x_min":58,"x_max":247,"o":"m 67 67 q 69 215 67 136 q 76 374 72 293 q 83 532 81 454 q 86 679 86 610 q 109 719 86 707 q 153 732 132 732 q 201 719 181 732 q 222 679 222 707 q 225 532 222 610 q 231 374 228 454 q 238 215 235 293 q 240 67 240 136 q 215 11 240 31 q 153 -8 190 -8 q 92 11 117 -8 q 67 67 67 31 m 153 831 q 86 858 114 831 q 58 926 58 886 q 86 992 58 964 q 153 1021 114 1021 q 220 992 193 1021 q 247 926 247 964 q 220 858 247 886 q 153 831 193 831 z "},"f":{"ha":472,"x_min":71,"x_max":465,"o":"m 250 660 l 419 660 q 453 639 442 660 q 465 594 465 618 q 453 549 465 569 q 419 529 442 529 l 250 529 l 250 56 q 222 15 250 31 q 158 0 194 0 q 96 15 121 0 q 71 56 71 31 l 71 772 q 90 881 71 831 q 143 967 110 931 q 221 1024 176 1003 q 315 1044 265 1044 l 397 1044 q 449 1021 432 1044 q 465 969 465 997 q 449 917 465 940 q 397 893 432 893 l 353 893 q 279 866 308 893 q 250 792 250 839 l 250 660 z "},"ﬁ":{"ha":786,"x_min":71,"x_max":718,"o":"m 626 660 q 691 644 664 660 q 718 604 718 629 l 718 57 q 691 18 718 36 q 626 0 664 0 q 563 18 588 0 q 539 57 539 36 l 539 604 q 563 644 539 629 q 626 660 588 660 m 415 893 q 294 856 339 893 q 250 747 250 819 l 250 660 l 392 660 q 427 639 415 660 q 439 594 439 618 q 427 549 439 569 q 392 529 415 529 l 250 529 l 250 56 q 222 15 250 31 q 158 0 194 0 q 96 15 121 0 q 71 56 71 31 l 71 740 q 94 857 71 801 q 163 954 118 913 q 270 1020 207 996 q 414 1044 333 1044 q 500 1038 457 1044 q 576 1017 543 1031 q 631 986 610 1004 q 651 946 651 968 q 647 920 651 938 q 635 885 643 903 q 616 855 628 868 q 588 842 604 842 q 562 850 575 842 q 530 867 549 858 q 484 885 511 876 q 415 893 457 893 z "},"⅝":{"ha":1097,"x_min":31,"x_max":1063,"o":"m 865 556 q 994 524 944 556 q 1043 419 1043 492 q 1021 344 1043 372 q 963 304 999 315 q 1035 254 1008 289 q 1063 161 1063 219 l 1063 151 q 1047 80 1063 110 q 1006 31 1032 50 q 943 4 979 13 q 865 -4 907 -4 q 788 4 824 -4 q 724 31 751 13 q 682 80 697 50 q 667 151 667 110 l 667 161 q 694 254 667 219 q 767 304 722 289 q 708 344 731 315 q 686 419 686 372 q 736 524 686 492 q 865 556 786 556 m 943 183 q 922 237 943 219 q 865 254 901 254 q 807 237 828 254 q 786 183 786 219 l 786 167 q 808 108 786 126 q 865 90 829 90 q 943 167 943 90 l 943 183 m 865 460 q 801 404 801 460 q 818 363 801 375 q 865 350 835 350 q 912 363 896 350 q 928 404 928 375 q 865 460 928 460 m 804 1071 q 851 1053 828 1071 q 874 1008 874 1036 q 868 983 874 994 l 368 -25 q 347 -48 361 -40 q 314 -56 332 -56 q 267 -36 285 -56 q 249 6 249 -17 q 254 29 249 15 l 754 1042 q 775 1064 761 1057 q 804 1071 789 1071 m 228 811 q 306 802 269 811 q 368 774 342 793 q 410 723 394 754 q 425 646 425 692 l 425 631 q 410 550 425 583 q 368 496 394 517 q 306 465 342 475 q 229 456 269 456 q 143 467 181 456 q 81 499 106 479 q 43 544 56 519 q 31 596 31 569 q 46 639 31 628 q 89 650 61 650 q 140 638 129 650 q 150 606 150 625 q 170 572 150 583 q 225 560 190 560 q 284 576 263 560 q 306 631 306 593 l 306 646 q 285 700 306 682 q 228 718 264 718 l 104 718 q 67 731 76 718 q 58 765 58 744 q 58 778 58 772 q 60 792 58 783 l 79 979 q 103 1015 83 1015 l 360 1015 q 388 999 379 1015 q 396 964 396 983 q 388 928 396 944 q 360 911 379 911 l 179 911 l 169 811 l 228 811 z "},"₅":{"ha":449,"x_min":25,"x_max":419,"o":"m 222 351 q 300 342 264 351 q 363 314 336 333 q 404 263 389 294 q 419 185 419 231 l 419 171 q 404 89 419 122 q 363 35 389 56 q 300 5 336 14 q 224 -4 264 -4 q 138 8 175 -4 q 75 40 100 19 q 38 85 50 60 q 25 136 25 110 q 40 179 25 168 q 83 190 56 190 q 134 177 124 190 q 144 144 144 164 q 165 111 144 122 q 219 100 185 100 q 278 117 257 100 q 300 171 300 133 l 300 185 q 279 240 300 222 q 222 258 258 258 l 99 258 q 62 272 71 258 q 53 306 53 285 q 53 318 53 313 q 54 332 53 324 l 74 518 q 97 556 78 556 l 354 556 q 382 540 374 556 q 390 504 390 524 q 382 468 390 485 q 354 451 374 451 l 174 451 l 164 351 l 222 351 z "},"⁵":{"ha":449,"x_min":25,"x_max":419,"o":"m 222 811 q 300 802 264 811 q 363 774 336 793 q 404 723 389 754 q 419 646 419 692 l 419 631 q 404 550 419 583 q 363 496 389 517 q 300 465 336 475 q 224 456 264 456 q 138 467 175 456 q 75 499 100 479 q 38 544 50 519 q 25 596 25 569 q 40 639 25 628 q 83 650 56 650 q 134 638 124 650 q 144 606 144 625 q 165 572 144 583 q 219 560 185 560 q 278 576 257 560 q 300 631 300 593 l 300 646 q 279 700 300 682 q 222 718 258 718 l 99 718 q 62 731 71 718 q 53 765 53 744 q 53 778 53 772 q 54 792 53 783 l 74 979 q 97 1015 78 1015 l 354 1015 q 382 999 374 1015 q 390 964 390 983 q 382 928 390 944 q 354 911 374 911 l 174 911 l 164 811 l 222 811 z "},"ﬂ":{"ha":801,"x_min":71,"x_max":719,"o":"m 540 867 q 491 888 521 881 q 429 896 461 896 q 364 887 396 896 q 306 859 332 878 q 265 813 281 840 q 250 747 250 785 l 250 660 l 392 660 q 427 639 415 660 q 439 594 439 618 q 427 549 439 569 q 392 529 415 529 l 250 529 l 250 56 q 222 15 250 31 q 158 0 194 0 q 96 15 121 0 q 71 56 71 31 l 71 740 q 101 871 71 814 q 181 966 131 928 q 298 1024 232 1004 q 436 1044 364 1044 q 514 1039 474 1044 q 593 1023 554 1033 q 665 996 632 1013 q 719 957 697 979 l 719 57 q 693 18 719 36 q 628 0 667 0 q 565 18 590 0 q 540 57 540 36 l 540 867 z "},"ƒ":{"ha":536,"x_min":-100,"x_max":585,"o":"m 308 618 l 481 618 q 515 598 504 618 q 526 554 526 578 q 515 508 526 528 q 479 488 503 488 l 289 488 l 236 104 q 210 -7 228 46 q 161 -101 192 -60 q 88 -166 131 -142 q -11 -190 46 -190 l -46 -190 q -86 -167 -72 -190 q -100 -111 -100 -143 q -83 -49 -100 -75 q -39 -24 -65 -24 l -8 -24 q 37 15 19 -24 q 61 104 54 53 l 154 788 q 190 897 163 846 q 258 985 217 947 q 351 1044 300 1022 q 460 1067 403 1067 l 532 1067 q 570 1045 556 1067 q 585 992 585 1024 q 567 933 585 956 q 525 910 549 910 l 457 910 q 373 876 404 910 q 333 788 342 842 l 308 618 z "},"₄":{"ha":440,"x_min":6,"x_max":432,"o":"m 239 117 l 44 117 q 17 127 28 117 q 6 158 6 138 q 11 181 6 169 l 203 525 q 226 548 213 540 q 253 556 239 556 q 271 552 261 556 q 290 543 281 549 q 306 529 300 538 q 313 511 313 521 q 308 496 313 501 l 158 226 l 239 226 l 239 279 q 258 307 239 299 q 299 315 276 315 q 341 307 322 315 q 360 279 360 299 l 360 226 l 396 226 q 424 210 415 226 q 432 172 432 193 q 421 134 432 151 q 396 117 410 117 l 360 117 l 360 36 q 341 9 360 18 q 299 0 322 0 q 258 9 276 0 q 239 36 239 18 l 239 117 z "},"⁴":{"ha":440,"x_min":6,"x_max":432,"o":"m 239 578 l 44 578 q 17 588 28 578 q 6 618 6 599 q 11 640 6 629 l 203 985 q 226 1008 213 1001 q 253 1015 239 1015 q 271 1013 261 1015 q 290 1003 281 1010 q 306 989 300 997 q 313 971 313 981 q 308 956 313 964 l 158 688 l 239 688 l 239 739 q 258 767 239 758 q 299 775 276 775 q 341 767 322 775 q 360 739 360 758 l 360 688 l 396 688 q 424 670 415 688 q 432 632 432 653 q 421 595 432 613 q 396 578 410 578 l 360 578 l 360 497 q 341 469 360 478 q 299 460 322 460 q 258 469 276 460 q 239 497 239 478 l 239 578 z "},"⁄":{"ha":258,"x_min":-183,"x_max":442,"o":"m 372 1071 q 419 1053 396 1071 q 442 1008 442 1036 q 436 983 442 994 l -64 -25 q -85 -48 -71 -40 q -118 -56 -100 -56 q -165 -36 -147 -56 q -183 6 -183 -17 q -178 29 -183 15 l 322 1042 q 343 1064 329 1057 q 372 1071 357 1071 z "},"g":{"ha":653,"x_min":21,"x_max":633,"o":"m 319 178 q 229 190 268 178 q 213 163 213 176 q 244 131 213 140 q 321 115 275 121 q 422 100 367 108 q 522 72 476 92 q 599 14 568 51 q 631 -89 631 -24 q 605 -188 631 -147 q 538 -256 579 -229 q 441 -294 496 -282 q 328 -307 386 -307 q 211 -294 267 -307 q 113 -256 156 -281 q 46 -194 71 -231 q 21 -111 21 -158 q 50 -22 21 -58 q 122 36 79 14 q 80 69 96 49 q 64 125 64 90 q 83 188 64 164 q 135 233 103 213 q 72 310 94 265 q 49 410 49 356 l 49 439 q 68 531 49 489 q 123 604 88 574 q 208 651 158 635 q 319 668 258 668 q 406 658 365 668 q 478 628 446 647 q 522 703 501 683 q 563 722 543 722 q 615 703 597 722 q 633 667 633 683 q 627 644 633 654 q 611 628 621 635 q 579 606 597 618 q 546 575 561 594 q 594 439 594 518 l 594 410 q 574 317 594 360 q 517 244 554 275 q 430 195 481 213 q 319 178 379 178 m 421 439 q 395 524 421 489 q 321 560 369 560 q 247 524 272 560 q 222 439 222 489 l 222 411 q 248 322 222 358 q 322 286 274 286 q 394 321 368 286 q 421 410 421 356 l 421 439 m 457 -94 q 440 -48 457 -65 q 394 -20 422 -31 q 333 -6 367 -10 q 265 3 299 -1 q 211 -37 232 -12 q 190 -93 190 -61 q 230 -166 190 -140 q 325 -192 269 -192 q 419 -165 381 -192 q 457 -94 457 -139 z "},"ğ":{"ha":653,"x_min":21,"x_max":633,"o":"m 319 178 q 229 190 268 178 q 213 163 213 176 q 244 131 213 140 q 321 115 275 121 q 422 100 367 108 q 522 72 476 92 q 599 14 568 51 q 631 -89 631 -24 q 605 -188 631 -147 q 538 -256 579 -229 q 441 -294 496 -282 q 328 -307 386 -307 q 211 -294 267 -307 q 113 -256 156 -281 q 46 -194 71 -231 q 21 -111 21 -158 q 50 -22 21 -58 q 122 36 79 14 q 80 69 96 49 q 64 125 64 90 q 83 188 64 164 q 135 233 103 213 q 72 310 94 265 q 49 410 49 356 l 49 439 q 68 531 49 489 q 123 604 88 574 q 208 651 158 635 q 319 668 258 668 q 406 658 365 668 q 478 628 446 647 q 522 703 501 683 q 563 722 543 722 q 615 703 597 722 q 633 667 633 683 q 627 644 633 654 q 611 628 621 635 q 579 606 597 618 q 546 575 561 594 q 594 439 594 518 l 594 410 q 574 317 594 360 q 517 244 554 275 q 430 195 481 213 q 319 178 379 178 m 421 439 q 395 524 421 489 q 321 560 369 560 q 247 524 272 560 q 222 439 222 489 l 222 411 q 248 322 222 358 q 322 286 274 286 q 394 321 368 286 q 421 410 421 356 l 421 439 m 457 -94 q 440 -48 457 -65 q 394 -20 422 -31 q 333 -6 367 -10 q 265 3 299 -1 q 211 -37 232 -12 q 190 -93 190 -61 q 230 -166 190 -140 q 325 -192 269 -192 q 419 -165 381 -192 q 457 -94 457 -139 m 510 1001 q 494 931 510 964 q 453 872 479 897 q 393 832 426 847 q 325 817 360 817 q 256 832 289 817 q 197 872 222 847 q 156 931 171 897 q 140 1001 140 964 l 238 1001 q 265 926 238 956 q 325 897 292 897 q 385 926 357 897 q 413 1001 413 956 l 510 1001 z "},"ĝ":{"ha":653,"x_min":21,"x_max":633,"o":"m 182 804 q 167 800 174 800 q 139 817 150 800 q 128 856 128 833 q 135 885 128 871 q 158 907 142 899 l 303 985 q 326 992 314 992 q 350 985 336 992 l 494 908 q 517 884 510 899 q 524 854 524 869 q 513 817 524 833 q 485 800 501 800 q 471 804 476 800 l 326 882 l 182 804 m 319 178 q 229 190 268 178 q 213 163 213 176 q 244 131 213 140 q 321 115 275 121 q 422 100 367 108 q 522 72 476 92 q 599 14 568 51 q 631 -89 631 -24 q 605 -188 631 -147 q 538 -256 579 -229 q 441 -294 496 -282 q 328 -307 386 -307 q 211 -294 267 -307 q 113 -256 156 -281 q 46 -194 71 -231 q 21 -111 21 -158 q 50 -22 21 -58 q 122 36 79 14 q 80 69 96 49 q 64 125 64 90 q 83 188 64 164 q 135 233 103 213 q 72 310 94 265 q 49 410 49 356 l 49 439 q 68 531 49 489 q 123 604 88 574 q 208 651 158 635 q 319 668 258 668 q 406 658 365 668 q 478 628 446 647 q 522 703 501 683 q 563 722 543 722 q 615 703 597 722 q 633 667 633 683 q 627 644 633 654 q 611 628 621 635 q 579 606 597 618 q 546 575 561 594 q 594 439 594 518 l 594 410 q 574 317 594 360 q 517 244 554 275 q 430 195 481 213 q 319 178 379 178 m 421 439 q 395 524 421 489 q 321 560 369 560 q 247 524 272 560 q 222 439 222 489 l 222 411 q 248 322 222 358 q 322 286 274 286 q 394 321 368 286 q 421 410 421 356 l 421 439 m 457 -94 q 440 -48 457 -65 q 394 -20 422 -31 q 333 -6 367 -10 q 265 3 299 -1 q 211 -37 232 -12 q 190 -93 190 -61 q 230 -166 190 -140 q 325 -192 269 -192 q 419 -165 381 -192 q 457 -94 457 -139 z "},"ģ":{"ha":653,"x_min":21,"x_max":633,"o":"m 281 794 q 271 790 275 792 q 261 789 267 789 q 222 811 238 789 q 206 857 206 833 q 229 900 206 888 l 413 989 q 422 991 418 990 q 431 992 426 992 q 470 969 454 992 q 486 924 486 947 q 481 900 486 911 q 461 882 475 889 l 281 794 m 319 178 q 229 190 268 178 q 213 163 213 176 q 244 131 213 140 q 321 115 275 121 q 422 100 367 108 q 522 72 476 92 q 599 14 568 51 q 631 -89 631 -24 q 605 -188 631 -147 q 538 -256 579 -229 q 441 -294 496 -282 q 328 -307 386 -307 q 211 -294 267 -307 q 113 -256 156 -281 q 46 -194 71 -231 q 21 -111 21 -158 q 50 -22 21 -58 q 122 36 79 14 q 80 69 96 49 q 64 125 64 90 q 83 188 64 164 q 135 233 103 213 q 72 310 94 265 q 49 410 49 356 l 49 439 q 68 531 49 489 q 123 604 88 574 q 208 651 158 635 q 319 668 258 668 q 406 658 365 668 q 478 628 446 647 q 522 703 501 683 q 563 722 543 722 q 615 703 597 722 q 633 667 633 683 q 627 644 633 654 q 611 628 621 635 q 579 606 597 618 q 546 575 561 594 q 594 439 594 518 l 594 410 q 574 317 594 360 q 517 244 554 275 q 430 195 481 213 q 319 178 379 178 m 421 439 q 395 524 421 489 q 321 560 369 560 q 247 524 272 560 q 222 439 222 489 l 222 411 q 248 322 222 358 q 322 286 274 286 q 394 321 368 286 q 421 410 421 356 l 421 439 m 457 -94 q 440 -48 457 -65 q 394 -20 422 -31 q 333 -6 367 -10 q 265 3 299 -1 q 211 -37 232 -12 q 190 -93 190 -61 q 230 -166 190 -140 q 325 -192 269 -192 q 419 -165 381 -192 q 457 -94 457 -139 m 331 1069 q 264 1097 292 1069 q 236 1163 236 1125 q 238 1180 236 1169 q 249 1212 240 1190 q 272 1270 257 1233 q 314 1367 288 1307 q 330 1384 319 1379 q 350 1389 340 1389 q 390 1377 369 1389 q 410 1342 410 1365 q 406 1322 410 1335 l 372 1249 q 410 1214 396 1236 q 424 1164 424 1192 q 397 1097 424 1125 q 331 1069 369 1069 z "},"ġ":{"ha":653,"x_min":21,"x_max":633,"o":"m 319 178 q 229 190 268 178 q 213 163 213 176 q 244 131 213 140 q 321 115 275 121 q 422 100 367 108 q 522 72 476 92 q 599 14 568 51 q 631 -89 631 -24 q 605 -188 631 -147 q 538 -256 579 -229 q 441 -294 496 -282 q 328 -307 386 -307 q 211 -294 267 -307 q 113 -256 156 -281 q 46 -194 71 -231 q 21 -111 21 -158 q 50 -22 21 -58 q 122 36 79 14 q 80 69 96 49 q 64 125 64 90 q 83 188 64 164 q 135 233 103 213 q 72 310 94 265 q 49 410 49 356 l 49 439 q 68 531 49 489 q 123 604 88 574 q 208 651 158 635 q 319 668 258 668 q 406 658 365 668 q 478 628 446 647 q 522 703 501 683 q 563 722 543 722 q 615 703 597 722 q 633 667 633 683 q 627 644 633 654 q 611 628 621 635 q 579 606 597 618 q 546 575 561 594 q 594 439 594 518 l 594 410 q 574 317 594 360 q 517 244 554 275 q 430 195 481 213 q 319 178 379 178 m 421 439 q 395 524 421 489 q 321 560 369 560 q 247 524 272 560 q 222 439 222 489 l 222 411 q 248 322 222 358 q 322 286 274 286 q 394 321 368 286 q 421 410 421 356 l 421 439 m 457 -94 q 440 -48 457 -65 q 394 -20 422 -31 q 333 -6 367 -10 q 265 3 299 -1 q 211 -37 232 -12 q 190 -93 190 -61 q 230 -166 190 -140 q 325 -192 269 -192 q 419 -165 381 -192 q 457 -94 457 -139 m 325 947 q 374 926 354 947 q 394 875 394 904 q 374 824 394 846 q 325 801 354 801 q 275 824 296 801 q 254 875 254 846 q 275 926 254 904 q 325 947 296 947 z "},"ß":{"ha":833,"x_min":4,"x_max":794,"o":"m 489 -28 q 441 -26 465 -28 q 397 -15 417 -24 q 364 10 376 -7 q 351 56 351 26 q 353 83 351 68 q 361 110 356 97 q 375 131 367 122 q 394 140 383 140 q 431 132 410 140 q 488 124 453 124 q 585 163 550 124 q 619 276 619 203 l 619 294 q 607 378 619 343 q 572 437 594 413 q 519 476 550 461 q 451 499 488 490 q 411 519 426 506 q 396 572 396 532 q 410 622 396 611 q 453 639 425 632 q 490 658 476 643 q 512 691 504 672 q 522 731 519 710 q 525 769 525 751 q 499 870 525 831 q 413 910 474 910 q 362 899 382 910 q 329 872 342 889 q 312 833 317 856 q 307 788 307 811 l 307 56 q 279 15 307 31 q 215 0 251 0 q 153 15 179 0 q 128 56 128 31 l 128 529 l 50 529 q 15 549 26 529 q 4 594 4 569 q 15 639 4 618 q 50 660 26 660 l 128 660 l 128 788 q 142 894 128 843 q 189 983 157 944 q 273 1044 221 1021 q 399 1067 325 1067 q 506 1051 456 1067 q 592 1005 556 1036 q 651 925 629 974 q 672 811 672 876 q 647 679 672 742 q 578 593 622 617 q 653 563 615 586 q 723 503 692 540 q 774 417 754 467 q 794 310 794 368 l 794 292 q 769 154 794 214 q 703 54 744 94 q 606 -7 661 14 q 489 -28 550 -28 z "},"`":{"ha":281,"x_min":0,"x_max":281,"o":"m 25 882 q 6 900 11 889 q 0 924 0 911 q 16 969 0 947 q 56 992 32 992 q 64 991 60 992 q 74 989 68 990 l 257 900 q 281 857 281 888 q 265 811 281 833 q 225 789 249 789 q 215 790 219 789 q 206 794 211 792 l 25 882 z "},">":{"ha":579,"x_min":54,"x_max":553,"o":"m 553 385 q 544 351 553 369 q 517 318 536 332 l 157 85 q 135 78 150 78 q 81 102 107 78 q 54 163 54 126 q 60 190 54 178 q 76 210 67 203 l 346 385 l 76 561 q 60 580 67 568 q 54 607 54 592 q 62 640 54 625 q 81 667 69 656 q 107 685 93 679 q 135 692 121 692 q 157 686 150 692 l 517 451 q 544 419 536 439 q 553 385 553 400 z "},"≥":{"ha":614,"x_min":67,"x_max":565,"o":"m 357 501 l 97 624 q 74 643 82 631 q 67 671 67 656 q 74 700 67 685 q 92 728 81 715 q 117 749 103 740 q 146 757 131 757 q 169 750 158 757 l 528 568 q 558 537 550 557 q 565 501 565 517 q 558 466 565 486 q 528 435 550 446 l 169 251 q 146 246 160 246 q 91 274 115 246 q 67 332 67 301 q 74 360 67 347 q 97 379 82 372 l 357 501 m 565 117 q 549 63 565 83 q 508 43 533 43 l 124 43 q 84 63 101 43 q 67 117 67 83 q 84 170 67 149 q 124 192 101 192 l 508 192 q 549 170 533 192 q 565 117 565 149 z "},"«":{"ha":693,"x_min":33,"x_max":644,"o":"m 325 211 q 329 193 329 203 q 320 163 329 179 q 295 134 311 147 q 259 112 279 121 q 217 103 239 103 q 167 126 179 103 l 65 315 q 42 355 51 342 q 33 383 33 368 q 42 414 33 400 q 65 454 51 428 l 167 643 q 218 667 179 667 q 260 658 240 667 q 296 635 281 649 q 320 606 311 622 q 329 576 329 590 q 325 560 329 565 l 232 385 l 325 211 m 640 211 q 644 193 644 203 q 635 163 644 179 q 611 134 626 147 q 576 112 596 121 q 533 103 556 103 q 483 126 494 103 l 381 315 q 358 355 367 342 q 349 383 349 368 q 358 414 349 400 q 381 454 367 428 l 483 643 q 533 667 494 667 q 576 658 556 667 q 611 635 596 649 q 635 606 626 622 q 644 576 644 590 q 640 560 644 565 l 547 385 l 640 211 z "},"»":{"ha":694,"x_min":49,"x_max":661,"o":"m 461 385 l 368 560 q 364 576 364 565 q 373 606 364 590 q 398 635 382 622 q 434 658 414 649 q 476 667 454 667 q 526 643 515 667 l 629 454 q 652 414 643 428 q 661 383 661 400 q 652 355 661 368 q 629 315 643 342 l 526 126 q 476 103 515 103 q 434 112 454 103 q 398 134 414 121 q 373 163 382 147 q 364 193 364 179 q 368 211 364 203 l 461 385 m 146 385 l 53 560 q 49 576 49 565 q 58 606 49 590 q 82 635 67 622 q 117 658 97 649 q 160 667 138 667 q 211 643 199 667 l 313 454 q 335 414 326 428 q 344 383 344 400 q 335 355 344 368 q 313 315 326 342 l 211 126 q 161 103 199 103 q 119 112 139 103 q 83 134 99 121 q 58 163 67 147 q 49 193 49 179 q 53 211 49 203 l 146 385 z "},"‹":{"ha":378,"x_min":33,"x_max":329,"o":"m 325 211 q 329 193 329 203 q 320 163 329 179 q 295 134 311 147 q 259 112 279 121 q 217 103 239 103 q 167 126 179 103 l 65 315 q 42 355 51 342 q 33 383 33 368 q 42 414 33 400 q 65 454 51 428 l 167 643 q 218 667 179 667 q 260 658 240 667 q 296 635 281 649 q 320 606 311 622 q 329 576 329 590 q 325 560 329 565 l 232 385 l 325 211 z "},"›":{"ha":378,"x_min":49,"x_max":344,"o":"m 146 385 l 53 560 q 49 576 49 565 q 58 606 49 590 q 82 635 67 622 q 117 658 97 649 q 160 667 138 667 q 210 643 199 667 l 313 454 q 335 414 326 428 q 344 383 344 400 q 335 355 344 368 q 313 315 326 342 l 210 126 q 160 103 199 103 q 117 112 138 103 q 82 134 97 121 q 58 163 67 147 q 49 193 49 179 q 53 211 49 203 l 146 385 z "},"h":{"ha":728,"x_min":71,"x_max":664,"o":"m 250 57 q 223 18 250 36 q 160 0 196 0 q 95 18 119 0 q 71 57 71 36 l 71 989 q 95 1029 71 1014 q 160 1044 119 1044 q 223 1029 196 1044 q 250 989 250 1014 l 250 563 q 314 635 269 603 q 425 668 358 668 q 516 646 472 668 q 592 585 560 624 q 644 495 625 546 q 664 386 664 444 l 664 57 q 635 15 664 29 q 574 0 607 0 q 513 15 542 0 q 485 57 485 29 l 485 386 q 475 432 485 410 q 449 472 465 454 q 410 501 432 490 q 364 511 389 511 q 285 478 321 511 q 250 386 250 444 l 250 57 z "},"ħ":{"ha":728,"x_min":-21,"x_max":664,"o":"m -21 829 q -6 872 -21 854 q 35 889 10 889 l 71 889 l 71 989 q 95 1029 71 1014 q 160 1044 119 1044 q 223 1029 196 1044 q 250 989 250 1014 l 250 889 l 319 889 q 359 872 342 889 q 376 829 376 854 q 359 787 376 803 q 319 771 342 771 l 250 771 l 250 563 q 314 635 269 603 q 425 668 358 668 q 516 646 472 668 q 592 585 560 624 q 644 495 625 546 q 664 386 664 444 l 664 57 q 635 15 664 29 q 574 0 607 0 q 513 15 542 0 q 485 57 485 29 l 485 386 q 475 432 485 410 q 449 472 465 454 q 410 501 432 490 q 364 511 389 511 q 285 478 321 511 q 250 386 250 444 l 250 57 q 223 18 250 36 q 160 0 196 0 q 95 18 119 0 q 71 57 71 36 l 71 771 l 35 771 q -6 787 10 771 q -21 829 -21 803 z "},"ĥ":{"ha":728,"x_min":-42,"x_max":664,"o":"m 13 1158 q -3 1154 4 1154 q -31 1171 -19 1154 q -42 1210 -42 1188 q -35 1239 -42 1225 q -11 1261 -28 1253 l 133 1339 q 157 1346 144 1346 q 181 1339 167 1346 l 325 1263 q 347 1238 340 1253 q 354 1208 354 1224 q 343 1171 354 1188 q 315 1154 332 1154 q 301 1158 307 1154 l 157 1236 l 13 1158 m 250 57 q 223 18 250 36 q 160 0 196 0 q 95 18 119 0 q 71 57 71 36 l 71 989 q 95 1029 71 1014 q 160 1044 119 1044 q 223 1029 196 1044 q 250 989 250 1014 l 250 563 q 314 635 269 603 q 425 668 358 668 q 516 646 472 668 q 592 585 560 624 q 644 495 625 546 q 664 386 664 444 l 664 57 q 635 15 664 29 q 574 0 607 0 q 513 15 542 0 q 485 57 485 29 l 485 386 q 475 432 485 410 q 449 472 465 454 q 410 501 432 490 q 364 511 389 511 q 285 478 321 511 q 250 386 250 444 l 250 57 z "},"˝":{"ha":424,"x_min":0,"x_max":424,"o":"m 82 799 q 56 786 71 786 q 17 803 35 786 q 0 839 0 819 q 10 861 0 851 l 126 983 q 153 994 136 994 q 189 977 172 994 q 206 942 206 960 q 196 918 206 928 l 82 799 m 300 799 q 274 786 289 786 q 235 803 253 786 q 218 839 218 819 q 228 861 218 851 l 344 983 q 371 994 356 994 q 407 977 390 994 q 424 942 424 960 q 414 918 424 928 l 300 799 z "},"-":{"ha":574,"x_min":50,"x_max":525,"o":"m 50 333 q 65 387 50 365 q 106 408 81 408 l 467 408 q 507 387 489 408 q 525 333 525 365 q 507 280 525 300 q 467 260 489 260 l 106 260 q 65 280 81 260 q 50 333 50 300 z "},"i":{"ha":318,"x_min":60,"x_max":256,"o":"m 158 660 q 222 644 196 660 q 249 604 249 629 l 249 57 q 222 18 249 36 q 158 0 196 0 q 94 18 119 0 q 69 57 69 36 l 69 604 q 94 644 69 629 q 158 660 119 660 m 158 982 q 227 956 199 982 q 256 894 256 931 q 227 833 256 860 q 158 807 199 807 q 88 833 117 807 q 60 894 60 860 q 88 956 60 931 q 158 982 117 982 z "},"í":{"ha":318,"x_min":42,"x_max":322,"o":"m 117 794 q 107 790 111 792 q 97 789 103 789 q 58 811 74 789 q 42 857 42 833 q 65 900 42 888 l 249 989 q 258 991 254 990 q 267 992 263 992 q 306 969 290 992 q 322 924 322 947 q 317 900 322 911 q 297 882 311 889 l 117 794 m 158 660 q 222 644 196 660 q 249 604 249 629 l 249 57 q 222 18 249 36 q 158 0 196 0 q 94 18 119 0 q 69 57 69 36 l 69 604 q 94 644 69 629 q 158 660 119 660 z "},"ĭ":{"ha":318,"x_min":-25,"x_max":344,"o":"m 158 660 q 222 644 196 660 q 249 604 249 629 l 249 57 q 222 18 249 36 q 158 0 196 0 q 94 18 119 0 q 69 57 69 36 l 69 604 q 94 644 69 629 q 158 660 119 660 m 344 1001 q 329 931 344 964 q 288 872 314 897 q 228 832 261 847 q 160 817 194 817 q 90 832 124 817 q 31 872 57 847 q -10 931 6 897 q -25 1001 -25 964 l 72 1001 q 99 926 72 956 q 160 897 126 897 q 219 926 192 897 q 247 1001 247 956 l 344 1001 z "},"î":{"ha":318,"x_min":-39,"x_max":357,"o":"m 15 804 q 0 800 7 800 q -28 817 -17 800 q -39 856 -39 833 q -32 885 -39 871 q -8 907 -25 899 l 136 985 q 160 992 147 992 q 183 985 169 992 l 328 908 q 350 884 343 899 q 357 854 357 869 q 346 817 357 833 q 318 800 335 800 q 304 804 310 800 l 160 882 l 15 804 m 158 660 q 222 644 196 660 q 249 604 249 629 l 249 57 q 222 18 249 36 q 158 0 196 0 q 94 18 119 0 q 69 57 69 36 l 69 604 q 94 644 69 629 q 158 660 119 660 z "},"ï":{"ha":318,"x_min":-11,"x_max":338,"o":"m 60 947 q 109 926 89 947 q 129 875 129 904 q 109 824 129 846 q 60 801 89 801 q 10 824 31 801 q -11 875 -11 846 q 10 926 -11 904 q 60 947 31 947 m 268 947 q 317 926 296 947 q 338 875 338 904 q 317 824 338 846 q 268 801 296 801 q 217 824 238 801 q 196 875 196 846 q 217 926 196 904 q 268 947 238 947 m 158 660 q 222 644 196 660 q 249 604 249 629 l 249 57 q 222 18 249 36 q 158 0 196 0 q 94 18 119 0 q 69 57 69 36 l 69 604 q 94 644 69 629 q 158 660 119 660 z "},"ì":{"ha":318,"x_min":-3,"x_max":278,"o":"m 158 660 q 222 644 196 660 q 249 604 249 629 l 249 57 q 222 18 249 36 q 158 0 196 0 q 94 18 119 0 q 69 57 69 36 l 69 604 q 94 644 69 629 q 158 660 119 660 m 22 882 q 3 900 8 889 q -3 924 -3 911 q 13 969 -3 947 q 53 992 29 992 q 61 991 57 992 q 71 989 65 990 l 254 900 q 278 857 278 888 q 262 811 278 833 q 222 789 246 789 q 213 790 217 789 q 203 794 208 792 l 22 882 z "},"ĳ":{"ha":608,"x_min":60,"x_max":544,"o":"m 158 660 q 222 644 196 660 q 249 604 249 629 l 249 57 q 222 18 249 36 q 158 0 196 0 q 94 18 119 0 q 69 57 69 36 l 69 604 q 94 644 69 629 q 158 660 119 660 m 158 982 q 227 956 199 982 q 256 894 256 931 q 227 833 256 860 q 158 807 199 807 q 88 833 117 807 q 60 894 60 860 q 88 956 60 931 q 158 982 117 982 m 447 982 q 516 956 488 982 q 544 894 544 931 q 516 833 544 860 q 447 807 488 807 q 377 833 406 807 q 349 894 349 860 q 377 956 349 931 q 447 982 406 982 m 446 660 q 511 644 485 660 q 538 604 538 629 l 538 -44 q 524 -151 538 -103 q 485 -233 511 -199 q 419 -287 458 -268 q 328 -307 379 -307 q 282 -301 300 -307 q 253 -284 264 -294 q 239 -260 243 -274 q 235 -233 235 -247 q 255 -176 235 -197 q 303 -156 275 -156 q 349 -124 340 -156 q 358 -44 358 -93 l 358 604 q 383 644 358 629 q 446 660 408 660 z "},"ī":{"ha":318,"x_min":-39,"x_max":358,"o":"m 158 660 q 222 644 196 660 q 249 604 249 629 l 249 57 q 222 18 249 36 q 158 0 196 0 q 94 18 119 0 q 69 57 69 36 l 69 604 q 94 644 69 629 q 158 660 119 660 m -39 906 q -24 948 -39 931 q 17 965 -8 965 l 301 965 q 341 948 324 965 q 358 906 358 931 q 341 863 358 879 q 301 847 324 847 l 17 847 q -24 863 -8 847 q -39 906 -39 879 z "},"∞":{"ha":1250,"x_min":54,"x_max":1196,"o":"m 350 611 q 501 567 426 611 q 624 446 575 524 q 747 567 672 524 q 899 611 821 611 q 1010 593 957 611 q 1105 540 1064 575 q 1171 451 1146 504 q 1196 328 1196 399 q 1171 203 1196 257 q 1105 115 1146 150 q 1010 62 1064 79 q 897 44 956 44 q 747 88 821 44 q 624 208 672 131 q 501 88 575 131 q 350 44 426 44 q 240 62 293 44 q 145 115 186 79 q 79 203 104 150 q 54 328 54 257 q 79 451 54 399 q 145 540 104 504 q 240 593 186 575 q 350 611 293 611 m 686 328 q 781 225 721 258 q 897 192 842 192 q 951 200 925 192 q 996 225 976 208 q 1026 267 1015 242 q 1038 328 1038 293 q 1026 388 1038 363 q 996 431 1015 414 q 951 456 976 447 q 897 464 925 464 q 781 431 842 464 q 686 328 721 397 m 564 328 q 469 431 529 397 q 351 464 408 464 q 254 431 296 464 q 213 328 213 397 q 254 225 213 258 q 351 192 296 192 q 469 225 408 192 q 564 328 529 258 z "},"∫":{"ha":496,"x_min":-1,"x_max":499,"o":"m 443 1039 q 480 1021 461 1039 q 499 972 499 1003 q 486 926 499 950 q 443 901 474 901 q 362 876 385 901 q 339 790 339 850 l 339 -24 q 327 -117 339 -71 q 285 -198 315 -162 q 203 -256 256 -233 q 68 -278 150 -278 q 18 -258 38 -278 q -1 -210 -1 -237 q 14 -159 -1 -182 q 60 -136 29 -136 q 134 -110 110 -136 q 158 -25 158 -85 l 158 797 q 172 892 158 847 q 217 969 185 936 q 305 1020 250 1001 q 443 1039 360 1039 z "},"į":{"ha":318,"x_min":14,"x_max":256,"o":"m 185 -219 q 210 -233 203 -219 q 217 -260 217 -246 q 209 -285 217 -275 q 176 -296 201 -296 q 55 -261 96 -296 q 14 -171 14 -226 q 39 -74 14 -122 q 108 10 64 -26 q 69 57 69 28 l 69 604 q 94 644 69 629 q 158 660 119 660 q 222 644 196 660 q 249 604 249 629 l 249 57 q 238 31 249 43 q 210 10 226 18 q 133 -65 164 -19 q 101 -154 101 -110 q 121 -202 101 -185 q 185 -219 140 -219 m 158 982 q 227 956 199 982 q 256 894 256 931 q 227 833 256 860 q 158 807 199 807 q 88 833 117 807 q 60 894 60 860 q 88 956 60 931 q 158 982 117 982 z "},"ĩ":{"ha":318,"x_min":-78,"x_max":397,"o":"m 158 660 q 222 644 196 660 q 249 604 249 629 l 249 57 q 222 18 249 36 q 158 0 196 0 q 94 18 119 0 q 69 57 69 36 l 69 604 q 94 644 69 629 q 158 660 119 660 m 82 857 q 44 851 60 857 q 15 840 28 846 q -10 828 1 833 q -32 824 -21 824 q -55 831 -46 824 q -69 847 -64 838 q -76 867 -74 857 q -78 882 -78 876 q -64 933 -78 914 q -31 961 -50 951 q 9 974 -11 971 q 42 976 29 976 q 96 970 72 976 q 142 956 119 964 q 188 942 165 949 q 239 936 211 936 q 278 941 261 936 q 307 952 294 946 q 330 964 319 958 q 351 969 340 969 q 374 963 365 969 q 388 946 382 956 q 395 926 393 936 q 397 911 397 917 q 383 860 397 879 q 350 832 369 842 q 310 819 331 822 q 279 817 290 817 q 219 823 244 817 q 172 837 194 829 q 129 851 150 844 q 82 857 108 857 z "},"j":{"ha":321,"x_min":-53,"x_max":257,"o":"m 160 982 q 228 956 200 982 q 257 894 257 931 q 228 833 257 860 q 160 807 200 807 q 90 833 118 807 q 61 894 61 860 q 90 956 61 931 q 160 982 118 982 m 158 660 q 224 644 197 660 q 250 604 250 629 l 250 -44 q 237 -151 250 -103 q 197 -233 224 -199 q 131 -287 171 -268 q 40 -307 92 -307 q -6 -301 13 -307 q -34 -284 -24 -294 q -49 -260 -44 -274 q -53 -233 -53 -247 q -33 -176 -53 -197 q 15 -156 -12 -156 q 62 -124 53 -156 q 71 -44 71 -93 l 71 604 q 96 644 71 629 q 158 660 121 660 z "},"ĵ":{"ha":321,"x_min":-53,"x_max":358,"o":"m 158 660 q 224 644 197 660 q 250 604 250 629 l 250 -44 q 237 -151 250 -103 q 197 -233 224 -199 q 131 -287 171 -268 q 40 -307 92 -307 q -6 -301 13 -307 q -34 -284 -24 -294 q -49 -260 -44 -274 q -53 -233 -53 -247 q -33 -176 -53 -197 q 15 -156 -12 -156 q 62 -124 53 -156 q 71 -44 71 -93 l 71 604 q 96 644 71 629 q 158 660 121 660 m 17 804 q 1 800 8 800 q -26 817 -15 800 q -37 856 -37 833 q -31 885 -37 871 q -7 907 -24 899 l 138 985 q 161 992 149 992 q 185 985 171 992 l 329 908 q 351 884 344 899 q 358 854 358 869 q 347 817 358 833 q 319 800 336 800 q 306 804 311 800 l 161 882 l 17 804 z "},"k":{"ha":683,"x_min":71,"x_max":669,"o":"m 456 399 l 660 107 q 669 78 669 93 q 660 47 669 63 q 635 18 650 31 q 602 -3 619 6 q 568 -11 585 -11 q 524 13 540 -11 l 336 289 l 250 210 l 250 57 q 223 18 250 36 q 158 0 196 0 q 95 18 119 0 q 71 57 71 36 l 71 989 q 95 1029 71 1014 q 158 1044 119 1044 q 223 1029 196 1044 q 250 989 250 1014 l 250 407 l 511 653 q 547 667 528 667 q 577 659 561 667 q 606 639 593 651 q 626 611 618 626 q 635 581 635 596 q 619 547 635 563 l 456 399 z "},"ķ":{"ha":683,"x_min":71,"x_max":669,"o":"m 275 -264 q 265 -268 269 -267 q 256 -269 261 -269 q 216 -247 232 -269 q 200 -201 200 -225 q 224 -160 200 -172 l 407 -71 q 425 -67 417 -67 q 465 -89 449 -67 q 481 -135 481 -111 q 475 -160 481 -149 q 456 -178 469 -171 l 275 -264 m 456 399 l 660 107 q 669 78 669 93 q 660 47 669 63 q 635 18 650 31 q 602 -3 619 6 q 568 -11 585 -11 q 524 13 540 -11 l 336 289 l 250 210 l 250 57 q 223 18 250 36 q 158 0 196 0 q 95 18 119 0 q 71 57 71 36 l 71 989 q 95 1029 71 1014 q 158 1044 119 1044 q 223 1029 196 1044 q 250 989 250 1014 l 250 407 l 511 653 q 547 667 528 667 q 577 659 561 667 q 606 639 593 651 q 626 611 618 626 q 635 581 635 596 q 619 547 635 563 l 456 399 z "},"ĸ":{"ha":682,"x_min":69,"x_max":668,"o":"m 454 399 l 658 107 q 668 78 668 93 q 658 47 668 63 q 633 18 649 31 q 601 -3 618 6 q 567 -11 583 -11 q 522 13 539 -11 l 335 289 l 249 210 l 249 57 q 222 18 249 36 q 157 0 194 0 q 94 18 118 0 q 69 57 69 36 l 69 604 q 94 644 69 629 q 157 660 118 660 q 222 644 194 660 q 249 604 249 629 l 249 407 l 510 653 q 546 667 526 667 q 576 659 560 667 q 604 639 592 651 q 625 611 617 626 q 633 581 633 596 q 618 547 633 563 l 454 399 z "},"l":{"ha":343,"x_min":82,"x_max":261,"o":"m 171 1044 q 234 1029 207 1044 q 261 989 261 1014 l 261 57 q 234 18 261 36 q 171 0 207 0 q 106 18 131 0 q 82 57 82 36 l 82 989 q 106 1029 82 1014 q 171 1044 131 1044 z "},"ĺ":{"ha":343,"x_min":64,"x_max":344,"o":"m 139 1108 q 129 1104 133 1106 q 119 1103 125 1103 q 80 1125 96 1103 q 64 1171 64 1147 q 88 1214 64 1201 l 271 1303 q 281 1305 276 1304 q 289 1306 285 1306 q 328 1283 313 1306 q 344 1238 344 1261 q 339 1214 344 1225 q 319 1196 333 1203 l 139 1108 m 171 1044 q 234 1029 207 1044 q 261 989 261 1014 l 261 57 q 234 18 261 36 q 171 0 207 0 q 106 18 131 0 q 82 57 82 36 l 82 989 q 106 1029 82 1014 q 171 1044 131 1044 z "},"ľ":{"ha":343,"x_min":82,"x_max":522,"o":"m 428 1029 q 494 1001 467 1029 q 522 936 522 974 q 520 919 522 929 q 510 887 518 908 q 486 828 501 865 q 446 732 471 792 q 429 715 439 719 q 408 710 419 710 q 369 722 389 710 q 349 757 349 733 q 354 776 349 767 l 386 850 q 349 885 363 863 q 335 935 335 907 q 362 1001 335 974 q 428 1029 389 1029 m 171 1044 q 234 1029 207 1044 q 261 989 261 1014 l 261 57 q 234 18 261 36 q 171 0 207 0 q 106 18 131 0 q 82 57 82 36 l 82 989 q 106 1029 82 1014 q 171 1044 131 1044 z "},"ļ":{"ha":343,"x_min":32,"x_max":313,"o":"m 107 -264 q 97 -268 101 -267 q 88 -269 93 -269 q 48 -247 64 -269 q 32 -201 32 -225 q 56 -160 32 -172 l 239 -71 q 257 -67 249 -67 q 297 -89 281 -67 q 313 -135 313 -111 q 307 -160 313 -149 q 288 -178 301 -171 l 107 -264 m 171 1044 q 234 1029 207 1044 q 261 989 261 1014 l 261 57 q 234 18 261 36 q 171 0 207 0 q 106 18 131 0 q 82 57 82 36 l 82 989 q 106 1029 82 1014 q 171 1044 131 1044 z "},"ŀ":{"ha":514,"x_min":82,"x_max":514,"o":"m 171 1044 q 234 1029 207 1044 q 261 989 261 1014 l 261 57 q 234 18 261 36 q 171 0 207 0 q 106 18 131 0 q 82 57 82 36 l 82 989 q 106 1029 82 1014 q 171 1044 131 1044 m 415 504 q 485 478 457 504 q 514 417 514 453 q 485 354 514 381 q 415 328 457 328 q 344 354 374 328 q 315 417 315 381 q 344 478 315 453 q 415 504 374 504 z "},"<":{"ha":581,"x_min":26,"x_max":525,"o":"m 26 385 q 35 419 26 400 q 64 451 44 439 l 422 686 q 446 692 432 692 q 474 685 460 692 q 499 667 488 679 q 517 640 510 656 q 525 607 525 625 q 503 561 525 575 l 235 385 l 503 210 q 519 190 514 203 q 525 163 525 178 q 499 102 525 126 q 446 78 474 78 q 422 85 431 78 l 64 318 q 35 351 44 332 q 26 385 26 369 z "},"≤":{"ha":614,"x_min":49,"x_max":547,"o":"m 517 379 q 540 360 532 372 q 547 332 547 347 q 523 274 547 301 q 468 246 499 246 q 444 251 456 246 l 86 435 q 56 466 64 446 q 49 501 49 486 q 56 537 49 517 q 86 568 64 557 l 444 750 q 468 757 458 757 q 497 749 483 757 q 522 728 511 740 q 540 700 533 715 q 547 671 547 685 q 540 643 547 656 q 517 624 532 631 l 257 501 l 517 379 m 49 117 q 65 170 49 149 q 106 192 81 192 l 490 192 q 530 170 513 192 q 547 117 547 149 q 530 63 547 83 q 490 43 513 43 l 106 43 q 65 63 81 43 q 49 117 49 83 z "},"¬":{"ha":690,"x_min":44,"x_max":622,"o":"m 44 333 q 60 387 44 365 q 100 408 75 408 l 564 408 q 604 387 586 408 q 622 333 622 365 l 622 144 q 596 105 622 122 q 532 88 569 88 q 468 105 493 88 q 443 144 443 122 l 443 260 l 100 260 q 60 280 75 260 q 44 333 44 300 z "},"◊":{"ha":714,"x_min":29,"x_max":685,"o":"m 632 643 q 669 570 654 603 q 685 508 685 538 q 669 446 685 478 q 632 374 654 414 l 442 33 q 408 1 431 13 q 357 -10 385 -10 q 306 1 329 -10 q 271 33 283 11 l 82 374 q 44 446 60 414 q 29 508 29 478 q 44 570 29 538 q 82 643 60 603 l 271 983 q 306 1015 282 1004 q 357 1026 329 1026 q 408 1015 385 1026 q 442 983 431 1003 l 632 643 m 192 508 l 357 200 l 522 508 l 357 826 l 192 508 z "},"ł":{"ha":443,"x_min":14,"x_max":431,"o":"m 219 1044 q 283 1029 256 1044 q 310 989 310 1014 l 310 606 l 351 626 q 367 631 360 631 q 412 603 393 631 q 431 550 431 576 q 407 508 431 519 l 310 460 l 310 57 q 283 18 310 36 q 219 0 256 0 q 155 18 179 0 q 131 57 131 36 l 131 372 l 93 354 q 76 350 85 350 q 33 376 51 350 q 14 431 14 403 q 19 455 14 443 q 36 472 25 467 l 131 518 l 131 989 q 155 1029 131 1014 q 219 1044 179 1044 z "},"m":{"ha":1115,"x_min":69,"x_max":1051,"o":"m 471 386 q 436 478 471 444 q 357 511 401 511 q 283 479 317 511 q 249 386 249 447 l 249 57 q 222 18 249 36 q 158 0 194 0 q 94 18 118 0 q 69 57 69 36 l 69 604 q 94 644 69 629 q 158 660 118 660 q 214 644 190 660 q 238 604 238 629 l 238 563 q 306 635 261 603 q 421 668 351 668 q 526 630 481 668 q 594 529 572 592 q 687 634 631 600 q 804 668 743 668 q 896 649 851 668 q 975 594 940 631 q 1031 506 1010 558 q 1051 386 1051 454 l 1051 57 q 1024 18 1051 36 q 961 0 997 0 q 899 18 925 0 q 872 57 872 36 l 872 386 q 837 481 872 449 q 760 513 801 513 q 684 481 718 513 q 650 388 650 449 l 650 56 q 622 13 650 26 q 560 0 593 0 q 499 13 528 0 q 471 56 471 26 l 471 386 z "},"¯":{"ha":397,"x_min":0,"x_max":397,"o":"m 0 906 q 15 948 0 931 q 56 965 31 965 l 340 965 q 380 948 363 965 q 397 906 397 931 q 380 863 397 879 q 340 847 363 847 l 56 847 q 15 863 31 847 q 0 906 0 879 z "},"−":{"ha":685,"x_min":64,"x_max":622,"o":"m 64 394 q 79 448 64 426 q 119 469 94 469 l 564 469 q 604 448 586 469 q 622 394 622 426 q 604 341 622 361 q 564 321 586 321 l 119 321 q 79 341 94 321 q 64 394 64 361 z "},"µ":{"ha":719,"x_min":78,"x_max":678,"o":"m 379 -12 q 301 3 338 -12 q 236 42 264 18 l 236 -250 q 215 -290 236 -272 q 165 -307 194 -307 q 103 -290 128 -307 q 78 -250 78 -272 l 78 603 q 104 642 78 624 q 168 660 131 660 q 231 642 204 660 q 257 603 257 624 l 257 263 q 267 221 257 242 q 294 183 276 200 q 333 156 311 167 q 381 144 356 144 q 427 155 406 144 q 465 183 449 165 q 490 224 481 201 q 499 269 499 246 l 499 603 q 526 643 499 626 q 589 660 553 660 q 653 643 628 660 q 678 603 678 626 l 678 269 q 654 161 678 213 q 590 72 631 110 q 496 10 550 33 q 379 -12 442 -12 z "},"×":{"ha":565,"x_min":58,"x_max":507,"o":"m 507 240 q 499 210 507 225 q 480 184 492 196 q 453 165 468 172 q 424 157 439 157 q 388 171 401 157 l 282 276 l 178 171 q 142 157 164 157 q 113 165 128 157 q 86 184 99 172 q 66 211 74 196 q 58 242 58 226 q 72 276 58 263 l 189 382 l 74 485 q 60 521 60 501 q 85 578 60 553 q 143 604 111 604 q 179 590 163 604 l 282 486 l 386 590 q 422 604 400 604 q 480 578 454 604 q 506 522 506 553 q 492 485 506 501 l 376 382 l 493 276 q 507 240 507 263 z "},"n":{"ha":726,"x_min":69,"x_max":663,"o":"m 249 57 q 222 18 249 36 q 158 0 194 0 q 94 18 118 0 q 69 57 69 36 l 69 604 q 94 644 69 629 q 158 660 118 660 q 214 644 190 660 q 238 604 238 629 l 238 563 q 306 635 257 603 q 424 668 354 668 q 515 646 471 668 q 591 585 558 624 q 643 495 624 546 q 663 386 663 444 l 663 57 q 634 15 663 29 q 572 0 606 0 q 512 15 540 0 q 483 57 483 29 l 483 386 q 474 432 483 410 q 448 472 464 454 q 410 501 432 490 q 363 511 388 511 q 284 478 319 511 q 249 386 249 444 l 249 57 z "},"ń":{"ha":726,"x_min":69,"x_max":663,"o":"m 307 794 q 297 790 301 792 q 288 789 293 789 q 248 811 264 789 q 232 857 232 833 q 256 900 232 888 l 439 989 q 449 991 444 990 q 457 992 453 992 q 497 969 481 992 q 513 924 513 947 q 507 900 513 911 q 488 882 501 889 l 307 794 m 249 57 q 222 18 249 36 q 158 0 194 0 q 94 18 118 0 q 69 57 69 36 l 69 604 q 94 644 69 629 q 158 660 118 660 q 214 644 190 660 q 238 604 238 629 l 238 563 q 306 635 257 603 q 424 668 354 668 q 515 646 471 668 q 591 585 558 624 q 643 495 624 546 q 663 386 663 444 l 663 57 q 634 15 663 29 q 572 0 606 0 q 512 15 540 0 q 483 57 483 29 l 483 386 q 474 432 483 410 q 448 472 464 454 q 410 501 432 490 q 363 511 388 511 q 284 478 319 511 q 249 386 249 444 l 249 57 z "},"ň":{"ha":726,"x_min":69,"x_max":663,"o":"m 358 919 l 500 1011 q 517 1017 510 1017 q 545 999 535 1017 q 556 963 556 982 q 526 910 556 928 l 383 818 q 358 810 368 810 q 333 818 346 810 l 190 910 q 160 963 160 928 q 171 999 160 982 q 199 1017 182 1017 q 215 1011 208 1017 l 358 919 m 249 57 q 222 18 249 36 q 158 0 194 0 q 94 18 118 0 q 69 57 69 36 l 69 604 q 94 644 69 629 q 158 660 118 660 q 214 644 190 660 q 238 604 238 629 l 238 563 q 306 635 257 603 q 424 668 354 668 q 515 646 471 668 q 591 585 558 624 q 643 495 624 546 q 663 386 663 444 l 663 57 q 634 15 663 29 q 572 0 606 0 q 512 15 540 0 q 483 57 483 29 l 483 386 q 474 432 483 410 q 448 472 464 454 q 410 501 432 490 q 363 511 388 511 q 284 478 319 511 q 249 386 249 444 l 249 57 z "},"ņ":{"ha":726,"x_min":69,"x_max":663,"o":"m 294 -264 q 285 -268 289 -267 q 275 -269 281 -269 q 235 -247 251 -269 q 219 -201 219 -225 q 243 -160 219 -172 l 426 -71 q 444 -67 436 -67 q 484 -89 468 -67 q 500 -135 500 -111 q 494 -160 500 -149 q 475 -178 489 -171 l 294 -264 m 249 57 q 222 18 249 36 q 158 0 194 0 q 94 18 118 0 q 69 57 69 36 l 69 604 q 94 644 69 629 q 158 660 118 660 q 214 644 190 660 q 238 604 238 629 l 238 563 q 306 635 257 603 q 424 668 354 668 q 515 646 471 668 q 591 585 558 624 q 643 495 624 546 q 663 386 663 444 l 663 57 q 634 15 663 29 q 572 0 606 0 q 512 15 540 0 q 483 57 483 29 l 483 386 q 474 432 483 410 q 448 472 464 454 q 410 501 432 490 q 363 511 388 511 q 284 478 319 511 q 249 386 249 444 l 249 57 z "},"₉":{"ha":478,"x_min":38,"x_max":433,"o":"m 208 210 q 142 217 174 210 q 88 244 111 225 q 51 293 65 263 q 38 369 38 324 l 38 378 q 53 460 38 426 q 94 515 68 494 q 157 546 121 536 q 235 556 193 556 q 313 546 276 556 q 376 515 349 536 q 418 459 403 493 q 433 376 433 425 l 433 175 q 417 91 433 125 q 374 36 401 57 q 309 6 347 15 q 228 -4 271 -4 q 142 9 178 -4 q 83 43 106 22 q 49 89 60 64 q 38 138 38 114 q 51 176 38 165 q 93 186 65 186 q 137 178 118 186 q 156 143 156 169 q 178 110 156 121 q 232 100 200 100 q 292 118 271 100 q 314 175 314 136 l 314 243 q 267 216 294 222 q 208 210 240 210 m 314 383 q 293 442 314 424 q 235 460 272 460 q 178 442 199 460 q 157 383 157 424 l 157 376 q 178 319 157 336 q 236 301 199 301 q 292 317 271 301 q 314 371 314 333 l 314 383 z "},"⁹":{"ha":478,"x_min":38,"x_max":433,"o":"m 208 669 q 142 677 174 669 q 88 703 111 685 q 51 753 65 722 q 38 829 38 783 l 38 838 q 53 920 38 886 q 94 975 68 954 q 157 1006 121 996 q 235 1015 193 1015 q 313 1006 276 1015 q 376 974 349 996 q 418 919 403 953 q 433 836 433 885 l 433 635 q 417 552 433 586 q 374 497 401 518 q 309 465 347 475 q 228 456 271 456 q 142 469 178 456 q 83 504 106 483 q 49 550 60 525 q 38 599 38 575 q 51 636 38 626 q 93 646 65 646 q 137 638 118 646 q 156 603 156 631 q 178 570 156 581 q 232 560 200 560 q 292 578 271 560 q 314 635 314 596 l 314 703 q 267 676 294 683 q 208 669 240 669 m 314 844 q 293 902 314 885 q 235 919 272 919 q 178 902 199 919 q 157 844 157 885 l 157 836 q 178 778 157 796 q 236 761 199 761 q 292 777 271 761 q 314 831 314 793 l 314 844 z "},"≠":{"ha":694,"x_min":49,"x_max":647,"o":"m 514 557 l 590 557 q 629 535 611 557 q 647 482 647 514 q 629 428 647 449 q 590 408 611 408 l 425 408 l 351 275 l 590 275 q 629 253 611 275 q 647 200 647 232 q 629 147 647 167 q 590 126 611 126 l 261 126 l 183 -15 q 157 -31 175 -31 q 124 -18 140 -31 q 108 13 108 -6 q 115 32 108 21 l 164 126 l 104 126 q 64 147 79 126 q 49 200 49 167 q 64 253 49 232 q 104 275 79 275 l 251 275 l 324 408 l 104 408 q 64 428 79 408 q 49 482 49 449 q 64 535 49 514 q 104 557 79 557 l 413 557 l 507 728 q 536 743 517 743 q 571 730 554 743 q 588 697 588 717 q 586 688 588 692 q 582 678 585 683 l 514 557 z "},"ñ":{"ha":726,"x_min":69,"x_max":663,"o":"m 283 857 q 245 851 261 857 q 216 840 229 846 q 192 828 203 833 q 169 824 181 824 q 147 831 156 824 q 133 847 138 838 q 126 867 128 857 q 124 882 124 876 q 138 933 124 914 q 171 961 151 951 q 210 974 190 971 q 243 976 231 976 q 297 970 274 976 q 344 956 321 964 q 390 942 367 949 q 440 936 413 936 q 479 941 463 936 q 508 952 496 946 q 531 964 521 958 q 553 969 542 969 q 575 963 567 969 q 589 946 583 956 q 597 926 594 936 q 599 911 599 917 q 585 860 599 879 q 551 832 571 842 q 512 819 532 822 q 481 817 492 817 q 421 823 446 817 q 374 837 396 829 q 331 851 351 844 q 283 857 310 857 m 249 57 q 222 18 249 36 q 158 0 194 0 q 94 18 118 0 q 69 57 69 36 l 69 604 q 94 644 69 629 q 158 660 118 660 q 214 644 190 660 q 238 604 238 629 l 238 563 q 306 635 257 603 q 424 668 354 668 q 515 646 471 668 q 591 585 558 624 q 643 495 624 546 q 663 386 663 444 l 663 57 q 634 15 663 29 q 572 0 606 0 q 512 15 540 0 q 483 57 483 29 l 483 386 q 474 432 483 410 q 448 472 464 454 q 410 501 432 490 q 363 511 388 511 q 284 478 319 511 q 249 386 249 444 l 249 57 z "}}}
